<?xml version="1.0" encoding="UTF-8"?>
<!DOCTYPE svg PUBLIC "-//W3C//DTD SVG 1.1//EN" "http://www.w3.org/Graphics/SVG/1.1/DTD/svg11.dtd">
<!-- Creator: CorelDRAW X7 -->
<svg xmlns="http://www.w3.org/2000/svg" xml:space="preserve" width="7.5in" height="7.5in" version="1.1" style="shape-rendering:geometricPrecision; text-rendering:geometricPrecision; image-rendering:optimizeQuality; fill-rule:evenodd; clip-rule:evenodd"
viewBox="0 0 7500 7500"
 xmlns:xlink="http://www.w3.org/1999/xlink">
 <defs>
  <style type="text/css">
   <![CDATA[
    .fil0 {fill:none}
    .fil1 {fill:#454545;fill-rule:nonzero}
   ]]>
  </style>
 </defs>
 <g id="Layer_x0020_1">
  <metadata id="CorelCorpID_0Corel-Layer"/>
  <rect class="fil0" width="7500" height="7500"/>
  <g id="Cindicator_x0020_ICO.eps">
   <path class="fil1" d="M2010 2936c11,14 11,14 0,0z"/>
   <path class="fil1" d="M4058 936c175,-95 346,-200 525,-286 282,57 562,125 845,178 127,90 258,176 387,264 48,28 68,82 98,127 85,145 183,283 262,432 -102,185 -216,362 -329,541 -289,72 -583,124 -870,203 -61,-147 -117,-297 -183,-442 -168,-31 -336,-64 -505,-87 -185,64 -372,131 -541,233 -133,75 -266,151 -400,225 -18,271 -31,543 -43,813 -135,151 -262,310 -392,466 154,242 309,484 466,724 -27,125 -75,244 -107,368 104,112 202,230 305,343 327,56 656,103 984,156 224,-50 448,-105 671,-162 99,-83 175,-193 265,-286 161,68 326,127 488,191 22,7 36,21 40,44 90,330 166,665 261,994 -334,181 -664,368 -996,550 -214,66 -431,122 -645,185 -162,28 -326,34 -487,61 -91,24 -182,51 -271,79 -212,-78 -428,-147 -641,-224 -177,-177 -351,-356 -532,-529 -240,-103 -494,-173 -738,-266 -156,-367 -264,-754 -430,-1118 -110,-309 -222,-618 -330,-928 114,-91 232,-176 341,-272 -26,-277 -30,-557 -63,-834 162,-69 325,-134 488,-201 37,-301 59,-604 92,-906 388,-259 774,-520 1157,-787 274,59 553,97 828,151zm117 -8c353,-32 707,-50 1060,-88 -219,-39 -434,-93 -652,-136 -136,74 -270,153 -408,224zm-886 -73c61,81 116,166 174,250 165,-44 327,-96 493,-137 -223,-34 -444,-77 -667,-113zm-1086 696c237,-23 474,-55 712,-79 83,-195 172,-389 258,-583 -321,224 -647,441 -970,662zm1920 -568c80,83 162,164 243,247 332,-22 664,-54 997,-71 3,-91 17,-181 30,-271 -424,26 -847,67 -1270,95zm-840 -49c26,132 53,264 74,397 21,-63 49,-126 61,-192 -39,-72 -91,-136 -135,-205zm2154 -20c-4,75 -10,149 -22,222 49,-27 99,-52 149,-76 -44,-47 -86,-96 -127,-146zm-2209 34c-51,229 -109,458 -164,686 85,-72 171,-145 259,-215 -32,-157 -56,-316 -95,-471zm242 212c-24,77 -50,154 -78,230 181,-32 363,-62 544,-95 31,-99 58,-198 90,-296 -184,56 -371,104 -556,161zm605 -150c-27,103 -61,204 -88,307 93,147 186,293 277,440 25,-163 43,-328 63,-492 -84,-85 -168,-170 -252,-255zm1561 95c-7,154 13,306 14,460 40,-140 107,-274 138,-415 -50,-17 -101,-31 -152,-45zm-2510 24c-53,109 -101,220 -149,331 -29,53 19,106 35,157 41,-162 86,-323 114,-488zm2271 86c-77,140 -147,285 -223,426 -96,157 -86,348 -125,523 173,-341 331,-691 497,-1036 -50,28 -110,44 -149,87zm-307 1002c153,-157 305,-314 458,-471 23,-26 57,-53 51,-92 -8,-161 -8,-322 -14,-482 -165,348 -334,695 -495,1045zm577 -550c147,-9 292,-30 439,-37 -92,-143 -178,-289 -270,-433 -59,156 -111,314 -169,470zm-1239 -393c218,144 436,288 654,432 85,-167 172,-333 259,-499 -304,27 -609,53 -913,67zm-49 32c-28,168 -41,337 -69,505 165,32 330,61 495,89 83,-47 158,-104 237,-156 -221,-146 -440,-295 -663,-438zm-989 136c34,92 70,184 102,276 246,31 492,59 739,83 -97,-149 -190,-301 -286,-451 -185,28 -370,63 -555,92zm-338 271c42,141 89,281 138,421 85,-130 174,-257 251,-392 -24,-93 -65,-182 -98,-272 -97,81 -194,162 -291,243zm-887 -100c67,51 133,103 199,157 141,-77 283,-152 425,-228 -209,19 -417,42 -624,71zm173 358c217,-91 433,-185 650,-276 -24,-53 -46,-106 -68,-159 -194,145 -389,289 -582,435zm-207 -320c7,122 13,244 30,364 55,-69 109,-140 164,-210 -66,-51 -130,-102 -194,-154zm3568 70c82,69 163,140 247,207 52,-82 103,-166 154,-249 -134,20 -269,21 -401,42zm-3406 211c111,-71 214,-155 321,-234 -119,60 -254,111 -321,234zm313 -19c177,80 356,157 531,240 -41,-138 -91,-272 -132,-409 -132,57 -264,116 -399,169zm2469 400c238,-54 476,-107 713,-161 -55,-135 -113,-270 -167,-406 -184,187 -366,376 -546,567zm-1831 -161c195,-58 389,-118 585,-170 -115,-67 -230,-134 -345,-201 -81,123 -161,247 -240,371zm356 -367c96,61 195,116 294,172 95,-34 187,-73 281,-108 -192,-19 -383,-42 -575,-64zm2096 5c43,109 90,216 133,324 31,-45 60,-92 90,-139 -74,-61 -146,-126 -223,-185zm-850 149c45,109 92,217 131,328 30,-155 49,-312 80,-467 -71,45 -140,92 -211,139zm-2686 167c-38,114 -73,229 -109,343 64,-35 154,-42 190,-114 79,-122 155,-246 237,-366 -105,48 -212,91 -318,137zm409 -151c8,136 14,273 17,410 173,-56 347,-112 520,-169 -178,-82 -358,-161 -537,-241zm-291 419c85,-1 169,0 254,0 -7,-125 -9,-249 -13,-374 -81,124 -160,250 -241,374zm961 -169c26,25 53,50 80,74 117,-65 233,-130 350,-196 -145,38 -286,85 -430,122zm-656 217c-66,252 -124,505 -189,757 235,-309 474,-615 707,-926 -172,57 -345,113 -518,169zm617 -180c-39,192 -76,384 -117,575 58,80 117,159 176,238 -2,-243 31,-485 29,-727 -22,-35 -59,-58 -88,-86zm-832 1060c4,21 9,43 14,64 216,-184 432,-371 649,-554 33,-169 69,-337 102,-505 -259,329 -512,662 -765,995zm-326 -791c87,217 166,438 252,656 -22,-243 -57,-485 -88,-727 -55,24 -109,47 -164,71zm219 -81c26,239 63,477 86,716 62,-238 118,-478 179,-716 -89,-1 -177,-1 -265,0zm-635 251c152,38 308,58 461,91 -32,-81 -64,-161 -91,-243 -123,52 -247,100 -370,152zm-57 63c67,214 138,426 201,642 64,-151 125,-303 190,-453 -131,-63 -260,-127 -391,-189zm142 11c94,41 183,92 279,130 27,-19 52,-40 78,-61 -118,-27 -238,-46 -357,-69zm107 672c169,-5 337,-28 507,-30 -67,-176 -137,-351 -201,-529 -103,186 -208,371 -306,559zm1248 -547c-17,78 -39,155 -59,233 74,-1 148,-5 221,-12 -55,-73 -110,-146 -162,-221zm-1464 615c44,-18 89,-35 134,-52 -59,-178 -114,-358 -170,-537 12,196 33,392 36,589zm930 -184c139,-59 276,-124 414,-184 23,-75 42,-151 62,-226 -159,136 -322,268 -476,410zm-522 -375c11,14 11,14 0,0zm984 233c-25,112 -45,224 -70,336 99,-117 196,-235 294,-353 -75,2 -149,11 -224,17zm-568 246c144,49 288,99 431,150 29,-124 53,-250 77,-376 -170,75 -337,155 -508,226zm-263 44c-173,20 -358,-5 -518,77 288,167 579,330 867,497 109,-140 215,-282 324,-421 -143,-47 -284,-98 -426,-148 -79,-33 -165,-11 -247,-5zm-882 345c95,296 209,585 308,880 152,-231 308,-459 462,-688 -158,-141 -312,-288 -471,-429 -100,78 -203,153 -299,237zm494 -130c104,91 203,188 307,279 87,42 189,40 282,58 -194,-116 -391,-227 -589,-337zm1079 1c-92,120 -185,240 -277,360 100,-5 201,-5 301,-11 -10,-117 -18,-233 -24,-349zm55 18c12,111 14,222 15,334 112,77 227,148 340,224 -117,-187 -240,-370 -355,-558zm-871 857c144,-155 287,-311 430,-468 -121,-15 -240,-39 -360,-58 -24,175 -48,350 -70,526zm490 -454c-156,167 -308,337 -464,504 272,-14 543,-38 814,-55 1,-158 1,-315 0,-473 -117,3 -233,17 -350,24zm-887 601c112,-30 226,-56 337,-87 18,-173 45,-344 67,-515 -130,203 -269,402 -404,602zm1328 -578c89,168 177,337 263,507 32,-91 61,-184 89,-277 -119,-75 -236,-151 -352,-230zm-42 31c2,131 -3,261 2,392 77,50 172,69 256,107 -87,-166 -170,-334 -258,-499zm-773 499c226,63 451,124 676,191 13,-81 28,-162 41,-243 -239,19 -478,32 -717,52zm772 -44c-16,74 -28,148 -39,223 93,-44 189,-84 281,-130 -80,-31 -162,-61 -242,-93zm-1235 231c292,148 586,294 879,440 80,-130 158,-262 241,-390 -270,-71 -538,-149 -807,-224 -105,56 -210,114 -313,174zm-71 -81c6,11 17,34 23,45 56,-30 112,-61 167,-91 -64,14 -126,32 -190,46zm1312 112c186,48 371,100 557,151 -88,-95 -170,-193 -257,-289 -100,46 -201,90 -300,138zm2590 -52c-7,20 -15,41 -23,62 97,2 190,34 286,40 -83,-43 -177,-62 -263,-102zm-3834 97c105,282 205,567 313,849 130,-106 252,-223 380,-332 -232,-171 -462,-345 -693,-517zm1259 12c139,129 278,259 417,388 51,-77 106,-151 154,-229 -189,-58 -381,-104 -571,-159zm2551 2c3,143 16,285 25,428 222,184 453,359 680,538 -74,-300 -152,-598 -230,-897 -157,-28 -317,-40 -475,-69zm-2669 26c-71,121 -146,239 -219,358 109,161 222,319 326,483 -42,-279 -62,-562 -107,-841zm55 -13c38,291 66,584 108,875 113,-154 227,-306 340,-459 -150,-138 -297,-279 -448,-416zm2565 8c-57,40 -111,82 -167,121 -45,159 -87,318 -130,478 104,-65 210,-127 314,-190 -10,-136 -7,-273 -17,-409zm-3561 48c176,134 357,264 532,401 37,-27 74,-54 111,-80 -215,-106 -428,-215 -643,-321zm1683 109c-55,79 -109,157 -163,236 265,89 529,182 794,274 -212,-168 -420,-340 -631,-510zm83 1c225,178 446,362 670,542 66,-135 134,-269 202,-403 -290,-52 -582,-90 -872,-139zm932 138c-61,120 -120,240 -183,360 242,-161 480,-326 720,-489 -179,43 -358,88 -537,129zm-147 404c218,-25 436,-45 653,-72 37,-154 79,-306 122,-458 -259,176 -518,351 -775,530zm-1984 -212c66,141 130,283 199,422 -29,-167 -62,-334 -93,-501 -35,27 -70,53 -106,79zm560 436c203,74 401,160 606,228 221,-128 430,-275 649,-406 -298,-102 -595,-207 -894,-309 -120,162 -240,325 -361,487zm2160 -278c314,102 629,200 943,300 -208,-164 -418,-328 -626,-492 -105,65 -211,128 -317,192zm-2436 425c66,-45 131,-93 196,-140 -103,-147 -201,-297 -305,-443 35,194 72,389 109,583zm-698 -220c209,76 421,146 631,221 -89,-181 -173,-365 -258,-548 -126,107 -248,220 -373,327zm2415 -105c275,93 554,174 831,261 -64,-107 -125,-215 -188,-322 -215,16 -428,49 -643,61zm710 -47c69,106 123,222 196,326 248,-14 496,-16 745,-28 -314,-97 -627,-198 -941,-298zm-822 72c-71,223 -147,443 -220,665 374,-129 751,-250 1124,-382 -300,-100 -603,-189 -904,-283zm-668 413c129,86 261,166 392,250 72,-210 141,-422 210,-633 -200,128 -400,257 -602,383zm-915 -63c165,165 331,330 496,495 56,-89 112,-178 167,-268 -150,-126 -301,-252 -452,-378 -71,50 -140,101 -211,151zm343 -108c120,96 236,198 355,295 40,-38 80,-75 120,-112 -159,-60 -318,-119 -475,-183zm2264 64c-25,143 -42,288 -61,432 279,-155 556,-312 837,-462 -259,5 -517,26 -776,30zm-1130 376c231,0 463,0 694,0 108,-114 213,-230 321,-344 -338,118 -677,229 -1015,344zm758 9c85,22 170,41 255,65 15,-132 38,-262 53,-394 -104,109 -205,220 -308,329zm-1494 -124c207,132 415,264 623,395 -35,-94 -22,-226 -123,-278 -124,-76 -245,-159 -371,-233 -46,34 -87,76 -129,116zm-36 47c-52,79 -101,161 -154,241 129,-10 257,-21 385,-36 -76,-70 -153,-137 -231,-205zm732 120c138,68 275,138 412,206 89,-68 175,-138 261,-208 -225,1 -449,-3 -673,2zm752 1c-72,61 -146,118 -219,177 149,-41 296,-86 445,-124 -76,-16 -151,-34 -226,-53zm-824 23c22,78 43,155 61,233 110,-11 221,-19 330,-39 -131,-63 -260,-131 -391,-194zm-738 143c148,53 298,103 447,156 -30,-64 -60,-127 -90,-191 -118,22 -238,21 -357,35zm511 170c66,-19 131,-38 197,-55 -94,-38 -185,-81 -278,-121 27,59 55,117 81,176z"/>
  </g>
 </g>
</svg>
