<svg width="1366" height="396" viewBox="0 0 1366 396" version="1.1" xmlns="http://www.w3.org/2000/svg" xmlns:xlink="http://www.w3.org/1999/xlink">
<title>Chart</title>
<desc>Created using Figma</desc>
<g id="Canvas" transform="translate(-3341 208)">
<g id="Chart">
<g id="Vector">
<use xlink:href="#path0_fill" transform="translate(2750.35 -206.907)" fill="url(#paint0_linear)"/>
</g>
<g id="Vector">
<use xlink:href="#path1_stroke" transform="translate(2750.35 -206.907)" fill="url(#paint1_linear)"/>
</g>
</g>
</g>
<defs>
<linearGradient id="paint0_linear" x1="0" y1="0" x2="1" y2="0" gradientUnits="userSpaceOnUse" gradientTransform="matrix(1.52361e-13 394.65 -2488.24 2.41654e-14 2488.24 -2.41654e-14)">
<stop offset="0" stop-color="#022485" stop-opacity="0.43"/>
<stop offset="1" stop-color="#03369B" stop-opacity="0"/>
</linearGradient>
<linearGradient id="paint1_linear" x1="0" y1="0" x2="1" y2="0" gradientUnits="userSpaceOnUse" gradientTransform="matrix(-1233.06 -23.2228 223.136 -8491.66 1724.53 4465.91)">
<stop offset="0" stop-color="#FFFFFF" stop-opacity="0"/>
<stop offset="0.703695" stop-color="#FFFFFF" stop-opacity="0.08"/>
<stop offset="1" stop-color="#FF8C00"/>
</linearGradient>
<path id="path0_fill" d="M 325.453 333.535C 188.337 331.01 0 249.962 0 249.962L 0 394.65L 2488.24 394.65L 2488.24 0C 2488.24 0 2345.46 157.758 2263.49 161.745C 2158.78 166.838 2109.12 77.5329 2004.1 77.3946C 1873.86 77.223 1818.62 182.244 1688.44 184.96C 1584.11 187.137 1530.74 146.29 1426.61 150.912C 1268.81 157.915 1227.51 273.112 1069.35 271.629C 939.339 270.409 895.661 190.307 765.915 184.96C 571.382 176.943 520.316 337.124 325.453 333.535Z"/>
<path id="path1_stroke" d="M 325.453 333.535L 325.48 332.035L 325.453 333.535ZM 765.915 184.96L 765.854 186.459L 765.915 184.96ZM 1069.35 271.629L 1069.33 273.129L 1069.35 271.629ZM 1426.61 150.912L 1426.54 149.413L 1426.61 150.912ZM 1688.44 184.96L 1688.47 186.46L 1688.44 184.96ZM 2004.1 77.3946L 2004.1 78.8946L 2004.1 77.3946ZM 2263.49 161.745L 2263.42 160.247L 2263.49 161.745ZM 0 249.962C -0.59293 251.339 -0.592041 251.34 -0.590436 251.341C -0.588944 251.341 -0.586621 251.342 -0.58364 251.343C -0.577793 251.346 -0.568857 251.35 -0.557189 251.355C -0.534083 251.365 -0.499134 251.38 -0.453147 251.399C -0.361633 251.439 -0.22411 251.497 -0.0428993 251.574C 0.318593 251.728 0.858658 251.957 1.56707 252.255C 2.98199 252.85 5.07835 253.725 7.79142 254.837C 13.2136 257.06 21.1207 260.242 31.0303 264.064C 50.8409 271.706 78.7089 281.931 110.85 292.23C 175.116 312.82 256.693 333.759 325.425 335.035L 325.48 332.035C 257.097 330.786 175.947 309.938 111.766 289.373C 79.6835 279.094 51.8975 268.899 32.11 261.265C 22.2205 257.45 14.3425 254.28 8.92942 252.061C 6.22484 250.952 4.14099 250.083 2.73012 249.49C 2.02563 249.193 1.49139 248.967 1.13182 248.814C 0.952492 248.738 0.817786 248.68 0.727204 248.641C 0.682143 248.622 0.648578 248.608 0.625932 248.598C 0.614723 248.593 0.606474 248.59 0.600855 248.587C 0.598102 248.586 0.596121 248.585 0.594743 248.585C 0.593478 248.584 0.59293 248.584 0 249.962ZM 325.425 335.035C 423.291 336.773 485.169 297.449 546.606 258.857C 608.043 220.265 669.029 182.403 765.854 186.459L 765.977 183.461C 668.268 179.501 606.455 217.72 545.01 256.317C 483.565 294.914 422.478 333.885 325.48 332.035L 325.425 335.035ZM 765.854 186.459C 830.418 189.087 873.488 210.345 916.883 231.194C 960.278 252.044 1004.01 272.482 1069.33 273.129L 1069.36 270.129C 1004.67 269.556 961.564 249.333 918.182 228.49C 874.8 207.647 831.158 186.18 765.977 183.461L 765.854 186.459ZM 1069.33 273.129C 1148.81 273.822 1199.05 245.239 1248.88 215.743C 1298.71 186.248 1348.15 155.847 1426.68 152.41L 1426.54 149.413C 1347.27 152.979 1297.16 183.679 1247.35 213.162C 1197.54 242.645 1148.05 270.919 1069.36 270.129L 1069.33 273.129ZM 1426.68 152.41C 1530.29 147.721 1583.64 188.563 1688.47 186.46L 1688.41 183.46C 1584.57 185.711 1531.19 144.859 1426.54 149.413L 1426.68 152.41ZM 1688.47 186.46C 1753.93 185.046 1800.63 157.967 1846.99 131.396C 1893.35 104.825 1939.36 78.7597 2004.1 78.8946L 2004.11 75.8946C 1938.6 75.8579 1891.87 102.218 1845.5 128.793C 1799.13 155.369 1753.12 182.158 1688.41 183.46L 1688.47 186.46ZM 2004.1 78.8946C 2056.22 78.9122 2094.54 101.128 2133.18 122.839C 2171.82 144.551 2210.8 165.754 2263.56 163.243L 2263.42 160.247C 2211.47 162.83 2173.27 141.926 2134.65 120.224C 2096.03 98.5215 2057 76.0152 2004.11 75.8946L 2004.1 78.8946ZM 2263.56 163.243C 2284.45 162.228 2309.01 151.451 2333.98 136.067C 2358.96 120.67 2384.59 100.502 2407.59 80.5094C 2430.59 60.5126 2451.04 40.6288 2465.72 25.7659C 2473.06 18.3308 2478.97 12.1396 2483.04 7.81409C 2485.08 5.64959 2486.65 3.94742 2487.72 2.78921C 2488.26 2.20927 2488.66 1.76354 2488.94 1.46409C 2489.07 1.31396 2489.18 1.19956 2489.25 1.12331C 2489.28 1.08498 2489.31 1.05579 2489.33 1.03648C 2489.34 1.02673 2489.34 1.01924 2489.35 1.01435C 2489.35 1.01185 2489.35 1.0099 2489.35 1.00865C 2489.35 1.0073 2489.35 1.00655 2488.24 0C 2487.13 -1.00655 2487.13 -1.0061 2487.13 -1.00504C 2487.13 -1.00389 2487.13 -1.00224 2487.12 -0.999942C 2487.12 -0.995245 2487.11 -0.98836 2487.1 -0.979006C 2487.09 -0.960097 2487.06 -0.932112 2487.03 -0.894595C 2486.96 -0.819161 2486.86 -0.707225 2486.72 -0.558742C 2486.45 -0.260968 2486.05 0.179637 2485.52 0.756129C 2484.45 1.91077 2482.88 3.60183 2480.85 5.75881C 2476.79 10.0762 2470.91 16.241 2463.58 23.658C 2448.93 38.4993 2428.56 58.3043 2405.62 78.2453C 2382.68 98.1906 2357.24 118.21 2332.4 133.513C 2307.54 148.831 2283.52 159.269 2263.42 160.247L 2263.56 163.243Z"/>
</defs>
</svg>
