<svg width="412" height="222" viewBox="0 0 412 222" version="1.1" xmlns="http://www.w3.org/2000/svg" xmlns:xlink="http://www.w3.org/1999/xlink">
<title>Chart</title>
<desc>Created using Figma</desc>
<g id="Canvas" transform="translate(-1843 56)">
<g id="Chart">
<g id="Vector">
<use xlink:href="#path0_fill" transform="translate(1378.29 -54)" fill="url(#paint0_linear)"/>
</g>
<g id="Vector">
<use xlink:href="#path1_stroke" transform="translate(1378.29 -54)" fill="url(#paint1_linear)"/>
</g>
</g>
</g>
<defs>
<linearGradient id="paint0_linear" x1="0" y1="0" x2="1" y2="0" gradientUnits="userSpaceOnUse" gradientTransform="matrix(8.4767e-14 219.566 -1384.35 1.34446e-14 1384.35 -1.82826e-14)">
<stop offset="0.629637" stop-color="#022485" stop-opacity="0.14"/>
<stop offset="1" stop-color="#03369B" stop-opacity="0"/>
</linearGradient>
<linearGradient id="paint1_linear" x1="0" y1="0" x2="1" y2="0" gradientUnits="userSpaceOnUse" gradientTransform="matrix(-686.022 -12.9201 124.143 -4724.39 959.455 2484.64)">
<stop offset="0" stop-color="#FFFFFF" stop-opacity="0"/>
<stop offset="0.436464" stop-color="#FFFFFF" stop-opacity="0.17"/>
<stop offset="0.712707" stop-color="#FF8C00"/>
</linearGradient>
<path id="path0_fill" d="M 181.068 185.564C 104.783 184.159 0 139.068 0 139.068L 0 219.566L 1384.35 219.566L 1384.35 0C 1384.35 0 1304.91 87.7696 1259.31 89.988C 1201.05 92.8216 1173.42 43.1359 1115 43.059C 1042.53 42.9635 1011.8 101.393 939.374 102.904C 881.328 104.115 851.639 81.3895 793.703 83.9607C 705.913 87.8568 682.934 151.948 594.937 151.122C 522.607 150.444 498.307 105.878 426.122 102.904C 317.892 98.4436 289.481 187.561 181.068 185.564Z"/>
<path id="path1_stroke" d="M 181.068 185.564L 181.095 184.065L 181.068 185.564ZM 426.122 102.904L 426.06 104.402L 426.122 102.904ZM 594.937 151.122L 594.923 152.622L 594.937 151.122ZM 793.703 83.9607L 793.637 82.4622L 793.703 83.9607ZM 939.374 102.904L 939.406 104.403L 939.374 102.904ZM 1115 43.059L 1114.99 44.559L 1115 43.059ZM 1259.31 89.988L 1259.23 88.4898L 1259.31 89.988ZM 0 139.068C -0.59293 140.446 -0.59236 140.446 -0.591391 140.446C -0.590536 140.447 -0.589168 140.447 -0.587459 140.448C -0.584155 140.449 -0.579031 140.452 -0.572438 140.454C -0.559481 140.46 -0.539729 140.468 -0.513939 140.479C -0.462818 140.501 -0.385681 140.534 -0.284445 140.577C -0.0829015 140.663 0.218861 140.791 0.613859 140.957C 1.40196 141.289 2.57106 141.776 4.08238 142.396C 7.10105 143.633 11.5067 145.406 17.0244 147.535C 28.0513 151.788 43.574 157.484 61.4693 163.218C 97.2427 174.679 142.724 186.348 181.04 187.064L 181.095 184.065C 143.127 183.375 98.0739 171.796 62.3847 160.361C 44.5486 154.646 29.1079 148.981 18.1041 144.736C 12.6065 142.615 8.22999 140.854 5.22037 139.62C 3.71754 139.004 2.56096 138.522 1.77691 138.192C 1.38583 138.027 1.0899 137.902 0.890271 137.817C 0.790921 137.775 0.716601 137.743 0.666412 137.721C 0.641548 137.711 0.623181 137.703 0.610684 137.698C 0.604549 137.695 0.600112 137.693 0.597036 137.692C 0.595555 137.691 0.594529 137.691 0.593788 137.69C 0.59316 137.69 0.59293 137.69 0 139.068ZM 181.04 187.064C 235.681 188.007 270.282 166.05 304.462 144.58C 338.641 123.111 372.388 102.125 426.06 104.402L 426.184 101.405C 371.626 99.2229 337.053 120.565 302.866 142.04C 268.679 163.515 234.868 185.119 181.095 184.065L 181.04 187.064ZM 426.06 104.402C 461.844 105.845 485.679 117.625 509.826 129.226C 533.972 140.827 558.44 152.246 594.923 152.622L 594.951 149.622C 559.105 149.321 535.258 138.117 511.125 126.522C 486.992 114.927 462.585 102.938 426.184 101.405L 426.06 104.402ZM 594.923 152.622C 639.313 152.987 667.433 137.016 695.162 120.603C 722.89 104.19 750.248 87.3429 793.77 85.4592L 793.637 82.4622C 749.369 84.4746 721.341 101.621 693.633 118.021C 665.926 134.422 638.558 150.083 594.951 149.622L 594.923 152.622ZM 793.77 85.4592C 851.189 82.8205 880.861 105.54 939.406 104.403L 939.343 101.404C 881.794 102.689 852.089 79.9585 793.637 82.4622L 793.77 85.4592ZM 939.406 104.403C 975.992 103.592 1002.13 88.4623 1027.92 73.6803C 1053.71 58.8983 1079.15 44.4621 1114.99 44.559L 1115 41.559C 1078.38 41.5604 1052.22 56.291 1026.42 71.0775C 1000.63 85.8639 975.182 100.704 939.343 101.404L 939.406 104.403ZM 1114.99 44.559C 1143.82 44.5459 1164.98 56.8412 1186.48 68.9226C 1207.98 81.0041 1229.84 92.8669 1259.38 91.4863L 1259.23 88.4898C 1230.51 89.9428 1209.43 78.3795 1187.95 66.3073C 1166.47 54.235 1144.6 41.6489 1115 41.559L 1114.99 44.559ZM 1259.38 91.4863C 1271.17 90.9126 1284.96 84.842 1298.87 76.2686C 1312.8 67.6811 1327.11 56.4277 1339.91 45.2942C 1352.73 34.1564 1364.12 23.0765 1372.29 14.8026C 1376.38 10.662 1379.67 7.21167 1381.94 4.80332C 1383.07 3.59742 1383.95 2.64795 1384.55 2.00278C 1384.85 1.67936 1385.08 1.43024 1385.23 1.26326C 1385.3 1.17937 1385.36 1.11518 1385.4 1.07258C 1385.42 1.05107 1385.44 1.03456 1385.45 1.02373C 1385.45 1.01822 1385.46 1.01392 1385.46 1.01115C 1385.46 1.00972 1385.46 1.00857 1385.46 1.00785C 1385.46 1.00703 1385.46 1.00655 1384.35 0C 1383.24 -1.00655 1383.24 -1.00636 1383.24 -1.00584C 1383.24 -1.00522 1383.24 -1.00437 1383.23 -1.00314C 1383.23 -1.00057 1383.23 -0.996871 1383.22 -0.991755C 1383.21 -0.981324 1383.2 -0.966023 1383.18 -0.945329C 1383.14 -0.903541 1383.09 -0.841811 1383.01 -0.759568C 1382.86 -0.594272 1382.64 -0.350276 1382.34 -0.0303042C 1381.75 0.611296 1380.88 1.54966 1379.75 2.74805C 1377.5 5.14827 1374.23 8.57224 1370.16 12.6947C 1362.01 20.947 1350.7 31.9481 1337.95 43.0301C 1325.19 54.1162 1311.09 65.2212 1297.3 73.7145C 1283.49 82.2218 1270.24 87.9543 1259.23 88.4898L 1259.38 91.4863Z"/>
</defs>
</svg>
