<svg width="24" height="24" viewBox="0 0 24 24" version="1.1" xmlns="http://www.w3.org/2000/svg" xmlns:xlink="http://www.w3.org/1999/xlink">
<g id="Canvas" fill="none">
<g id="Bitcoin (1)">
<g id="Group">
<g id="Vector">
<path d="M 22.9722 14.4832C 21.4146 20.7306 15.087 24.5328 8.83877 22.9748C 2.59311 21.4172 -1.20902 15.0892 0.349295 8.8421C 1.90615 2.59389 8.23381 -1.20861 14.4802 0.34898C 20.728 1.90657 24.5298 8.23532 22.9722 14.4832Z" transform="translate(0.244141 0.514648)" fill="#F7931A"/>
</g>
<g id="Vector_2">
<path d="M 11.1276 5.93699C 11.3598 4.38523 10.1783 3.55104 8.56273 2.99455L 9.08678 0.892497L 7.80726 0.573618L 7.29705 2.62028C 6.96068 2.53646 6.61519 2.45737 6.2719 2.37902L 6.78575 0.318879L 5.50695 -4.44865e-08L 4.98253 2.10132C 4.70411 2.03791 4.43078 1.97523 4.16547 1.90927L 4.16693 1.90271L 2.40234 1.46211L 2.06196 2.82873C 2.06196 2.82873 3.01131 3.0463 2.99127 3.05978C 3.50949 3.18916 3.60315 3.53209 3.58748 3.80396L 2.99054 6.19865C 3.02625 6.20776 3.07254 6.22088 3.12356 6.24129C 3.08092 6.23072 3.03537 6.21906 2.98835 6.20776L 2.15161 9.56237C 2.0882 9.7198 1.92749 9.95596 1.56524 9.86631C 1.578 9.88489 0.635208 9.63416 0.635208 9.63416L 8.8973e-08 11.0988L 1.6651 11.5139C 1.97486 11.5915 2.27844 11.6728 2.57727 11.7493L 2.04775 13.8754L 3.32582 14.1943L 3.85024 12.0908C 4.19937 12.1856 4.53829 12.273 4.86992 12.3554L 4.34733 14.4491L 5.62685 14.7679L 6.15637 12.6458C 8.33824 13.0587 9.97892 12.8922 10.6695 10.9188C 11.226 9.32986 10.6418 8.41331 9.49385 7.81564C 10.3299 7.62285 10.9596 7.07292 11.1276 5.93699ZM 8.20413 10.0365C 7.80871 11.6254 5.13341 10.7665 4.26606 10.5511L 4.96868 7.73437C 5.83604 7.95084 8.61739 8.37942 8.20413 10.0365ZM 8.5999 5.91403C 8.23911 7.35937 6.01242 6.62503 5.29011 6.445L 5.92715 3.89033C 6.64945 4.07036 8.97563 4.40636 8.5999 5.91403Z" transform="translate(5.91992 4.5791)" fill="white"/>
</g>
</g>
</g>
</g>
</svg>

