<svg width="701" height="184" viewBox="0 0 701 184" version="1.1" xmlns="http://www.w3.org/2000/svg" xmlns:xlink="http://www.w3.org/1999/xlink">
<title>Logo</title>
<desc>Created using Figma</desc>
<g id="Canvas" transform="translate(-7747 -2534)">
<g id="Logo">
<g id="Vector (Stroke)">
<use xlink:href="#path0_fill" transform="translate(7747.72 2534.04)" fill="#FFFFFF"/>
<use xlink:href="#path0_fill" transform="translate(7747.72 2534.04)" fill="#045CC7"/>
</g>
<g id="cointec">
<use xlink:href="#path1_fill" transform="translate(7980.39 2568.05)" fill="#191C1E"/>
<use xlink:href="#path2_fill" transform="translate(7980.39 2568.05)" fill="#191C1E"/>
<use xlink:href="#path3_fill" transform="translate(7980.39 2568.05)" fill="#191C1E"/>
<use xlink:href="#path4_fill" transform="translate(7980.39 2568.05)" fill="#191C1E"/>
<use xlink:href="#path5_fill" transform="translate(7980.39 2568.05)" fill="#191C1E"/>
<use xlink:href="#path6_fill" transform="translate(7980.39 2568.05)" fill="#191C1E"/>
<use xlink:href="#path7_fill" transform="translate(7980.39 2568.05)" fill="#191C1E"/>
</g>
</g>
</g>
<defs>
<path id="path0_fill" fill-rule="evenodd" d="M 0.874832 75.234C 8.83709 32.3848 47.1891 0 93.2872 0C 145.133 0 187.223 41.0582 187.223 91.7679C 187.223 142.478 145.133 183.536 93.2872 183.536C 47.1891 183.536 8.83709 151.151 0.874832 108.302L 0 103.594L 39.496 103.594L 40.3375 106.484C 46.8928 129.001 68.08 145.506 93.2872 145.506C 116.554 145.506 136.395 131.445 144.467 111.574L 122.615 111.574C 116.182 120.672 105.407 126.599 93.2872 126.599C 73.6704 126.599 57.654 111.004 57.654 91.7679C 57.654 72.5317 73.6704 56.9371 93.2872 56.9371C 105.407 56.9371 116.182 62.8641 122.615 71.9621L 144.467 71.9621C 136.395 52.0913 116.554 38.0299 93.2872 38.0299C 68.08 38.0299 46.8928 54.5351 40.3375 77.0514L 39.496 79.942L 0 79.942L 0.874832 75.234ZM 9.86691 71.9621L 33.4672 71.9621C 41.9172 47.5756 65.4889 30.0501 93.2872 30.0501C 122.172 30.0501 146.494 48.9725 154.028 74.8527L 155.51 79.942L 118.122 79.942L 116.941 78.0083C 112.148 70.1611 103.326 64.9169 93.2872 64.9169C 78.0843 64.9169 65.759 77 65.759 91.7679C 65.759 106.536 78.0843 118.619 93.2872 118.619C 103.326 118.619 112.148 113.375 116.941 105.528L 118.122 103.594L 155.51 103.594L 154.028 108.683C 146.494 134.563 122.172 153.486 93.2872 153.486C 65.4889 153.486 41.9172 135.96 33.4672 111.574L 9.8669 111.574C 18.9614 148.297 52.8319 175.556 93.2872 175.556C 140.719 175.556 179.118 138.009 179.118 91.7679C 179.118 45.5264 140.719 7.97982 93.2872 7.97982C 52.8319 7.97982 18.9614 35.2391 9.86691 71.9621Z"/>
<path id="path1_fill" d="M 33.82 100.013C 39.9203 100.013 45.0201 98.3398 49.1195 94.9941C 53.2677 91.6006 55.5126 87.2273 55.8542 81.8742L 64.2726 81.8742C 64.0286 86.606 62.5157 90.9315 59.734 94.8507C 56.9523 98.7222 53.2433 101.757 48.6071 103.956C 44.0197 106.154 39.0906 107.254 33.82 107.254C 23.4251 107.254 15.1775 103.717 9.07723 96.6431C 3.02574 89.5693 0 80.0579 0 68.109L 0 65.528C 0 57.8807 1.36646 51.1176 4.09939 45.2387C 6.83232 39.3598 10.7365 34.8192 15.8119 31.6169C 20.9362 28.4146 26.9145 26.8134 33.7468 26.8134C 42.4336 26.8134 49.5831 29.3466 55.1954 34.413C 60.8565 39.4793 63.8822 46.1468 64.2726 54.4155L 55.8542 54.4155C 55.4638 48.3454 53.2189 43.4464 49.1195 39.7183C 45.0689 35.9902 39.9447 34.1262 33.7468 34.1262C 25.8408 34.1262 19.6917 36.9222 15.2995 42.5144C 10.9561 48.1065 8.78441 55.945 8.78441 66.0299L 8.78441 68.5392C 8.78441 78.4329 10.9561 86.1519 15.2995 91.6962C 19.6917 97.2405 25.8652 100.013 33.82 100.013Z"/>
<path id="path2_fill" d="M 77.01 65.8865C 77.01 58.4304 78.4741 51.715 81.4022 45.7406C 84.3792 39.7661 88.5518 35.1299 93.92 31.832C 99.3371 28.4863 105.462 26.8134 112.294 26.8134C 122.835 26.8134 131.376 30.4459 137.915 37.7109C 144.455 44.928 147.725 54.5111 147.725 66.46L 147.725 68.2524C 147.725 75.7563 146.236 82.5194 143.259 88.5417C 140.331 94.5162 136.183 99.1285 130.815 102.379C 125.446 105.629 119.322 107.254 112.441 107.254C 101.948 107.254 93.4076 103.645 86.8193 96.428C 80.2798 89.163 77.01 79.5561 77.01 67.6071L 77.01 65.8865ZM 85.7944 68.2524C 85.7944 77.5248 88.2346 85.1482 93.1148 91.1227C 98.0438 97.0493 104.486 100.013 112.441 100.013C 120.346 100.013 126.74 97.0493 131.62 91.1227C 136.549 85.1482 139.013 77.2858 139.013 67.5354L 139.013 65.8865C 139.013 59.9598 137.891 54.535 135.646 49.612C 133.401 44.6891 130.253 40.8893 126.203 38.2127C 122.152 35.4884 117.516 34.1262 112.294 34.1262C 104.486 34.1262 98.117 37.1373 93.188 43.1596C 88.259 49.1341 85.7944 56.9726 85.7944 66.6751L 85.7944 68.2524Z"/>
<path id="path3_fill" d="M 175.688 105.82L 166.904 105.82L 166.904 28.2473L 175.688 28.2473L 175.688 105.82ZM 165.367 5.80719C 165.367 4.18213 165.903 2.81995 166.977 1.72065C 168.051 0.573549 169.515 0 171.369 0C 173.224 0 174.688 0.573549 175.761 1.72065C 176.884 2.81995 177.445 4.18213 177.445 5.80719C 177.445 7.43224 176.884 8.79442 175.761 9.89373C 174.688 10.993 173.224 11.5427 171.369 11.5427C 169.515 11.5427 168.051 10.993 166.977 9.89373C 165.903 8.79442 165.367 7.43224 165.367 5.80719Z"/>
<path id="path4_fill" d="M 207.898 28.2473L 208.191 41.5106C 211.168 36.7311 214.877 33.0986 219.318 30.6132C 223.759 28.08 228.663 26.8134 234.031 26.8134C 242.523 26.8134 248.843 29.1554 252.991 33.8394C 257.139 38.5234 259.238 45.5494 259.287 54.9174L 259.287 105.82L 250.575 105.82L 250.575 54.8457C 250.527 47.9153 249.014 42.7533 246.037 39.3598C 243.109 35.9663 238.399 34.2696 231.909 34.2696C 226.491 34.2696 221.684 35.9424 217.487 39.2881C 213.339 42.586 210.265 47.055 208.264 52.6949L 208.264 105.82L 199.553 105.82L 199.553 28.2473L 207.898 28.2473Z"/>
<path id="path5_fill" d="M 295.596 8.38816L 295.596 28.2473L 311.993 28.2473L 311.993 35.2733L 295.596 35.2733L 295.596 86.9644C 295.596 91.2661 296.376 94.4684 297.938 96.5714C 299.549 98.6744 302.208 99.7259 305.917 99.7259C 307.381 99.7259 309.748 99.4869 313.018 99.009L 313.384 106.035C 311.09 106.847 307.967 107.254 304.014 107.254C 298.011 107.254 293.643 105.557 290.911 102.163C 288.178 98.7222 286.811 93.6797 286.811 87.0361L 286.811 35.2733L 272.244 35.2733L 272.244 28.2473L 286.811 28.2473L 286.811 8.38816L 295.596 8.38816Z"/>
<path id="path6_fill" d="M 360.82 107.254C 354.085 107.254 347.985 105.629 342.519 102.379C 337.102 99.1285 332.88 94.6118 329.855 88.8285C 326.829 82.9974 325.316 76.4733 325.316 69.2561L 325.316 66.1733C 325.316 58.7171 326.78 52.0018 329.708 46.0273C 332.685 40.0529 336.809 35.3689 342.08 31.9754C 347.35 28.5341 353.06 26.8134 359.209 26.8134C 368.823 26.8134 376.437 30.0397 382.049 36.4921C 387.71 42.8967 390.54 51.6672 390.54 62.8037L 390.54 67.6071L 334.027 67.6071L 334.027 69.2561C 334.027 78.0505 336.589 85.3872 341.714 91.2661C 346.887 97.0971 353.377 100.013 361.186 100.013C 365.871 100.013 369.995 99.1763 373.557 97.5034C 377.169 95.8306 380.438 93.154 383.366 89.4737L 388.857 93.5603C 382.415 102.689 373.069 107.254 360.82 107.254ZM 359.209 34.1262C 352.621 34.1262 347.058 36.4921 342.519 41.2239C 338.029 45.9556 335.296 52.3125 334.32 60.2944L 381.829 60.2944L 381.829 59.3624C 381.585 51.9062 379.413 45.8362 375.314 41.1522C 371.215 36.4682 365.846 34.1262 359.209 34.1262Z"/>
<path id="path7_fill" d="M 436.878 100.013C 442.978 100.013 448.078 98.3398 452.178 94.9941C 456.326 91.6006 458.571 87.2273 458.912 81.8742L 467.331 81.8742C 467.087 86.606 465.574 90.9315 462.792 94.8507C 460.01 98.7222 456.302 101.757 451.665 103.956C 447.078 106.154 442.149 107.254 436.878 107.254C 426.483 107.254 418.236 103.717 412.135 96.6431C 406.084 89.5693 403.058 80.0579 403.058 68.109L 403.058 65.528C 403.058 57.8807 404.425 51.1176 407.158 45.2387C 409.891 39.3598 413.795 34.8192 418.87 31.6169C 423.994 28.4146 429.973 26.8134 436.805 26.8134C 445.492 26.8134 452.641 29.3466 458.254 34.413C 463.915 39.4793 466.94 46.1468 467.331 54.4155L 458.912 54.4155C 458.522 48.3454 456.277 43.4464 452.178 39.7183C 448.127 35.9902 443.003 34.1262 436.805 34.1262C 428.899 34.1262 422.75 36.9222 418.358 42.5144C 414.014 48.1065 411.843 55.945 411.843 66.0299L 411.843 68.5392C 411.843 78.4329 414.014 86.1519 418.358 91.6962C 422.75 97.2405 428.923 100.013 436.878 100.013Z"/>
</defs>
</svg>
