<svg width="45" height="46" viewBox="0 0 45 46" version="1.1" xmlns="http://www.w3.org/2000/svg" xmlns:xlink="http://www.w3.org/1999/xlink">
<g id="Canvas" fill="none">
<g id="Competitive rates">
<g id="Vector">
<path d="M 42.6024 30.987L 40.6345 30.987L 40.6345 2.41205C 40.6345 1.08202 39.5523 6.24325e-07 38.2224 6.24325e-07L 33.8236 6.24325e-07C 32.4936 6.24325e-07 31.4115 1.08211 31.4115 2.41205L 31.4115 30.987L 26.4144 30.987L 26.4144 15.3588C 26.4144 14.0287 25.3324 12.9467 24.0024 12.9467L 19.6036 12.9467C 18.2735 12.9467 17.1915 14.0288 17.1915 15.3588L 17.1915 30.987L 12.1944 30.987L 12.1944 22.8933C 12.1944 21.5632 11.1123 20.4812 9.78236 20.4812L 5.38347 20.4812C 4.05344 20.4812 2.97142 21.5633 2.97142 22.8933L 2.97142 30.987L 0.897275 30.987C 0.40171 30.987 -1.50605e-08 31.3888 -1.50605e-08 31.8843C -1.50605e-08 32.3799 0.40171 32.7816 0.897275 32.7816L 42.6024 32.7816C 43.098 32.7816 43.4997 32.3799 43.4997 31.8843C 43.4997 31.3888 43.098 30.987 42.6024 30.987ZM 10.3997 30.987L 4.76588 30.987L 4.76588 22.8933C 4.76588 22.5527 5.04287 22.2758 5.38338 22.2758L 9.78218 22.2758C 10.1227 22.2758 10.3997 22.5527 10.3997 22.8933L 10.3997 30.987ZM 24.6198 30.987L 18.986 30.987L 18.986 15.3588C 18.986 15.0182 19.263 14.7412 19.6035 14.7412L 24.0023 14.7412C 24.3427 14.7412 24.6198 15.0182 24.6198 15.3588L 24.6198 30.987ZM 38.8399 30.987L 33.2061 30.987L 33.2061 2.41205C 33.2061 2.07154 33.4831 1.79455 33.8236 1.79455L 38.2224 1.79455C 38.5629 1.79455 38.8399 2.07154 38.8399 2.41205L 38.8399 30.987Z" transform="translate(44.4199 12.5605) scale(-1 1)" fill="#045CC7"/>
</g>
<g id="Vector_2">
<path d="M 32.9386 0.943575C 32.9512 0.698708 32.865 0.449714 32.678 0.262722C 32.491 0.07573 32.242 -0.0104981 31.9972 0.00215346C 31.9827 0.00152537 31.9685 0 31.9537 0L 26.5252 0C 26.0297 0 25.628 0.40171 25.628 0.897275C 25.628 1.39284 26.0297 1.79455 26.5252 1.79455L 29.8772 1.79455L 21.007 10.6648L 17.6619 7.31979C 17.4937 7.15155 17.2654 7.05698 17.0275 7.05698C 16.7895 7.05698 16.5613 7.15155 16.393 7.31979L 0.26279 23.4501C -0.0875964 23.8005 -0.0875964 24.3686 0.26279 24.7191C 0.438027 24.8942 0.66764 24.9818 0.897253 24.9818C 1.12687 24.9818 1.35657 24.8942 1.53172 24.7189L 17.0275 9.22309L 20.3725 12.5681C 20.7229 12.9185 21.2911 12.9185 21.6415 12.5681L 31.1462 3.06357L 31.1462 6.09725C 31.1462 6.59282 31.5479 6.99453 32.0435 6.99453C 32.539 6.99453 32.9407 6.59282 32.9407 6.09725L 32.9407 0.987003C 32.9407 0.972377 32.9392 0.95811 32.9386 0.943575Z" transform="translate(6.81055 27.5127) scale(1 -1)" fill="#045CC7"/>
</g>
<g id="Vector_3">
<path d="M 0.897275 1.79455C 1.39283 1.79455 1.79455 1.39283 1.79455 0.897275C 1.79455 0.401724 1.39283 0 0.897275 0C 0.401724 0 0 0.401724 0 0.897275C 0 1.39283 0.401724 1.79455 0.897275 1.79455Z" transform="translate(3.78516 2.19629) scale(1 -1)" fill="#045CC7"/>
</g>
</g>
</g>
</svg>

