<svg width="47" height="33" viewBox="0 0 47 33" version="1.1" xmlns="http://www.w3.org/2000/svg" xmlns:xlink="http://www.w3.org/1999/xlink">
<g id="Canvas" fill="none">
<g id="credit-card (3)">
<g id="Group">
<g id="Group_2">
<g id="Vector">
<path fill-rule="evenodd" clip-rule="evenodd" d="M 43.9082 6.48308L 43.7082 6.48308L 2.73172 6.48308L 2.53172 6.48308L 2.53172 6.28308L 2.53172 4.09766C 2.53172 3.64247 2.68437 3.24757 2.96597 2.96597C 3.24757 2.68437 3.64247 2.53172 4.09766 2.53172L 42.3423 2.53172C 42.7975 2.53172 43.1924 2.68432 43.474 2.96591C 43.7556 3.24749 43.9082 3.64239 43.9082 4.09766L 43.9082 6.28308L 43.9082 6.48308ZM 43.9081 8.8148L 43.9081 9.0148L 43.9081 11.2002L 43.9081 11.4002L 43.7081 11.4002L 2.73172 11.4002L 2.53172 11.4002L 2.53172 11.2002L 2.53172 9.0148L 2.53172 8.8148L 2.73172 8.8148L 43.7081 8.8148L 43.9081 8.8148ZM 2.53172 13.7319L 2.73172 13.7319L 43.7081 13.7319L 43.9081 13.7319L 43.9081 13.9319L 43.9081 28.6833C 43.9081 29.1386 43.7555 29.5335 43.4739 29.8151C 43.1923 30.0967 42.7975 30.2493 42.3423 30.2493L 4.09766 30.2493C 3.64248 30.2493 3.24758 30.0967 2.96598 29.8151C 2.68437 29.5335 2.53172 29.1386 2.53172 28.6833L 2.53172 13.9319L 2.53172 13.7319ZM 42.3423 0.2L 4.09766 0.2C 2.02271 0.2 0.2 2.02271 0.2 4.09766L 0.2 28.6835C 0.2 30.7584 2.02271 32.5812 4.09766 32.5812L 42.3423 32.5812C 44.4172 32.5812 46.2399 30.7584 46.2399 28.6835L 46.2399 4.09766C 46.2398 2.02271 44.4171 0.2 42.3423 0.2Z" transform="translate(0.552734 0.0449219)" fill="#045CC7"/>
<path fill-rule="evenodd" clip-rule="evenodd" d="M 43.9082 6.48308L 43.7082 6.48308L 2.73172 6.48308L 2.53172 6.48308L 2.53172 6.28308L 2.53172 4.09766C 2.53172 3.64247 2.68437 3.24757 2.96597 2.96597C 3.24757 2.68437 3.64247 2.53172 4.09766 2.53172L 42.3423 2.53172C 42.7975 2.53172 43.1924 2.68432 43.474 2.96591C 43.7556 3.24749 43.9082 3.64239 43.9082 4.09766L 43.9082 6.28308L 43.9082 6.48308ZM 43.9081 8.8148L 43.9081 9.0148L 43.9081 11.2002L 43.9081 11.4002L 43.7081 11.4002L 2.73172 11.4002L 2.53172 11.4002L 2.53172 11.2002L 2.53172 9.0148L 2.53172 8.8148L 2.73172 8.8148L 43.7081 8.8148L 43.9081 8.8148ZM 2.53172 13.7319L 2.73172 13.7319L 43.7081 13.7319L 43.9081 13.7319L 43.9081 13.9319L 43.9081 28.6833C 43.9081 29.1386 43.7555 29.5335 43.4739 29.8151C 43.1923 30.0967 42.7975 30.2493 42.3423 30.2493L 4.09766 30.2493C 3.64248 30.2493 3.24758 30.0967 2.96598 29.8151C 2.68437 29.5335 2.53172 29.1386 2.53172 28.6833L 2.53172 13.9319L 2.53172 13.7319ZM 42.3423 0.2L 4.09766 0.2C 2.02271 0.2 0.2 2.02271 0.2 4.09766L 0.2 28.6835C 0.2 30.7584 2.02271 32.5812 4.09766 32.5812L 42.3423 32.5812C 44.4172 32.5812 46.2399 30.7584 46.2399 28.6835L 46.2399 4.09766C 46.2398 2.02271 44.4171 0.2 42.3423 0.2Z" stroke-width="0.4" stroke-miterlimit="8" transform="translate(0.552734 0.0449219)" stroke="white"/>
</g>
<g id="Vector_2">
<path fill-rule="evenodd" clip-rule="evenodd" d="M 1.36594 2.53188L 8.46849 2.53188C 8.83277 2.53188 9.12084 2.41132 9.31734 2.21484C 9.51383 2.01837 9.63443 1.7303 9.63443 1.36594C 9.63443 1.00165 9.51387 0.713581 9.31739 0.517084C 9.12091 0.32059 8.83284 0.199999 8.46849 0.199999L 1.36594 0.199999C 1.00165 0.199999 0.713581 0.320556 0.517085 0.517037C 0.320597 0.713508 0.200008 1.00156 0.2 1.3659M 1.36594 2.53188C 1.00166 2.53188 0.713627 2.41133 0.517149 2.21485ZM 0.517149 2.21485C 0.320675 2.01838 0.200078 1.73031 0.2 1.36594Z" transform="translate(6.29102 17.5283)" fill="#045CC7"/>
<path fill-rule="evenodd" clip-rule="evenodd" d="M 1.36594 2.53188L 8.46849 2.53188C 8.83277 2.53188 9.12084 2.41132 9.31734 2.21484C 9.51383 2.01837 9.63443 1.7303 9.63443 1.36594C 9.63443 1.00165 9.51387 0.713581 9.31739 0.517084C 9.12091 0.32059 8.83284 0.199999 8.46849 0.199999L 1.36594 0.199999C 1.00165 0.199999 0.713581 0.320556 0.517085 0.517037C 0.320597 0.713508 0.200008 1.00156 0.2 1.3659M 1.36594 2.53188C 1.00166 2.53188 0.713627 2.41133 0.517149 2.21485ZM 0.517149 2.21485C 0.320675 2.01838 0.200078 1.73031 0.2 1.36594Z" stroke-width="0.4" stroke-miterlimit="8" transform="translate(6.29102 17.5283)" stroke="white"/>
</g>
<g id="Vector_3">
<path fill-rule="evenodd" clip-rule="evenodd" d="M 18.0298 0.199999L 1.36594 0.199999C 1.00165 0.199999 0.713581 0.320556 0.517085 0.517037C 0.32059 0.713515 0.2 1.00158 0.2 1.36594C 0.2 1.73031 0.320562 2.01838 0.517031 2.21485C 0.713501 2.41132 1.00157 2.53188 1.36594 2.53188L 18.0296 2.53188C 18.2447 2.53188 18.5411 2.41983 18.7857 2.20575C 19.0266 1.99498 19.1955 1.70481 19.1955 1.36594C 19.1955 1.00157 19.075 0.713497 18.8785 0.517025C 18.6821 0.320554 18.394 0.199999 18.0298 0.199999Z" transform="translate(6.29102 23.2646)" fill="#045CC7"/>
<path fill-rule="evenodd" clip-rule="evenodd" d="M 18.0298 0.199999L 1.36594 0.199999C 1.00165 0.199999 0.713581 0.320556 0.517085 0.517037C 0.32059 0.713515 0.2 1.00158 0.2 1.36594C 0.2 1.73031 0.320562 2.01838 0.517031 2.21485C 0.713501 2.41132 1.00157 2.53188 1.36594 2.53188L 18.0296 2.53188C 18.2447 2.53188 18.5411 2.41983 18.7857 2.20575C 19.0266 1.99498 19.1955 1.70481 19.1955 1.36594C 19.1955 1.00157 19.075 0.713497 18.8785 0.517025C 18.6821 0.320554 18.394 0.199999 18.0298 0.199999Z" stroke-width="0.4" stroke-miterlimit="8" transform="translate(6.29102 23.2646)" stroke="white"/>
</g>
</g>
</g>
</g>
</g>
</svg>

