<svg width="454" height="284" viewBox="0 0 454 284" fill="none" xmlns="http://www.w3.org/2000/svg">
<rect width="452.829" height="278.79" fill="black" fill-opacity="0" transform="translate(0.726562 4.23828)"/>
<rect width="63.1453" height="63.1453" fill="black" fill-opacity="0" transform="translate(133 149.273)"/>
<g filter="url(#filter0_d)">
<circle cx="164.573" cy="180.846" r="31.5726" fill="white"/>
</g>
<rect width="23.142" height="37.6875" fill="black" fill-opacity="0" transform="translate(153.002 162.004)"/>
<rect width="23.142" height="37.6875" fill="black" fill-opacity="0" transform="translate(153.002 162.004)"/>
<path d="M164.569 162.004L164.316 162.863V187.782L164.569 188.035L176.137 181.197L164.569 162.004Z" fill="#343434"/>
<path d="M164.569 162.004L153.002 181.197L164.569 188.035V175.939V162.004Z" fill="#8C8C8C"/>
<path d="M164.57 190.225L164.428 190.398V199.275L164.57 199.691L176.144 183.391L164.57 190.225Z" fill="#3C3C3B"/>
<path d="M164.569 199.691V190.225L153.002 183.391L164.569 199.691Z" fill="#8C8C8C"/>
<path d="M164.57 188.033L176.138 181.195L164.57 175.938V188.033Z" fill="#141414"/>
<path d="M153.002 181.195L164.569 188.033V175.938L153.002 181.195Z" fill="#393939"/>
<rect width="63.1453" height="63.1453" fill="black" fill-opacity="0" transform="translate(255.129 66.3242)"/>
<circle cx="286.702" cy="97.8969" r="31.5726" fill="#FF5000" fill-opacity="0.07"/>
<rect width="32.706" height="28.5825" fill="black" fill-opacity="0" transform="translate(270.82 80.6484)"/>
<rect width="32.706" height="28.5825" fill="black" fill-opacity="0" transform="translate(270.82 80.6484)"/>
<rect width="32.706" height="28.5825" fill="black" fill-opacity="0" transform="translate(270.82 80.6484)"/>
<path d="M303.526 109.129L287.186 99.7656L270.82 109.232L303.526 109.129Z" fill="#662D91"/>
<path d="M287.16 80.6484L287.057 99.7637L303.526 109.127L287.16 80.6484Z" fill="#9E1F63"/>
<path d="M270.82 109.23L287.108 99.9193L287.16 80.6484L270.82 109.23Z" fill="#FF5000"/>
<path d="M287.057 92.2695L280.469 103.604H293.826L287.057 92.2695Z" fill="white" stroke="#FF5000" stroke-width="0.83" stroke-miterlimit="10"/>
<rect width="63.1453" height="63.1453" fill="black" fill-opacity="0" transform="translate(364.691 4.76172)"/>
<g filter="url(#filter1_d)">
<circle cx="396.264" cy="36.3344" r="31.5726" fill="white"/>
</g>
<rect width="24.4991" height="39.6761" fill="black" fill-opacity="0" transform="translate(384.014 16.4961)"/>
<rect width="24.4991" height="39.6761" fill="black" fill-opacity="0" transform="translate(384.014 16.4961)"/>
<rect width="24.4991" height="39.6761" fill="black" fill-opacity="0" transform="translate(384.014 16.4961)"/>
<rect width="24.4991" height="39.6761" fill="black" fill-opacity="0" transform="translate(384.014 16.4961)"/>
<path d="M384.014 38.1039C388.331 40.394 392.83 42.7944 396.313 44.6504L408.512 38.1058C404.096 44.6692 400.416 50.1287 396.313 56.1715C392.205 50.1414 387.666 43.4853 384.014 38.1039ZM384.486 36.2958L396.327 29.9766L408.016 36.2499L396.337 42.5746L384.486 36.2958Z" fill="#009F42"/>
<rect width="24.4988" height="39.6755" fill="black" fill-opacity="0" transform="translate(384.014 16.4961)"/>
<path d="M384.014 38.1041C388.331 40.3942 392.83 42.7946 396.313 44.6505L408.512 38.1059C404.096 44.6693 400.416 50.1288 396.313 56.1716C392.205 50.1415 387.666 43.4855 384.014 38.1041ZM384.486 36.2959L396.327 29.9767L408.016 36.2501L396.337 42.5747L384.486 36.2959ZM396.311 27.948L384.015 34.4227L396.258 16.4961L408.508 34.4619L396.311 27.948Z" fill="#01C853"/>
<path d="M396.314 44.6505L408.513 38.1059C404.096 44.6693 396.314 56.1716 396.314 56.1716L396.314 44.6505ZM396.328 29.9767L408.016 36.2501L396.338 42.5747L396.328 29.9767ZM396.311 27.948L396.258 16.4961L408.508 34.4619L396.311 27.948Z" fill="#009F42"/>
<path d="M396.328 37.265L408.017 36.25L396.338 42.5747L396.328 37.265H396.328Z" fill="#007831"/>
<path d="M396.328 37.266L384.486 36.2969L396.318 42.5757L396.328 37.266H396.328Z" fill="#009F42"/>
<path d="M396.315 44.6501L408.514 38.1055C404.097 44.6689 400.418 50.1284 396.314 56.1712L396.315 44.6501Z" fill="#009F42"/>
<rect width="63.1453" height="63.1453" fill="black" fill-opacity="0" transform="translate(254.109 219.883)"/>
<circle cx="285.682" cy="251.455" r="31.5726" fill="#001D57" fill-opacity="0.12"/>
<rect width="37.9161" height="37.9161" fill="black" fill-opacity="0" transform="translate(267.031 232.496)"/>
<rect width="37.9161" height="37.9161" fill="black" fill-opacity="0" transform="translate(267.031 232.496)"/>
<path d="M285.989 270.412C296.46 270.412 304.947 261.924 304.947 251.454C304.947 240.984 296.46 232.496 285.989 232.496C275.519 232.496 267.031 240.984 267.031 251.454C267.031 261.924 275.519 270.412 285.989 270.412Z" fill="#001D57"/>
<path d="M291.321 238.762L292.746 240.189L290.048 242.962C290.616 243.827 290.923 244.846 290.923 245.898C290.923 247.307 290.396 248.618 289.432 249.608C288.712 250.362 287.803 250.862 286.805 251.06V253.476C287.792 253.676 288.702 254.178 289.428 254.924C290.396 255.918 290.923 257.229 290.923 258.638C290.923 260.047 290.396 261.358 289.428 262.352C288.461 263.346 287.163 263.896 285.791 263.896C284.409 263.896 283.125 263.35 282.153 262.352C281.189 261.362 280.658 260.037 280.658 258.638C280.658 257.239 281.189 255.914 282.149 254.928C282.869 254.174 283.779 253.674 284.776 253.476V251.06C283.789 250.86 282.879 250.358 282.153 249.612C281.189 248.622 280.658 247.297 280.658 245.898C280.658 244.499 281.189 243.175 282.153 242.184C283.121 241.19 284.419 240.64 285.791 240.64C286.81 240.64 287.79 240.951 288.629 241.527L291.321 238.762ZM285.791 255.418C284.947 255.418 284.17 255.746 283.591 256.354C283.002 256.96 282.673 257.774 282.673 258.638C282.673 259.497 282.998 260.299 283.591 260.922C284.177 261.524 284.961 261.858 285.791 261.858C286.634 261.858 287.411 261.53 287.991 260.922C288.58 260.316 288.909 259.502 288.909 258.638C288.909 257.779 288.583 256.977 287.986 256.35C287.411 255.746 286.634 255.418 285.791 255.418ZM287.986 248.202C288.58 247.592 288.909 246.778 288.909 245.914C288.909 245.036 288.586 244.229 287.991 243.63C287.405 243.028 286.621 242.693 285.791 242.693C284.947 242.693 284.17 243.021 283.591 243.63C283.002 244.235 282.673 245.049 282.673 245.914C282.673 246.773 282.998 247.575 283.591 248.197C284.177 248.799 284.961 249.134 285.791 249.134C286.634 249.134 287.411 248.806 287.986 248.202Z" fill="white"/>
<rect width="63.1453" height="63.1453" fill="black" fill-opacity="0" transform="translate(132.746 4.23828)"/>
<circle cx="164.319" cy="35.8109" r="31.5726" fill="#1A53F0" fill-opacity="0.07"/>
<rect width="37.9161" height="37.9161" fill="black" fill-opacity="0" transform="translate(145.359 16.1914)"/>
<rect width="37.9161" height="37.9161" fill="black" fill-opacity="0" transform="translate(145.359 16.1914)"/>
<path d="M164.317 54.1075C174.788 54.1075 183.275 45.6197 183.275 35.1495C183.275 24.6792 174.788 16.1914 164.317 16.1914C153.847 16.1914 145.359 24.6792 145.359 35.1495C145.359 45.6197 153.847 54.1075 164.317 54.1075Z" fill="#1A53F0"/>
<path d="M159.408 36.6755C156.56 36.6755 154.252 38.9857 154.252 41.8356C154.252 44.6855 156.561 46.9958 159.408 46.9958C162.256 46.9958 164.564 44.6855 164.564 41.8356C164.564 38.9857 162.256 36.6755 159.408 36.6755H159.408ZM159.408 45.4349C157.423 45.4349 155.814 43.8243 155.814 41.8374C155.814 39.8506 157.423 38.24 159.408 38.24C161.393 38.24 163.002 39.8506 163.002 41.8374C162.999 43.8227 161.391 45.4315 159.408 45.4349ZM170.418 25.668C167.571 25.668 165.263 27.9782 165.263 30.8281C165.263 33.678 167.571 35.9883 170.418 35.9883C173.266 35.9883 175.574 33.678 175.574 30.8281C175.574 27.9782 173.266 25.668 170.418 25.668ZM170.418 34.4274C168.433 34.4274 166.824 32.8168 166.824 30.83C166.824 28.8431 168.433 27.2325 170.418 27.2325C172.403 27.2325 174.013 28.8431 174.013 30.83C174.009 32.8152 172.402 34.424 170.418 34.4274ZM159.408 25.668C156.953 25.6664 154.838 27.3966 154.349 29.8044C153.862 32.2119 155.137 34.6304 157.398 35.5865C159.659 36.5422 162.28 35.7709 163.664 33.742C165.048 31.7132 164.813 28.9892 163.1 27.2289H164.562V25.668H159.408ZM163.002 30.8281C163.002 32.8149 161.393 34.4255 159.408 34.4255C157.423 34.4255 155.814 32.8149 155.814 30.8281C155.814 28.8413 157.423 27.2307 159.408 27.2307C161.392 27.2332 163.001 28.8419 163.004 30.8281H163.002Z" fill="white"/>
<rect width="63.1453" height="63.1453" fill="black" fill-opacity="0" transform="translate(390.41 162)"/>
<circle cx="421.983" cy="193.573" r="31.5726" fill="#1A53F0" fill-opacity="0.07"/>
<rect width="37.9161" height="37.9161" fill="black" fill-opacity="0" transform="translate(403.023 173.953)"/>
<rect width="37.9161" height="37.9161" fill="black" fill-opacity="0" transform="translate(403.023 173.953)"/>
<path d="M421.981 211.869C432.452 211.869 440.94 203.381 440.94 192.911C440.94 182.441 432.452 173.953 421.981 173.953C411.511 173.953 403.023 182.441 403.023 192.911C403.023 203.381 411.511 211.869 421.981 211.869Z" fill="#1A53F0"/>
<path d="M417.072 194.437C414.225 194.437 411.916 196.747 411.916 199.597C411.916 202.447 414.225 204.757 417.072 204.757C419.92 204.757 422.228 202.447 422.228 199.597C422.228 196.747 419.92 194.437 417.072 194.437H417.072ZM417.072 203.197C415.087 203.197 413.478 201.586 413.478 199.599C413.478 197.612 415.087 196.002 417.072 196.002C419.057 196.002 420.666 197.612 420.666 199.599C420.663 201.584 419.055 203.193 417.072 203.197ZM428.082 183.43C425.235 183.43 422.927 185.74 422.927 188.59C422.927 191.44 425.235 193.75 428.082 193.75C430.93 193.75 433.238 191.44 433.238 188.59C433.238 185.74 430.93 183.43 428.082 183.43ZM428.082 192.189C426.097 192.189 424.488 190.578 424.488 188.592C424.488 186.605 426.097 184.994 428.082 184.994C430.068 184.994 431.677 186.605 431.677 188.592C431.673 190.577 430.066 192.186 428.082 192.189ZM417.072 183.43C414.617 183.428 412.502 185.158 412.014 187.566C411.526 189.974 412.801 192.392 415.062 193.348C417.323 194.304 419.944 193.533 421.328 191.504C422.713 189.475 422.477 186.751 420.764 184.991H422.226V183.43H417.072ZM420.666 188.59C420.666 190.577 419.057 192.187 417.072 192.187C415.087 192.187 413.478 190.577 413.478 188.59C413.478 186.603 415.087 184.992 417.072 184.992C419.056 184.995 420.665 186.604 420.668 188.59H420.666Z" fill="white"/>
<rect width="63.1453" height="63.1453" fill="black" fill-opacity="0" transform="translate(0.726562 71.2227)"/>
<circle cx="32.2992" cy="102.795" r="31.5726" fill="black" fill-opacity="0.07"/>
<rect width="37.9161" height="37.9161" fill="black" fill-opacity="0" transform="translate(13.5254 83.8359)"/>
<g opacity="0.2">
<rect width="34.4402" height="33.291" fill="black" fill-opacity="0" transform="translate(13.5938 84.5938)"/>
<path d="M30.8138 117.885C40.3242 117.885 48.0339 110.432 48.0339 101.239C48.0339 92.0462 40.3242 84.5938 30.8138 84.5938C21.3034 84.5938 13.5938 92.0462 13.5938 101.239C13.5938 110.432 21.3034 117.885 30.8138 117.885Z" fill="#5B6DEE"/>
<path d="M27.9096 100.22C27.3092 100.216 26.7097 100.266 26.1187 100.369C26.6052 96.0194 30.3548 92.7262 34.819 92.7266C37.5523 92.7266 39.4252 94.0202 39.4252 96.6988C39.4252 99.3774 37.1772 100.671 33.8975 100.671C31.4767 100.671 30.3307 100.22 27.9096 100.22ZM27.7327 101.806C24.4532 101.806 22.2051 103.1 22.2051 105.778C22.2051 108.457 24.0779 109.75 26.8113 109.75C31.2759 109.75 35.0253 106.458 35.5115 102.108C34.9205 102.211 34.3211 102.261 33.7207 102.257C31.2995 102.257 30.1535 101.806 27.7327 101.806Z" fill="white"/>
</g>
<circle cx="32.4834" cy="102.794" r="18.9581" fill="black"/>
<rect width="23.3281" height="18.7289" fill="black" fill-opacity="0" transform="translate(20.6367 93.7617)"/>
<rect width="23.3281" height="18.7289" fill="black" fill-opacity="0" transform="translate(20.6367 93.7617)"/>
<rect width="23.3281" height="18.7289" fill="black" fill-opacity="0" transform="translate(20.6367 93.7617)"/>
<path d="M40.5509 93.7617H43.925L36.9053 100.496C34.3642 102.934 30.2444 102.934 27.7033 100.496L20.6836 93.7617H24.0576L29.3903 98.8779C30.9996 100.422 33.6088 100.422 35.2182 98.8779L40.5509 93.7617Z" fill="white"/>
<path d="M24.0108 112.491H20.6367L27.6998 105.715C30.2409 103.277 34.3607 103.277 36.9018 105.715L43.9649 112.491H40.5908L35.2147 107.334C33.6053 105.79 30.9961 105.79 29.3868 107.334L24.0108 112.491Z" fill="white"/>
<rect width="63.1453" height="63.1453" fill="black" fill-opacity="0" transform="translate(26.0117 219.754)"/>
<circle cx="57.5844" cy="251.327" r="31.5726" fill="#5F2652" fill-opacity="0.07"/>
<rect width="31.6901" height="37.3287" fill="black" fill-opacity="0" transform="translate(41.7402 231.797)"/>
<path fill-rule="evenodd" clip-rule="evenodd" d="M64.398 250.992C63.9854 249.813 63.2781 248.772 62.3547 247.966L62.0011 247.671L61.9814 247.652C61.8636 247.554 61.7457 247.475 61.6278 247.396L61.6081 247.377C61.4903 247.298 61.3724 247.22 61.2349 247.141C61.2152 247.141 61.2152 247.121 61.1956 247.121C61.0777 247.043 60.9402 246.984 60.8223 246.925C60.8026 246.925 60.8026 246.905 60.783 246.905C60.6651 246.846 60.5276 246.787 60.3901 246.728C60.3704 246.728 60.3704 246.709 60.3508 246.709C60.2329 246.669 60.115 246.61 59.9971 246.571C59.6828 246.453 59.3488 246.355 59.0148 246.296C58.7594 246.787 58.4057 247.22 58.0128 247.593C58.6219 247.632 59.2113 247.789 59.7417 248.005C60.0561 248.143 60.3704 248.3 60.6455 248.477C60.6651 248.477 60.6848 248.497 60.6848 248.497C60.7633 248.536 60.8223 248.595 60.9009 248.654C60.9402 248.673 60.9598 248.693 60.9991 248.732C61.058 248.772 61.1366 248.831 61.1956 248.889C61.2349 248.929 61.2742 248.948 61.3134 248.988C61.3724 249.047 61.4313 249.086 61.4903 249.145L61.6081 249.263L61.7653 249.42L61.8832 249.538C61.9225 249.597 61.9814 249.656 62.0207 249.695C62.06 249.734 62.0993 249.793 62.1386 249.833L62.2565 250.009C62.2958 250.068 62.3351 250.108 62.3547 250.167L62.4726 250.343C62.5119 250.402 62.5315 250.461 62.5708 250.501C62.6101 250.559 62.6298 250.618 62.6691 250.677C62.7084 250.736 62.728 250.795 62.7673 250.854C62.7869 250.913 62.8262 250.972 62.8459 251.031C62.8852 251.11 62.9048 251.188 62.9441 251.247C63.1013 251.64 63.2192 252.053 63.2781 252.504L63.4549 253.192C63.5335 253.487 64.2408 256.002 65.8911 256.846C67.7772 257.829 70.2723 259.047 71.2547 259.518L58.3075 267.259V261.955C58.3075 261.11 59.9775 260.127 60.7437 259.793L60.783 259.774C60.9402 259.695 61.0973 259.617 61.2545 259.518L61.3134 259.479C61.6474 259.283 61.9618 259.047 62.2565 258.791C62.2761 258.772 62.3154 258.752 62.3351 258.713C62.3744 258.693 62.394 258.654 62.4333 258.634C62.5315 258.556 62.6101 258.457 62.7084 258.379L62.7477 258.34C62.8459 258.241 62.9441 258.143 63.0227 258.025C63.0424 257.986 63.0816 257.966 63.1013 257.927C63.1799 257.848 63.2388 257.75 63.3174 257.652C63.3371 257.632 63.3567 257.593 63.3763 257.573L63.6121 257.22C63.6121 257.2 63.6318 257.2 63.6318 257.18C63.73 257.023 63.8282 256.846 63.9265 256.689C63.5335 256.218 63.2388 255.707 63.0031 255.235C62.9048 255.53 62.7673 255.825 62.6298 256.08C62.5708 256.198 62.4922 256.316 62.4333 256.434C62.4137 256.453 62.4137 256.473 62.394 256.473C62.3351 256.571 62.2565 256.67 62.1975 256.748C62.1779 256.768 62.1583 256.807 62.1386 256.827C62.0797 256.925 62.0011 257.004 61.9225 257.082C61.9028 257.102 61.9028 257.121 61.8832 257.121C61.4117 257.652 60.8419 258.104 60.1936 258.418L60.0757 258.477C59.7417 258.615 56.8537 259.931 56.8537 261.915V267.22L43.8868 259.499C44.7316 258.988 47.1678 257.534 49.1718 256.905C49.9577 256.65 51.6276 257.711 52.5707 258.477L52.6296 258.536C52.7475 258.654 52.885 258.772 53.0225 258.87L53.0618 258.909C53.3565 259.145 53.6709 259.381 54.0245 259.558L54.2603 259.676C54.2799 259.676 54.2996 259.695 54.2996 259.695C54.5157 259.813 54.7318 259.911 54.9676 260.01C55.0069 260.029 55.0265 260.029 55.0658 260.049C55.0855 260.049 55.1051 260.068 55.1444 260.068C55.4784 260.186 55.8124 260.285 56.1464 260.363C56.4018 259.872 56.7751 259.44 57.168 259.066C56.5982 259.027 56.0678 258.909 55.557 258.713C55.5373 258.693 55.498 258.693 55.4784 258.674C55.4194 258.654 55.3605 258.634 55.3016 258.595C55.2819 258.575 55.2426 258.575 55.223 258.556C55.164 258.536 55.1051 258.497 55.0658 258.477C54.6729 258.281 54.3192 258.064 53.9852 257.789L53.4744 257.318C53.4548 257.298 52.8261 256.729 51.942 256.218C50.6649 255.491 49.5844 255.255 48.7592 255.51C47.05 256.061 45.1049 257.102 43.9261 257.789L56.8733 234.528V244.724C56.8733 245.078 56.3428 246.021 54.555 246.827L54.4371 246.886C54.2603 246.964 54.1031 247.062 53.9263 247.161L53.887 247.18C53.553 247.377 53.2387 247.612 52.9243 247.868C52.7278 248.025 52.551 248.202 52.3939 248.379L52.3742 248.398C52.1974 248.575 52.0402 248.752 51.9027 248.948L51.883 248.968C51.8045 249.066 51.7455 249.165 51.6669 249.263C51.6669 249.282 51.6473 249.282 51.6473 249.302C51.5883 249.4 51.5294 249.479 51.4705 249.577C51.4705 249.597 51.4508 249.597 51.4508 249.616L51.274 249.911C51.2543 249.931 51.2543 249.95 51.2347 249.99C51.1758 250.088 51.1365 250.186 51.0972 250.265C51.0972 250.284 51.0775 250.304 51.0775 250.304C51.0382 250.402 50.9989 250.481 50.9596 250.579C50.94 250.618 50.94 250.638 50.9204 250.677L50.8025 250.972C50.7828 251.011 50.7828 251.031 50.7632 251.07C50.7435 251.149 50.7239 251.208 50.6846 251.286C50.6649 251.326 50.6649 251.365 50.6453 251.404C50.6257 251.502 50.5864 251.601 50.5667 251.679C50.5471 251.719 50.5471 251.778 50.5274 251.817C50.5078 251.876 50.5078 251.954 50.4881 252.013C50.4685 252.072 50.4685 252.131 50.4488 252.19C50.4292 252.269 50.4292 252.347 50.4095 252.426C50.4095 252.485 50.3899 252.524 50.3899 252.583C50.3899 252.662 50.3702 252.721 50.3702 252.799C50.3702 252.878 50.3702 252.937 50.3506 253.015V253.31C50.3506 253.664 50.3702 254.037 50.4292 254.371C50.94 254.489 51.4705 254.705 52.0402 254.98C51.883 254.469 51.8045 253.939 51.7848 253.389V253.29C51.7848 253.153 51.7848 253.035 51.8045 252.897V252.799C51.8045 252.681 51.8241 252.583 51.8437 252.465V252.426C51.8634 252.308 51.883 252.19 51.9027 252.053C51.9027 252.013 51.9223 251.994 51.9223 251.954C51.942 251.856 51.9813 251.758 52.0009 251.66C52.0009 251.64 52.0206 251.62 52.0206 251.601L52.1384 251.247C52.1581 251.227 52.1581 251.188 52.1777 251.169C52.217 251.07 52.2563 250.972 52.2956 250.893C52.3153 250.874 52.3153 250.854 52.3349 250.815C52.3939 250.697 52.4331 250.599 52.5117 250.501C52.5314 250.481 52.5314 250.461 52.551 250.442C52.61 250.343 52.6493 250.265 52.7082 250.167C52.7278 250.147 52.7278 250.127 52.7475 250.108C52.8064 250.009 52.885 249.911 52.9636 249.813C52.9636 249.813 52.9636 249.793 52.9833 249.793C53.0618 249.695 53.1208 249.616 53.1994 249.518C53.219 249.499 53.219 249.479 53.2387 249.459C53.5923 249.066 53.9852 248.732 54.4371 248.438L55.0462 248.143C55.3801 248.005 58.2486 246.65 58.2486 244.665V234.528L71.3136 257.986C70.1545 257.416 68.0916 256.395 66.5002 255.569C65.5768 255.098 64.9677 253.428 64.7909 252.819L64.6141 252.112C64.6141 251.738 64.5159 251.365 64.398 250.992ZM73.239 258.379L58.838 232.543C58.5826 232.072 58.111 231.797 57.5806 231.797C57.0501 231.797 56.5786 232.072 56.3232 232.543L41.9222 258.379C41.5489 259.047 41.765 259.911 42.433 260.304L56.8537 268.929C57.0894 269.067 57.3448 269.126 57.6002 269.126C57.8556 269.126 58.111 269.067 58.3468 268.929L72.7478 260.324C73.3962 259.911 73.6319 259.047 73.239 258.379Z" fill="#5F2652"/>
<defs>
<filter id="filter0_d" x="125" y="145.273" width="79.1453" height="79.1453" filterUnits="userSpaceOnUse" color-interpolation-filters="sRGB">
<feFlood flood-opacity="0" result="BackgroundImageFix"/>
<feColorMatrix in="SourceAlpha" type="matrix" values="0 0 0 0 0 0 0 0 0 0 0 0 0 0 0 0 0 0 255 0"/>
<feOffset dy="4"/>
<feGaussianBlur stdDeviation="4"/>
<feColorMatrix type="matrix" values="0 0 0 0 0 0 0 0 0 0 0 0 0 0 0 0 0 0 0.14 0"/>
<feBlend mode="normal" in2="BackgroundImageFix" result="effect1_dropShadow"/>
<feBlend mode="normal" in="SourceGraphic" in2="effect1_dropShadow" result="shape"/>
</filter>
<filter id="filter1_d" x="356.691" y="0.761719" width="79.1453" height="79.1453" filterUnits="userSpaceOnUse" color-interpolation-filters="sRGB">
<feFlood flood-opacity="0" result="BackgroundImageFix"/>
<feColorMatrix in="SourceAlpha" type="matrix" values="0 0 0 0 0 0 0 0 0 0 0 0 0 0 0 0 0 0 255 0"/>
<feOffset dy="4"/>
<feGaussianBlur stdDeviation="4"/>
<feColorMatrix type="matrix" values="0 0 0 0 0 0 0 0 0 0 0 0 0 0 0 0 0 0 0.14 0"/>
<feBlend mode="normal" in2="BackgroundImageFix" result="effect1_dropShadow"/>
<feBlend mode="normal" in="SourceGraphic" in2="effect1_dropShadow" result="shape"/>
</filter>
</defs>
</svg>
