<svg width="33" height="33" viewBox="0 0 33 33" fill="none" xmlns="http://www.w3.org/2000/svg">
<path d="M19.3609 15.7016L14.5706 14.2446C13.9718 14.0583 13.5593 13.4395 13.5593 12.7343C13.5593 11.876 14.1714 11.1774 14.9232 11.1774H17.9171C18.3829 11.1774 18.8353 11.3038 19.2411 11.5367C19.6669 11.7829 20.1925 11.7629 20.5518 11.4302L21.3502 10.6784C21.8558 10.1994 21.7694 9.3877 21.1972 9.00181C20.279 8.38306 19.2079 8.0371 18.1101 7.99718V6.91935C18.1101 6.33387 17.6311 5.85484 17.0456 5.85484H15.981C15.3956 5.85484 14.9165 6.33387 14.9165 6.91935V7.98387C12.4149 7.99052 10.379 10.1196 10.379 12.7343C10.379 14.83 11.723 16.7062 13.6524 17.2984L18.4427 18.7554C19.0415 18.9417 19.454 19.5605 19.454 20.2657C19.454 21.124 18.8419 21.8226 18.0901 21.8226H15.0962C14.6304 21.8226 14.178 21.6962 13.7722 21.4633C13.3464 21.2171 12.8208 21.2371 12.4615 21.5698L11.6631 22.3216C11.1575 22.8006 11.244 23.6123 11.8161 23.9982C12.7343 24.6169 13.8054 24.9629 14.9032 25.0028V26.0806C14.9032 26.6661 15.3823 27.1452 15.9677 27.1452H17.0323C17.6177 27.1452 18.0968 26.6661 18.0968 26.0806V25.0161C20.5984 25.0095 22.6343 22.8804 22.6343 20.2657C22.6343 18.17 21.2903 16.2938 19.3609 15.7016ZM16.5 0C7.38508 0 0 7.38508 0 16.5C0 25.6149 7.38508 33 16.5 33C25.6149 33 33 25.6149 33 16.5C33 7.38508 25.6149 0 16.5 0ZM16.5 29.8065C9.16149 29.8065 3.19355 23.8385 3.19355 16.5C3.19355 9.16149 9.16149 3.19355 16.5 3.19355C23.8385 3.19355 29.8065 9.16149 29.8065 16.5C29.8065 23.8385 23.8385 29.8065 16.5 29.8065Z" fill="#045CC7"/>
</svg>
