<svg width="34" height="30" viewBox="0 0 34 30" fill="none" xmlns="http://www.w3.org/2000/svg">
<path d="M22.3125 0C19.0852 0 16.1633 0.602679 14.0449 1.56696C13.9852 1.59375 10.625 2.97321 10.625 5.35714V6.47545C5.05352 6.70982 0 8.79911 0 11.7857V24.6429C0 27.6027 5.23281 30 11.6875 30C18.1422 30 23.375 27.6027 23.375 24.6429V23.5446C29.3316 23.2969 34 21.0067 34 18.2143V5.35714C34 2.87946 29.8762 0 22.3125 0ZM21.25 24.6429C21.25 25.5737 17.8965 27.8571 11.6875 27.8571C5.47852 27.8571 2.125 25.5737 2.125 24.6429V21.2879C4.23672 22.6674 7.72969 23.5714 11.6875 23.5714C15.6453 23.5714 19.1383 22.6674 21.25 21.2879V24.6429ZM21.25 18.2143C21.25 19.1451 17.8965 21.4286 11.6875 21.4286C5.47852 21.4286 2.125 19.1451 2.125 18.2143V14.8594C4.23672 16.2388 7.72969 17.1429 11.6875 17.1429C15.6453 17.1429 19.1383 16.2388 21.25 14.8594V18.2143ZM11.6875 15C6.30859 15 1.9457 13.5603 1.9457 11.7857C1.9457 10.0112 6.30859 8.57143 11.6875 8.57143C17.0664 8.57143 21.4293 10.0112 21.4293 11.7857C21.4293 13.5603 17.0664 15 11.6875 15ZM31.875 18.2143C31.875 19.0915 28.8867 21.1339 23.375 21.3817V17.0893C26.8813 16.942 29.9559 16.1116 31.875 14.8594V18.2143ZM31.875 11.7857C31.875 12.6629 28.8801 14.692 23.375 14.9464V11.7857C23.375 11.4107 23.2621 11.0491 23.1027 10.6942C26.7285 10.5804 29.9027 9.72321 31.875 8.4308V11.7857ZM22.3125 8.57143C21.8277 8.57143 21.3828 8.53795 20.9246 8.51116C18.4742 7.05804 15.2801 6.62277 13.248 6.50223C12.8297 6.14732 12.5773 5.76562 12.5773 5.35714C12.5773 3.58259 16.9402 2.14286 22.3191 2.14286C27.698 2.14286 32.0609 3.58259 32.0609 5.35714C32.0609 7.1317 27.6914 8.57143 22.3125 8.57143Z" fill="#045CC7"/>
</svg>
