<svg width="33" height="52" viewBox="0 0 33 52" version="1.1" xmlns="http://www.w3.org/2000/svg" xmlns:xlink="http://www.w3.org/1999/xlink">
<g id="Canvas" fill="none">
<g id="eth">
<g id="Group">
<g id="Group_2">
<g id="Vector">
<path d="M 2.98406e-07 0L 2.98406e-07 18.2594L 15.433 25.1556L 2.98406e-07 0Z" transform="translate(16.4355 1.64355)" fill="white" fill-opacity="0.602"/>
<path d="M 2.98406e-07 0L 2.98406e-07 18.2594L 15.433 25.1556L 2.98406e-07 0Z" stroke-width="1.3" stroke-linejoin="round" transform="translate(16.4355 1.64355)" stroke="#39D28F"/>
</g>
<g id="Vector_2">
<path d="M 15.4351 0L 0 25.1556L 15.4351 18.2594L 15.4351 0Z" transform="translate(1 1.64453)" fill="white"/>
<path d="M 15.4351 0L 0 25.1556L 15.4351 18.2594L 15.4351 0Z" stroke-width="1.3" stroke-linejoin="round" transform="translate(1 1.64453)" stroke="#39D28F"/>
</g>
<g id="Vector_3">
<path d="M 2.98406e-07 8.95885L 2.98406e-07 21.3658L 15.4433 3.61228e-07L 2.98406e-07 8.95885Z" transform="translate(16.4355 29.6729)" fill="white" fill-opacity="0.602"/>
<path d="M 2.98406e-07 8.95886L 2.98406e-07 21.3658L 15.4433 3.61228e-07L 2.98406e-07 8.95886Z" stroke-width="1.3" stroke-linejoin="round" transform="translate(16.4355 29.6729)" stroke="#39D28F"/>
</g>
<g id="Vector_4">
<path d="M 15.4351 21.3658L 15.4351 8.95679L 0 3.61228e-07L 15.4351 21.3658Z" transform="translate(1 29.6729)" fill="white"/>
<path d="M 15.4351 21.3658L 15.4351 8.95679L 0 3.61228e-07L 15.4351 21.3658Z" stroke-width="1.3" stroke-linejoin="round" transform="translate(1 29.6729)" stroke="#39D28F"/>
</g>
<g id="Vector_5">
<path d="M 2.98406e-07 15.853L 15.433 6.89206L 2.98406e-07 -5.33989e-07" stroke-width="1.3" stroke-linejoin="round" transform="translate(16.4355 19.9082)" stroke="#39D28F"/>
</g>
<g id="Vector_6">
<path d="M 0 6.89206L 15.4351 15.853L 15.4351 8.2238L 15.4351 -5.33989e-07L 0 6.89206Z" transform="translate(1 19.9082)" fill="white" fill-opacity="0.602"/>
<path d="M 0 6.89206L 15.4351 15.853L 15.4351 8.2238L 15.4351 -5.33989e-07L 0 6.89206Z" stroke-width="1.3" stroke-linejoin="round" transform="translate(1 19.9082)" stroke="#39D28F"/>
</g>
</g>
</g>
</g>
</g>
</svg>

