<svg width="42" height="43" viewBox="0 0 42 43" version="1.1" xmlns="http://www.w3.org/2000/svg" xmlns:xlink="http://www.w3.org/1999/xlink">
<g id="Canvas" fill="none">
<g id="Group">
<g id="Vector">
<path d="M 40.7597 26.3645C 40.7604 26.3609 40.759 26.3566 40.7604 26.353C 41.2581 24.5737 41.5302 22.7012 41.5302 20.7651C 41.5302 18.8289 41.2581 16.9565 40.7604 15.1771C 40.7597 15.1735 40.7611 15.1693 40.7597 15.1657C 40.7583 15.1599 40.754 15.1564 40.7526 15.1514C 40.5657 14.4876 40.3473 13.8381 40.0981 13.203L 40.0981 12.9674C 40.0981 12.7089 39.9542 12.4934 39.7494 12.3674C 39.4973 11.8003 39.2231 11.2468 38.9231 10.7076C 39.0484 10.8143 39.2045 10.8852 39.3821 10.8852C 39.7773 10.8852 40.0981 10.5651 40.0981 10.1692L 40.0981 9.46959C 40.0981 9.07363 39.7773 8.75356 39.3821 8.75356C 38.9868 8.75356 38.666 9.07363 38.666 9.46959L 38.666 10.1692C 38.666 10.2121 38.6832 10.2486 38.6904 10.2895C 38.6395 10.2028 38.5865 10.1183 38.5343 10.0324C 38.525 10.0166 38.5157 10.0009 38.5056 9.98586C 38.4562 9.90494 38.409 9.8226 38.3581 9.7424C 38.351 9.73095 38.3388 9.72522 38.3316 9.71448C 37.8655 8.97553 37.3571 8.26593 36.8043 7.59358C 36.7993 7.58642 36.7979 7.57854 36.7929 7.57138C 36.6504 7.39881 36.5057 7.2284 36.3582 7.06084C 36.3475 7.04867 36.3325 7.04366 36.321 7.0322C 35.7496 6.38562 35.1388 5.77556 34.4915 5.20416C 34.4808 5.19342 34.4765 5.1791 34.4643 5.16907C 34.2968 5.02229 34.1271 4.87765 33.9552 4.73659C 33.9502 4.73229 33.9438 4.73158 33.938 4.72728C 33.2642 4.17307 32.5532 3.66396 31.8128 3.19711C 31.8021 3.18923 31.7964 3.17777 31.7842 3.1699C 31.7054 3.12049 31.6245 3.07323 31.545 3.02526C 31.53 3.01595 31.515 3.00664 31.4992 2.99733C 31.4118 2.94435 31.3245 2.88993 31.2364 2.83837C 31.2815 2.84625 31.3231 2.86415 31.371 2.86415L 32.0706 2.86415C 32.4659 2.86415 32.7866 2.54408 32.7866 2.14811C 32.7866 1.75214 32.4659 1.43207 32.0706 1.43207L 31.371 1.43207C 30.9758 1.43207 30.655 1.75214 30.655 2.14811C 30.655 2.32927 30.728 2.48966 30.8383 2.61568C 30.2948 2.3128 29.7356 2.03498 29.1635 1.78078C 29.0375 1.576 28.8212 1.43207 28.5634 1.43207L 28.3279 1.43207C 27.692 1.18218 27.0419 0.963786 26.3774 0.776901C 26.3731 0.776184 26.3702 0.772604 26.3652 0.771172C 26.3623 0.770456 26.3588 0.771172 26.3559 0.771172C 24.5758 0.272094 22.702 0 20.7651 0C 18.8282 0 16.9543 0.272094 15.1743 0.771172C 15.1707 0.771888 15.1678 0.771172 15.165 0.771172C 15.1607 0.771888 15.1578 0.775468 15.1528 0.776901C 14.4883 0.963786 13.8381 1.18218 13.2023 1.43207L 12.9667 1.43207C 12.7082 1.43207 12.4927 1.576 12.3667 1.78078C 11.7996 2.03283 11.2461 2.30707 10.7069 2.60709C 10.8136 2.48179 10.8845 2.32569 10.8845 2.14811C 10.8845 1.75214 10.5637 1.43207 10.1684 1.43207L 9.46888 1.43207C 9.07363 1.43207 8.75284 1.75214 8.75284 2.14811C 8.75284 2.54408 9.07363 2.86415 9.46888 2.86415L 10.1684 2.86415C 10.2114 2.86415 10.2486 2.84696 10.2895 2.8398C 10.205 2.88921 10.1219 2.94148 10.0381 2.9916C 10.0181 3.00378 9.99875 3.01523 9.9787 3.02741C 9.89922 3.0761 9.81902 3.12264 9.74026 3.17133C 9.7288 3.17849 9.72307 3.18995 9.71233 3.19782C 8.97338 3.6654 8.26307 4.17378 7.59 4.72728C 7.58427 4.73158 7.57711 4.73301 7.57138 4.7373C 7.39881 4.87908 7.2284 5.02372 7.06084 5.17194C 7.04867 5.18268 7.04438 5.19628 7.03435 5.20702C 6.38705 5.77914 5.77556 6.38992 5.20416 7.03722C 5.19342 7.04867 5.1791 7.05297 5.16836 7.06442C 5.02085 7.23198 4.87621 7.40239 4.73372 7.57496C 4.72871 7.5814 4.72799 7.58928 4.72298 7.59572C 4.1702 8.26737 3.66253 8.97768 3.19639 9.71591C 3.18851 9.72737 3.17563 9.73381 3.16847 9.74598C 3.11691 9.82833 3.06822 9.9121 3.0181 9.99516C 3.01237 10.003 3.00736 10.0116 3.00234 10.0202C 2.94721 10.1112 2.89136 10.2014 2.83766 10.293C 2.84625 10.2486 2.86415 10.2071 2.86415 10.1591L 2.86415 9.45957C 2.86415 9.0636 2.54336 8.74353 2.14811 8.74353C 1.75286 8.74353 1.43207 9.0636 1.43207 9.45957L 1.43207 10.1591C 1.43207 10.5551 1.75286 10.8752 2.14811 10.8752C 2.32927 10.8752 2.48966 10.8021 2.61568 10.6919C 2.3128 11.2353 2.03498 11.7946 1.78078 12.3667C 1.576 12.4927 1.43207 12.7089 1.43207 12.9667L 1.43207 13.2023C 1.18289 13.8374 0.963786 14.4876 0.777617 15.1506C 0.776184 15.1564 0.771888 15.1599 0.770456 15.165C 0.76974 15.1685 0.771172 15.1728 0.76974 15.1764C 0.272094 16.9565 0 18.8289 0 20.7651C 0 22.7012 0.272094 24.5737 0.76974 26.353C 0.770456 26.3566 0.769024 26.3609 0.770456 26.3645C 0.771888 26.3709 0.776184 26.376 0.778333 26.3824C 0.964502 27.0447 1.18289 27.6935 1.43207 28.3279L 1.43207 28.5634C 1.43207 28.8219 1.576 29.0375 1.78078 29.1635C 2.03283 29.7306 2.30707 30.2841 2.60709 30.8233C 2.48179 30.7166 2.32497 30.6457 2.14811 30.6457C 1.75286 30.6457 1.43207 30.9658 1.43207 31.3617L 1.43207 32.0613C 1.43207 32.4573 1.75286 32.7773 2.14811 32.7773C 2.54336 32.7773 2.86415 32.4573 2.86415 32.0613L 2.86415 31.3617C 2.86415 31.3195 2.84696 31.283 2.8398 31.2421C 2.89279 31.3324 2.94793 31.4212 3.00234 31.5099C 3.00736 31.5185 3.01237 31.5271 3.0181 31.5357C 3.06965 31.6202 3.11906 31.7054 3.17133 31.7885C 3.18279 31.8071 3.19925 31.8207 3.21214 31.8379C 3.6747 32.569 4.17808 33.2721 4.72585 33.938C 4.73086 33.9452 4.73229 33.9531 4.7373 33.9602C 4.87979 34.1328 5.02443 34.3032 5.17194 34.4708C 5.18196 34.4822 5.19628 34.4858 5.20702 34.4965C 5.77914 35.1445 6.39063 35.7553 7.03865 36.3274C 7.04939 36.3382 7.05368 36.3525 7.06586 36.3625C 7.23341 36.5093 7.40311 36.654 7.57496 36.795C 7.58069 36.8 7.58856 36.8015 7.59429 36.8058C 8.26737 37.3592 8.97768 37.8676 9.71734 38.3345C 9.72808 38.3424 9.73381 38.3538 9.74598 38.3617C 9.82475 38.4111 9.90566 38.4584 9.98514 38.5063C 10.0002 38.5156 10.0152 38.525 10.031 38.5343C 10.1183 38.5873 10.205 38.6417 10.2938 38.6932C 10.2486 38.6839 10.2071 38.666 10.1591 38.666L 9.45957 38.666C 9.06432 38.666 8.74353 38.9861 8.74353 39.3821C 8.74353 39.778 9.06432 40.0981 9.45957 40.0981L 10.1591 40.0981C 10.5544 40.0981 10.8752 39.778 10.8752 39.3821C 10.8752 39.2016 10.8021 39.0405 10.6919 38.9145C 11.2353 39.2174 11.7946 39.4952 12.3667 39.7494C 12.4927 39.9542 12.7089 40.0981 12.9667 40.0981L 13.2023 40.0981C 13.8381 40.348 14.4883 40.5664 15.1528 40.7533C 15.1571 40.754 15.1599 40.7576 15.165 40.759C 15.17 40.7604 15.1743 40.7597 15.1793 40.7604C 16.9579 41.2581 18.8296 41.5302 20.7651 41.5302C 22.7005 41.5302 24.5723 41.2581 26.3509 40.7604C 26.3559 40.7597 26.3602 40.7597 26.3652 40.759C 26.3695 40.7583 26.3724 40.7547 26.3774 40.7533C 27.0419 40.5664 27.692 40.348 28.3279 40.0981L 28.5634 40.0981C 28.8219 40.0981 29.0375 39.9542 29.1635 39.7494C 29.7306 39.4973 30.2848 39.2231 30.8233 38.9231C 30.7166 39.0484 30.6457 39.2045 30.6457 39.3821C 30.6457 39.778 30.9665 40.0981 31.3617 40.0981L 32.0613 40.0981C 32.4565 40.0981 32.7773 39.778 32.7773 39.3821C 32.7773 38.9861 32.4565 38.666 32.0613 38.666L 31.3617 38.666C 31.3188 38.666 31.2815 38.6832 31.2407 38.6904C 31.3252 38.641 31.4083 38.5887 31.492 38.5386C 31.5121 38.5264 31.5314 38.5149 31.5515 38.5028C 31.6309 38.4541 31.7111 38.4075 31.7899 38.3588C 31.8014 38.3517 31.8071 38.3402 31.8178 38.3323C 32.5561 37.8662 33.2664 37.3585 33.938 36.8058C 33.9445 36.8007 33.9531 36.7986 33.9595 36.7936C 34.1321 36.6518 34.3025 36.5072 34.47 36.3589C 34.4815 36.3489 34.4858 36.3346 34.4965 36.3239C 35.1445 35.751 35.756 35.1388 36.3289 34.4908C 36.3389 34.4808 36.3525 34.4772 36.3618 34.4665C 36.5093 34.2989 36.654 34.1285 36.7964 33.9559C 36.8015 33.9495 36.8022 33.9416 36.8072 33.9352C 37.355 33.2692 37.8583 32.5661 38.3209 31.835C 38.3338 31.8178 38.3502 31.8042 38.3617 31.7856C 38.4133 31.7033 38.4619 31.6195 38.5121 31.5364C 38.5171 31.5278 38.5228 31.5192 38.5278 31.5107C 38.583 31.4197 38.6388 31.3295 38.6925 31.2378C 38.6839 31.2822 38.666 31.3231 38.666 31.371L 38.666 32.0706C 38.666 32.4666 38.9868 32.7866 39.3821 32.7866C 39.7773 32.7866 40.0981 32.4666 40.0981 32.0706L 40.0981 31.371C 40.0981 30.9751 39.7773 30.655 39.3821 30.655C 39.2009 30.655 39.0405 30.728 38.9145 30.8383C 39.2174 30.2948 39.4952 29.7356 39.7494 29.1635C 39.9542 29.0375 40.0981 28.8212 40.0981 28.5634L 40.0981 28.3279C 40.3473 27.6942 40.5649 27.0454 40.7518 26.3824C 40.7533 26.376 40.7583 26.3717 40.7597 26.3645ZM 37.2855 30.7975C 35.6758 33.4382 33.4518 35.6637 30.8132 37.2755C 30.791 37.2891 30.7681 37.3027 30.7459 37.3163C 29.4857 38.0789 28.1302 38.6997 26.7039 39.1608L 24.7069 31.1727C 27.6806 30.0421 30.0428 27.6799 31.1734 24.7062L 39.1615 26.7032C 38.6975 28.136 38.0746 29.4979 37.3063 30.7638C 37.2991 30.7746 37.2927 30.786 37.2855 30.7975ZM 10.7778 37.312C 10.7599 37.3013 10.742 37.2905 10.7241 37.2798C 8.08406 35.6687 5.8579 33.4418 4.24753 30.8011C 4.23894 30.7875 4.23035 30.7731 4.22247 30.7595C 3.4556 29.495 2.83264 28.1345 2.36937 26.7032L 10.3575 24.7062C 11.4874 27.6799 13.8503 30.0421 16.824 31.1727L 14.827 39.1608C 13.3978 38.6982 12.0402 38.0767 10.7778 37.312ZM 4.24467 10.7327C 5.85432 8.09194 8.07833 5.86649 10.7169 4.25469C 10.7391 4.24109 10.762 4.22748 10.7842 4.21388C 12.0445 3.4513 13.3999 2.8305 14.8263 2.36937L 16.8233 10.3575C 13.8496 11.4881 11.4874 13.8503 10.3568 16.824L 2.36865 14.827C 2.83264 13.3942 3.4556 12.0323 4.2239 10.7663C 4.23106 10.7556 4.23751 10.7441 4.24467 10.7327ZM 9.93502 18.1938C 9.73882 19.0208 9.62354 19.8786 9.62354 20.7651C 9.62354 21.6515 9.73882 22.5093 9.93502 23.3364L 1.98056 25.3248C 1.62469 23.8619 1.43207 22.3361 1.43207 20.7651C 1.43207 19.1941 1.62469 17.6682 1.98056 16.2054L 9.93502 18.1938ZM 11.0556 20.7651C 11.0556 15.4113 15.4113 11.0556 20.7651 11.0556C 26.1189 11.0556 30.4746 15.4113 30.4746 20.7651C 30.4746 26.1189 26.1189 30.4746 20.7651 30.4746C 15.4113 30.4746 11.0556 26.1189 11.0556 20.7651ZM 30.7524 4.21818C 30.7703 4.22892 30.7882 4.23966 30.8061 4.2504C 33.4432 5.86005 35.6665 8.08263 37.2762 10.7191C 37.2891 10.7406 37.302 10.7613 37.3141 10.7821C 38.0774 12.043 38.6982 13.3992 39.1601 14.8263L 31.172 16.8233C 30.0421 13.8496 27.6791 11.4874 24.7054 10.3568L 26.7025 2.36865C 28.1324 2.83193 29.49 3.45345 30.7524 4.21818ZM 40.0981 20.7651C 40.0981 22.3361 39.9055 23.8619 39.5496 25.3248L 31.5951 23.3364C 31.7913 22.5093 31.9066 21.6515 31.9066 20.7651C 31.9066 19.8786 31.7913 19.0208 31.5951 18.1938L 39.5496 16.2054C 39.9055 17.6682 40.0981 19.1941 40.0981 20.7651ZM 25.3248 1.98056L 23.3364 9.93573C 22.5093 9.73882 21.6515 9.62354 20.7651 9.62354C 19.8786 9.62354 19.0208 9.73882 18.1938 9.93502L 16.2054 1.97984C 17.6682 1.6254 19.1941 1.43207 20.7651 1.43207C 22.3361 1.43207 23.8619 1.6254 25.3248 1.98056ZM 16.2054 39.5496L 18.1938 31.5944C 19.0208 31.7906 19.8786 31.9059 20.7651 31.9059C 21.6515 31.9059 22.5093 31.7906 23.3364 31.5944L 25.3248 39.5496C 23.8619 39.9048 22.3361 40.0981 20.7651 40.0981C 19.1941 40.0981 17.6682 39.9048 16.2054 39.5496Z" transform="translate(0 0.998047)" fill="#045CC7"/>
</g>
<g id="Vector_2">
<path d="M 0.715858 1.92528C 0.924941 1.92528 1.13331 1.83362 1.27437 1.65819C 1.38822 1.51642 1.5171 1.38753 1.65673 1.27655C 1.96606 1.02951 2.0169 0.579125 1.77058 0.270513C 1.52355 -0.0395311 1.07316 -0.0903698 0.763833 0.155947C 0.541861 0.333524 0.33779 0.536163 0.158065 0.760283C -0.0896839 1.06818 -0.0409933 1.51928 0.267619 1.76703C 0.39937 1.873 0.557614 1.92528 0.715858 1.92528Z" transform="translate(2.11914 3.11035)" fill="#045CC7"/>
</g>
<g id="Vector_3">
<path d="M 0.716037 2.13236C 1.11129 2.13236 1.43207 1.81229 1.43207 1.41632L 1.43207 0.716038C 1.43207 0.320069 1.11129 1.52962e-07 0.716037 1.52962e-07C 0.320785 1.52962e-07 0 0.320069 0 0.716038L 0 1.41632C 0 1.81157 0.320785 2.13236 0.716037 2.13236Z" transform="translate(1.43164 6.24414)" fill="#045CC7"/>
</g>
<g id="Vector_4">
<path d="M 0.716037 1.43207L 1.41561 1.43207C 1.81086 1.43207 2.13164 1.11201 2.13164 0.716037C 2.13164 0.320069 1.81086 0 1.41561 0L 0.716037 0C 0.320785 0 1.61156e-07 0.320069 1.61156e-07 0.716037C 1.61156e-07 1.11201 0.320785 1.43207 0.716037 1.43207Z" transform="translate(5.25586 2.42969)" fill="#045CC7"/>
</g>
<g id="Vector_5">
<path d="M 0 0.716037L 0 1.41632C 0 1.81229 0.320785 2.13236 0.716037 2.13236C 1.11129 2.13236 1.43207 1.81229 1.43207 1.41632L 1.43207 0.716037C 1.43207 0.320069 1.11129 1.61156e-07 0.716037 1.61156e-07C 0.320785 1.61156e-07 0 0.320069 0 0.716037Z" transform="translate(38.666 6.25293)" fill="#045CC7"/>
</g>
<g id="Vector_6">
<path d="M 0.648986 1.65634C 0.790761 1.83392 0.999126 1.92628 1.20964 1.92628C 1.36645 1.92628 1.52327 1.87545 1.65573 1.77019C 1.96506 1.52316 2.0159 1.07277 1.76958 0.764156C 1.59129 0.540752 1.38793 0.336682 1.16453 0.156956C 0.856635 -0.0893606 0.405532 -0.04067 0.157783 0.267226C -0.0899655 0.575838 -0.0405594 1.02694 0.268053 1.27397C 0.408396 1.38782 0.536568 1.516 0.648986 1.65634Z" transform="translate(37.4922 3.11621)" fill="#045CC7"/>
</g>
<g id="Vector_7">
<path d="M 0.716037 1.43207L 1.41561 1.43207C 1.81086 1.43207 2.13164 1.11201 2.13164 0.716037C 2.13164 0.320069 1.81086 0 1.41561 0L 0.716037 0C 0.320784 0 -6.11848e-07 0.320069 -6.11848e-07 0.716037C -6.11848e-07 1.11201 0.320784 1.43207 0.716037 1.43207Z" transform="translate(34.1523 2.42969)" fill="#045CC7"/>
</g>
<g id="Vector_8">
<path d="M 0.652217 0.266342C 0.538367 0.408117 0.40948 0.537002 0.269852 0.647988C -0.0394757 0.89502 -0.0903146 1.34541 0.156002 1.65402C 0.297778 1.8316 0.506145 1.92397 0.71666 1.92397C 0.873472 1.92397 1.03029 1.87313 1.16275 1.76787C 1.38544 1.59029 1.58951 1.38766 1.76924 1.16354C 2.01698 0.854923 1.96829 0.403821 1.65968 0.156788C 1.35107 -0.0895288 0.899966 -0.0401223 0.652217 0.266342Z" transform="translate(37.4863 38.4912)" fill="#045CC7"/>
</g>
<g id="Vector_9">
<path d="M 1.41561 0L 0.716036 0C 0.320783 0 -1.35481e-06 0.320069 -1.35481e-06 0.716037C -1.35481e-06 1.11201 0.320783 1.43207 0.716036 1.43207L 1.41561 1.43207C 1.81086 1.43207 2.13164 1.11201 2.13164 0.716037C 2.13164 0.320069 1.81086 0 1.41561 0Z" transform="translate(34.1426 39.6641)" fill="#045CC7"/>
</g>
<g id="Vector_10">
<path d="M 0.716037 -6.11848e-07C 0.320785 -6.11848e-07 0 0.320068 0 0.716037L 0 1.41632C 0 1.81229 0.320785 2.13236 0.716037 2.13236C 1.11129 2.13236 1.43207 1.81229 1.43207 1.41632L 1.43207 0.716037C 1.43207 0.320784 1.11129 -6.11848e-07 0.716037 -6.11848e-07Z" transform="translate(38.666 35.1504)" fill="#045CC7"/>
</g>
<g id="Vector_11">
<path d="M 1.41561 0L 0.716037 0C 0.320784 0 1.01064e-07 0.320069 1.01064e-07 0.716037C 1.01064e-07 1.11201 0.320784 1.43207 0.716037 1.43207L 1.41561 1.43207C 1.81086 1.43207 2.13164 1.11201 2.13164 0.716037C 2.13164 0.320069 1.81086 0 1.41561 0Z" transform="translate(5.24609 39.6641)" fill="#045CC7"/>
</g>
<g id="Vector_12">
<path d="M 1.43207 1.41632L 1.43207 0.716036C 1.43207 0.320068 1.11129 -9.61476e-07 0.716037 -9.61476e-07C 0.320785 -9.61476e-07 0 0.320068 0 0.716036L 0 1.41632C 0 1.81229 0.320785 2.13236 0.716037 2.13236C 1.11129 2.13236 1.43207 1.81229 1.43207 1.41632Z" transform="translate(1.43164 35.1406)" fill="#045CC7"/>
</g>
<g id="Vector_13">
<path d="M 1.27588 0.269775C 1.02885 -0.0402689 0.578464 -0.0896757 0.269852 0.155925C -0.0394758 0.402958 -0.0903144 0.853345 0.156002 1.16196C 0.334296 1.38536 0.53765 1.58943 0.761054 1.76916C 0.893521 1.87442 1.05177 1.92669 1.20858 1.92669C 1.41766 1.92669 1.62603 1.83503 1.76709 1.65889C 2.01484 1.35027 1.96543 0.899172 1.65682 0.65214C 1.51647 0.53829 1.3883 0.410119 1.27588 0.269775Z" transform="translate(2.11133 38.4844)" fill="#045CC7"/>
</g>
</g>
</g>
</svg>

