<svg width="387" height="362" viewBox="0 0 387 362" version="1.1" xmlns="http://www.w3.org/2000/svg" xmlns:xlink="http://www.w3.org/1999/xlink">
<title>icons</title>
<desc>Created using Figma</desc>
<g id="Canvas" transform="translate(-4117 -2006)">
<g id="icons">
<g id="btc">
<g id="Group">
<g id="Vector">
<use xlink:href="#path0_fill" transform="translate(4117.71 2081.07)" fill="#F7931A"/>
</g>
<g id="Vector">
<use xlink:href="#path1_fill" transform="translate(4137.45 2095.6)" fill="#FFFFFF"/>
</g>
</g>
</g>
<g id="eth">
<g id="Group">
<g id="Vector">
<use xlink:href="#path0_fill" transform="translate(4314.65 2270.94)" fill="#627EEA"/>
</g>
<g id="Group">
<g id="Vector">
<use xlink:href="#path2_fill" transform="translate(4354.58 2280.62)" fill="#FFFFFF" fill-opacity="0.602"/>
</g>
<g id="Vector">
<use xlink:href="#path3_fill" transform="translate(4336.44 2280.62)" fill="#FFFFFF"/>
</g>
<g id="Vector">
<use xlink:href="#path4_fill" transform="translate(4354.58 2313.57)" fill="#FFFFFF" fill-opacity="0.602"/>
</g>
<g id="Vector">
<use xlink:href="#path5_fill" transform="translate(4336.44 2313.57)" fill="#FFFFFF"/>
</g>
<g id="Vector">
<use xlink:href="#path6_fill" transform="translate(4354.58 2302.09)" fill="#FFFFFF" fill-opacity="0.2"/>
</g>
<g id="Vector">
<use xlink:href="#path7_fill" transform="translate(4336.44 2302.09)" fill="#FFFFFF" fill-opacity="0.602"/>
</g>
</g>
</g>
</g>
<g id="neo">
<g id="Group">
<g id="Vector">
<use xlink:href="#path8_fill" transform="translate(4406.57 2076.08)" fill="url(#paint9_linear)"/>
</g>
<g id="Vector">
<use xlink:href="#path9_fill" transform="translate(4416.56 2083.57)" fill="#FFFFFF"/>
</g>
</g>
</g>
<g id="ark">
<g id="Group">
<g id="Vector">
<use xlink:href="#path10_fill" transform="translate(4265.84 2107.72)" fill="#F70000"/>
</g>
<g id="Vector">
<use xlink:href="#path11_fill" transform="translate(4275.47 2121.2)" fill="#FFFFFF"/>
</g>
</g>
</g>
<g id="xcp">
<g id="Group">
<g id="Vector">
<use xlink:href="#path12_fill" transform="translate(4228.88 2325.9)" fill="#ED1650"/>
</g>
<g id="Vector">
<use xlink:href="#path13_fill" transform="translate(4235.39 2338.91)" fill="#FFFFFF"/>
</g>
</g>
</g>
<g id="dash">
<g id="Group">
<g id="Vector">
<use xlink:href="#path14_fill" transform="translate(4307.16 2006.96)" fill="#1C75BC"/>
</g>
<g id="Vector">
<use xlink:href="#path15_fill" transform="translate(4316.11 2023.27)" fill="#FFFFFF"/>
</g>
</g>
</g>
<g id="xrp">
<g id="Group">
<g id="Vector">
<use xlink:href="#path10_fill" transform="translate(4211.4 2204.32)" fill="#00AAE4"/>
</g>
<g id="Vector">
<use xlink:href="#path16_fill" transform="translate(4222.95 2215.87)" fill="#FFFFFF"/>
</g>
</g>
</g>
<g id="ltc">
<g id="Group">
<g id="Vector">
<use xlink:href="#path0_fill" transform="translate(4426.56 2177.15)" fill="#CBC6C6"/>
</g>
<g id="Vector">
<use xlink:href="#path17_fill" transform="translate(4448.34 2196.51)" fill="#FFFFFF"/>
</g>
</g>
</g>
<g id="sc">
<g id="Group">
<g id="Vector">
<use xlink:href="#path18_fill" transform="translate(4117.71 2200.81)" fill="#00CBA0"/>
</g>
<g id="Vector">
<use xlink:href="#path19_fill" transform="translate(4123.54 2206.64)" fill="#FFFFFF"/>
</g>
</g>
</g>
<g id="ant">
<g id="Group">
<g id="Vector">
<use xlink:href="#path18_fill" transform="translate(4211.4 2017.84)" fill="#2CD3E1"/>
</g>
<g id="Vector">
<use xlink:href="#path20_fill" transform="translate(4215.56 2022.84)" fill="#FFFFFF"/>
</g>
</g>
</g>
<g id="omg">
<g id="Group">
<g id="Vector">
<use xlink:href="#path18_fill" transform="translate(4147.28 2288.77)" fill="#1A53F0"/>
</g>
<g id="Vector">
<use xlink:href="#path21_fill" transform="translate(4153.53 2295.43)" fill="#FFFFFF"/>
</g>
</g>
</g>
<g id="gnt">
<g id="Group">
<g id="Vector">
<use xlink:href="#path22_fill" transform="translate(4346.96 2181.88)" fill="#001D57"/>
</g>
<g id="Vector">
<use xlink:href="#path23_fill" transform="translate(4358.96 2187.4)" fill="#FFFFFF"/>
</g>
</g>
</g>
<g id="Group">
<g id="Rectangle 2.6">
<use xlink:href="#path24_fill" transform="translate(4188.98 2072.75)" fill="#F2F4F7" fill-opacity="0.09"/>
</g>
<g id="BTC">
<use xlink:href="#path25_fill" transform="translate(4203.17 2075.04)" fill="#FFFFFF"/>
</g>
</g>
</g>
</g>
<defs>
<linearGradient id="paint9_linear" x1="0" y1="0" x2="1" y2="0" gradientUnits="userSpaceOnUse" gradientTransform="matrix(0 32466.1 -32466.1 0 37759.9 -1371.81)">
<stop offset="0" stop-color="#58BF00"/>
<stop offset="0.23" stop-color="#58BF00"/>
<stop offset="0.42" stop-color="#58BF00"/>
<stop offset="0.61" stop-color="#29B800"/>
<stop offset="0.78" stop-color="#00AE1D"/>
<stop offset="0.99" stop-color="#00A62C"/>
</linearGradient>
<path id="path0_fill" d="M 38.722 77.444C 60.1075 77.444 77.444 60.1075 77.444 38.722C 77.444 17.3364 60.1075 0 38.722 0C 17.3364 0 0 17.3364 0 38.722C 0 60.1075 17.3364 77.444 38.722 77.444Z"/>
<path id="path1_fill" d="M 36.3796 19.4098C 37.1385 14.3367 33.2759 11.6094 27.9942 9.7901L 29.7075 2.91785L 25.5243 1.87533L 23.8563 8.56649C 22.7566 8.29246 21.6271 8.03391 20.5048 7.77775L 22.1847 1.04252L 18.0039 0L 16.2894 6.86987C 15.3792 6.66256 14.4856 6.45763 13.6182 6.24198L 13.623 6.22054L 7.85401 4.78008L 6.7412 9.248C 6.7412 9.248 9.84491 9.95929 9.77938 10.0034C 11.4736 10.4263 11.7798 11.5475 11.7286 12.4363L 9.777 20.2653C 9.89376 20.2951 10.0451 20.338 10.2119 20.4047C 10.0725 20.3701 9.92355 20.332 9.76985 20.2951L 7.03429 31.2623C 6.82698 31.777 6.30155 32.5491 5.11726 32.256C 5.15896 32.3168 2.07669 31.497 2.07669 31.497L 7.11478e-07 36.2855L 5.44371 37.6425C 6.45644 37.8963 7.44892 38.162 8.4259 38.4122L 6.69473 45.3631L 10.8731 46.4056L 12.5876 39.5286C 13.729 39.8384 14.8371 40.1243 15.9213 40.3936L 14.2128 47.2384L 18.3959 48.2809L 20.1271 41.3432C 27.2603 42.6931 32.6242 42.1486 34.8819 35.6969C 36.7013 30.5022 34.7914 27.5057 31.0383 25.5517C 33.7715 24.9215 35.8303 23.1236 36.3796 19.4098ZM 26.8218 32.8124C 25.5291 38.0071 16.7827 35.1989 13.9471 34.4947L 16.2442 25.286C 19.0798 25.9938 28.1729 27.3949 26.8218 32.8124ZM 28.1157 19.3348C 26.9362 24.06 19.6565 21.6593 17.295 21.0707L 19.3777 12.7187C 21.7391 13.3073 29.3441 14.4058 28.1157 19.3348Z"/>
<path id="path2_fill" d="M 3.50817e-07 0L 3.50817e-07 21.4665L 18.1437 29.5739L 3.50817e-07 0Z"/>
<path id="path3_fill" d="M 18.1461 0L 0 29.5739L 18.1461 21.4665L 18.1461 0Z"/>
<path id="path4_fill" d="M 3.50817e-07 10.5324L 3.50817e-07 25.1185L 18.1558 4.24674e-07L 3.50817e-07 10.5324Z"/>
<path id="path5_fill" d="M 18.1461 25.1185L 18.1461 10.53L 0 4.24674e-07L 18.1461 25.1185Z"/>
<path id="path6_fill" d="M 3.50817e-07 18.6374L 18.1437 8.10257L 3.50817e-07 -6.27779e-07L 3.50817e-07 18.6374Z"/>
<path id="path7_fill" d="M 0 8.10257L 18.1461 18.6374L 18.1461 -6.27779e-07L 0 8.10257Z"/>
<path id="path8_fill" d="M 19.9855 39.9711C 31.0232 39.9711 39.9711 31.0232 39.9711 19.9855C 39.9711 8.94783 31.0232 0 19.9855 0C 8.94783 0 0 8.94783 0 19.9855C 0 31.0232 8.94783 39.9711 19.9855 39.9711Z"/>
<path id="path9_fill" d="M 21.2346 20.709L 12.5027 16.6407L 12.5027 7.62266L 21.2346 4.52427L 21.2346 20.709ZM 8.52269 24.9819L 0 21.011L 0 4.94379L 8.52269 8.91684L 8.52269 24.9819ZM 21.0253 3.94388L 20.8851 3.99364L 12.5027 6.96764L 12.2934 7.04228L 8.7424 8.30171L 0.336948 4.38443L 12.2934 0.142416L 12.398 0.105096L 12.6199 0.0265954L 12.6972 0L 21.1026 3.91686L 21.0253 3.94388Z"/>
<path id="path10_fill" d="M 30.811 61.6221C 47.8275 61.6221 61.6221 47.8275 61.6221 30.811C 61.6221 13.7946 47.8275 0 30.811 0C 13.7946 0 0 13.7946 0 30.811C 0 47.8275 13.7946 61.6221 30.811 61.6221Z"/>
<path id="path11_fill" d="M 21.0801 12.2214L 0 34.4524L 21.1747 0L 42.3652 34.6624L 21.0801 12.2214ZM 24.1388 21.0525L 17.5483 21.0525L 20.9375 17.3232L 24.1388 21.0838L 24.1388 21.0525ZM 11.4308 27.1703L 11.4301 27.1226L 15.1667 23.2963L 15.1667 23.2804L 26.567 23.2312L 30.414 27.1703L 11.4308 27.1703Z"/>
<path id="path12_fill" d="M 20.8183 41.6365C 32.3159 41.6365 41.6365 32.3159 41.6365 20.8183C 41.6365 9.32065 32.3159 0 20.8183 0C 9.32065 0 0 9.32065 0 20.8183C 0 32.3159 9.32065 41.6365 20.8183 41.6365Z"/>
<path id="path13_fill" fill-rule="evenodd" d="M 24.0456 6.0222e-07L 18.783 6.0222e-07C 18.5679 6.0222e-07 18.3617 0.0871706 18.2099 0.242229L 8.6152 10.0378C 8.46335 10.1929 8.25712 10.28 8.04209 10.28L 6.28295 10.28C 6.06826 10.28 5.8623 10.1932 5.71054 10.0386L 4.46622 8.77166C 4.31436 8.61714 4.2291 8.40752 4.2291 8.18893L 4.2291 6.39719C 4.2291 6.17859 4.31436 5.96898 4.46622 5.81436L 5.71054 4.54742C 5.8623 4.39289 6.06826 4.30599 6.28295 4.30599L 8.0427 4.30599C 8.25739 4.30599 8.46326 4.39289 8.61511 4.54742L 9.37918 5.32538C 9.69536 5.64731 10.2079 5.64731 10.524 5.32538L 12.3696 3.44629C 12.6858 3.12435 12.6858 2.60249 12.3696 2.28064L 10.3668 0.241428C 10.215 0.0869036 10.0091 6.0222e-07 9.79442 6.0222e-07L 4.53123 6.0222e-07C 4.31655 6.0222e-07 4.11058 0.0869036 3.95873 0.241428L 0.237117 4.0308C 0.0853516 4.18532 1.20797e-07 4.39494 1.20797e-07 4.61362L 1.20797e-07 9.97249C 1.20797e-07 10.1911 0.0853516 10.4007 0.237117 10.5553L 3.95873 14.3447C 4.11058 14.4992 4.31655 14.5861 4.53123 14.5861L 9.79381 14.5861C 10.0088 14.5861 10.2151 14.4989 10.367 14.3439L 19.9616 4.54822C 20.1134 4.39316 20.3197 4.30599 20.5348 4.30599L 22.2939 4.30599C 22.5086 4.30599 22.7145 4.39289 22.8662 4.54742L 24.1106 5.81427C 24.2624 5.9688 24.3478 6.17851 24.3478 6.3971L 24.3478 8.18893C 24.3478 8.40752 24.2624 8.61714 24.1106 8.77166L 22.8662 10.0386C 22.7145 10.1932 22.5086 10.28 22.2939 10.28L 20.5342 10.28C 20.3195 10.28 20.1135 10.1932 19.9617 10.0386L 19.1912 9.25416C 18.8776 8.93481 18.37 8.93196 18.0528 9.24768L 15.7767 11.5136C 15.6209 11.6686 15.5331 11.8811 15.5331 12.1029L 15.5331 17.361C 15.5331 17.8162 15.8956 18.1853 16.3427 18.1853L 18.9979 18.1853C 19.445 18.1853 19.8075 17.8162 19.8075 17.361L 19.8075 15.4103C 19.8075 14.9551 20.1699 14.5861 20.617 14.5861L 24.0456 14.5861C 24.2603 14.5861 24.4662 14.4992 24.618 14.3447L 28.3397 10.5553C 28.4915 10.4007 28.5768 10.1911 28.5768 9.97249L 28.5768 4.61362C 28.5768 4.39494 28.4915 4.18532 28.3397 4.0308L 24.618 0.241428C 24.4662 0.0869036 24.2603 6.0222e-07 24.0456 6.0222e-07Z"/>
<path id="path14_fill" d="M 26.6474 53.2948C 41.3643 53.2948 53.2948 41.3643 53.2948 26.6474C 53.2948 11.9304 41.3643 0 26.6474 0C 11.9304 0 0 11.9304 0 26.6474C 0 41.3643 11.9304 53.2948 26.6474 53.2948Z"/>
<path id="path15_fill" fill-rule="evenodd" d="M 35.3078 5.29775L 31.9134 15.925C 31.9134 15.925 29.8197 21.2227 24.8392 21.2227C 19.8586 21.2227 0.8248 21.2227 0.8248 21.2227L 2.53785 15.925L 24.2364 15.925L 24.2999 15.925L 27.726 5.29775L 5.99566 5.29775L 7.67698 -5.74023e-07C 7.67698 -5.74023e-07 26.3301 -5.74023e-07 31.5645 -5.74023e-07C 36.7988 -5.74023e-07 35.3078 5.29775 35.3078 5.29775ZM 1.68132 8.15283L 14.5609 8.15283L 12.9113 13.0699L -1.33761e-07 13.0699L 1.68132 8.15283Z"/>
<path id="path16_fill" d="M 30.7354 23.5035C 29.4062 22.7172 27.9093 22.4894 26.4267 22.4363C 25.1827 22.3918 23.3268 21.5752 23.3268 19.257C 23.3268 17.5298 24.6935 16.1398 26.4273 16.0777C 27.9098 16.0247 29.4066 15.7965 30.7354 15.0106C 34.0354 13.0588 35.4912 8.96148 34.1879 5.2933C 32.8845 1.62513 29.1984 -0.55494 25.4458 0.122997C 21.6932 0.800934 18.9574 4.14116 18.9575 8.04476C 18.9575 9.60323 19.4986 11.0374 20.189 12.3676C 20.7697 13.4863 21.0634 15.5628 19.0719 16.7406C 17.5904 17.6168 15.7415 17.062 14.818 15.5479C 14.038 14.2691 13.0963 13.0708 11.7779 12.2909C 8.47791 10.3391 4.28634 11.0963 1.837 14.0866C -0.612334 17.0769 -0.612334 21.437 1.837 24.4273C 4.28634 27.4176 8.47791 28.1748 11.7779 26.223C 13.0959 25.4434 14.0377 24.2459 14.8173 22.9678C 15.4574 21.9183 17.0563 20.5806 19.0718 21.7736C 20.5511 22.6491 21.0083 24.5674 20.1883 26.1474C 19.498 27.4774 18.9576 28.9112 18.9576 30.4694C 18.9576 34.3729 21.6934 37.713 25.446 38.3908C 29.1986 39.0687 32.8845 36.8886 34.1878 33.2205C 35.491 29.5524 34.0353 25.4552 30.7354 23.5035Z"/>
<path id="path17_fill" fill-rule="evenodd" d="M 3.45352 27.1393L 0 28.48L 1.66504 21.8029L 5.1597 20.3992L 10.196 0L 22.6088 0L 18.9326 14.9951L 22.345 13.6132L 20.6993 20.2685L 17.2458 21.6504L 15.1935 30.0797L 33.8817 30.0797L 31.769 38.722L 0.609871 38.722L 3.45352 27.1393Z"/>
<path id="path18_fill" d="M 13.3237 26.6474C 20.6822 26.6474 26.6474 20.6822 26.6474 13.3237C 26.6474 5.96522 20.6822 0 13.3237 0C 5.96522 0 0 5.96522 0 13.3237C 0 20.6822 5.96522 26.6474 13.3237 26.6474Z"/>
<path id="path19_fill" d="M 12.6482 5.83552C 11.2154 4.93496 9.41978 4.84257 7.91016 5.55355C 7.90938 5.55238 7.9086 5.55147 7.90782 5.5503C 7.10618 5.9119 6.14178 5.78386 5.4567 5.16957C 5.42561 5.14185 5.39517 5.11387 5.36512 5.08382L 2.32441 2.0425C 2.32415 2.04224 2.32141 2.04094 2.32193 2.04003C 2.11834 1.81206 2.03377 1.51929 2.06565 1.23406C 2.065 1.23354 2.06383 1.23367 2.06331 1.23341C 2.07488 1.17083 2.08152 1.10681 2.08165 1.04071C 2.08152 0.465962 1.61552 0 1.04076 0C 0.466 0 0 0.466092 0 1.04097C 0 1.61558 0.46587 2.08193 1.04063 2.08193C 1.10659 2.08193 1.17085 2.07503 1.23343 2.06332C 1.23369 2.0641 1.23408 2.06463 1.23434 2.06528C 1.51964 2.0334 1.81834 2.11238 2.046 2.31602C 2.04704 2.3155 2.04821 2.31823 2.04847 2.31849L 5.10349 5.37411C 5.12847 5.3991 5.1489 5.42772 5.17231 5.45388C 5.78701 6.13961 5.91255 7.10693 5.55011 7.90887C 5.55115 7.90965 5.55141 7.91069 5.55245 7.91147C 4.84135 9.42126 4.93333 11.2178 5.83385 12.6511C 6.02678 12.959 6.25574 13.2502 6.52309 13.5178C 7.37534 14.3701 8.50652 14.8749 9.62221 14.9739C 9.9144 14.9994 14.0785 14.9852 14.0785 14.9852C 14.3042 14.9852 14.5362 14.8733 14.6959 14.7138C 14.8555 14.5543 14.9891 14.3004 14.9891 14.0744C 14.9891 14.0744 14.9889 10.2421 14.9891 10.0406C 14.9897 9.83934 14.9458 9.55021 14.9422 9.50883C 14.8433 8.39278 14.3678 7.37745 13.5156 6.52503C 13.2481 6.25776 12.9558 6.02862 12.6482 5.83552ZM 12.915 9.21268C 13.0321 9.78794 13.0377 10.0409 13.0377 10.0793L 13.0377 12.1226C 13.0377 12.3487 12.9372 12.6135 12.7775 12.7732C 12.6179 12.9328 12.3529 13.0334 12.1271 13.0334L 10.1426 13.0334C 10.1043 13.0334 9.63847 13.0279 9.2102 12.9098C 8.7308 12.7776 8.27911 12.518 7.90301 12.1418C 6.73618 10.9752 6.73631 9.07345 7.90288 7.90652C 9.0697 6.73973 10.9761 6.73895 12.1428 7.90574C 12.5189 8.28179 12.8157 8.7255 12.915 9.21268Z"/>
<path id="path20_fill" d="M 2.46876 9.65762C 2.46369 9.57295 2.46103 9.4853 2.46103 9.39432C 2.46103 6.46572 4.74382 4.08448 7.60016 3.98291C 7.6683 3.98291 7.74212 3.98291 7.81027 3.98855L 7.12883 3.31142C 7.12883 3.31142 9.8716 2.85435 13.3923 4.97039C 13.3923 4.97039 13.4434 5.0776 13.3923 5.3936C 13.3923 5.3936 15.0505 6.10459 15.1924 7.48706C 15.3344 8.86954 14.4542 9.65953 13.7444 9.77238C 13.7444 9.77238 14.1135 9.20246 13.5457 8.89775C 13.4264 8.83004 13.2844 8.80183 13.1425 8.80747C 12.0579 8.80747 11.9329 10.0376 11.9329 10.0376C 11.9216 10.0997 11.9216 10.1617 11.9216 10.2238C 11.9216 10.2238 11.7637 11.788 14.355 11.9727C 14.9277 11.239 15.4463 10.4213 15.9043 9.52877C 16.3834 8.59406 16.7657 7.63528 17.0618 6.69195C 17.24 6.12401 17.3656 5.63338 17.4472 5.244C 15.938 4.00594 14.1569 2.94505 12.2421 2.05657C 11.5252 1.72389 10.8293 1.43439 10.1713 1.18664C 9.76438 1.03342 9.43204 0.918088 9.15582 0.828722C 8.88731 0.915028 8.54654 1.03307 8.13845 1.18666C 7.48125 1.434 6.78507 1.72366 6.06796 2.05655C 4.15496 2.9446 2.37428 4.00579 0.864642 5.24425C 0.946112 5.63787 1.07042 6.12819 1.24837 6.69788C 1.54341 7.64238 1.92617 8.60264 2.40784 9.54006C 2.42803 9.57939 2.44833 9.61858 2.46876 9.65762ZM 18.3201 4.91459L 18.2787 5.14729C 18.2567 5.32824 18.1093 5.97615 17.9276 6.59652C 17.6109 7.67756 17.1806 8.79484 16.6214 9.88617C 15.8672 11.3564 14.9507 12.6395 13.9001 13.695C 12.603 14.9954 11.1031 15.9553 9.43044 16.5534L 9.33729 16.5861L 9.15992 16.6546L 8.98396 16.5929L 8.88611 16.5586C 7.20995 15.9592 5.70528 14.9972 4.41722 13.7C 3.36157 12.6338 2.4468 11.3545 1.69633 9.89154C 1.13767 8.79877 0.708947 7.68263 0.392389 6.59993C 0.281359 6.22019 0.192211 5.8714 0.122326 5.55885C 0.080465 5.37163 0.0347388 5.13882 0.0430471 5.17184L 0 4.93266L 0.0996516 4.84887L 0.17337 4.78689C 1.70882 3.4943 3.52518 2.38541 5.48628 1.45375C 6.79282 0.833049 7.98724 0.372162 8.88924 0.0828549L 9.15454 0L 9.33494 0.0537761L 9.42462 0.0833838C 10.3249 0.372162 11.5194 0.833049 12.8259 1.45375C 14.784 2.38396 16.5977 3.49084 18.1316 4.78084L 18.3201 4.91459ZM 11.9897 5.51774C 12.0351 5.49517 12.1828 5.42181 12.3531 5.24689C 12.6939 5.29203 13.0289 5.39924 13.0289 5.39924C 12.4099 5.02682 11.5638 4.80675 10.6269 4.81239C 10.6269 4.81239 10.9846 5.32024 11.9784 5.52902C 11.9784 5.52902 11.984 5.52338 11.9897 5.51774Z"/>
<path id="path21_fill" d="M 3.62758 7.73605C 1.62654 7.73605 0.00440438 9.3597 0.00440438 11.3626C 0.00440438 13.3655 1.62675 14.9892 3.62779 14.9892C 5.62905 14.9892 7.25118 13.3655 7.25118 11.3626C 7.25118 9.3597 5.62905 7.73605 3.62779 7.73605L 3.62758 7.73605ZM 3.62758 13.8921C 2.23258 13.8921 1.10164 12.7602 1.10164 11.3639C 1.10164 9.96756 2.23258 8.83563 3.62758 8.83563C 5.02279 8.83563 6.15373 9.96756 6.15373 11.3639C 6.15137 12.7591 5.02172 13.8898 3.62758 13.8921ZM 11.3658 7.93682e-07C 9.36472 7.93682e-07 7.74237 1.62366 7.74237 3.62655C 7.74237 5.62945 9.36472 7.25311 11.3658 7.25311C 13.367 7.25311 14.9892 5.62945 14.9892 3.62655C 14.9892 1.62366 13.367 7.93682e-07 11.3658 7.93682e-07ZM 11.3658 6.1561C 9.97076 6.1561 8.83982 5.02417 8.83982 3.62784C 8.83982 2.23151 9.97076 1.09958 11.3658 1.09958C 12.761 1.09958 13.8919 2.23151 13.8919 3.62784C 13.8896 5.0231 12.7599 6.15374 11.3658 6.1561ZM 3.62758 7.93682e-07C 1.90262 -0.00107051 0.415734 1.21485 0.072673 2.90707C -0.270173 4.59908 0.625907 6.2988 2.21498 6.97071C 3.80405 7.64242 5.64623 7.10034 6.61895 5.67444C 7.59188 4.24855 7.42615 2.33414 6.22264 1.09701L 7.25011 1.09701L 7.25011 7.93682e-07L 3.62758 7.93682e-07ZM 6.15373 3.62655C 6.15373 5.02288 5.02279 6.15481 3.62758 6.15481C 2.23258 6.15481 1.10164 5.02288 1.10164 3.62655C 1.10164 2.23023 2.23258 1.09829 3.62758 1.09829C 5.02215 1.10001 6.15266 2.23065 6.15502 3.62655L 6.15373 3.62655Z"/>
<path id="path22_fill" d="M 16.6905 33.3809C 25.9084 33.3809 33.3809 25.9084 33.3809 16.6905C 33.3809 7.47258 25.9084 0 16.6905 0C 7.47258 0 0 7.47258 0 16.6905C 0 25.9084 7.47258 33.3809 16.6905 33.3809Z"/>
<path id="path23_fill" d="M 9.38725 1.77376e-07L 10.6424 1.25664L 8.26679 3.69768C 8.76703 4.45923 9.03723 5.35682 9.03723 6.28273C 9.03723 7.52301 8.57314 8.67712 7.72445 9.54915C 7.09087 10.2132 6.28987 10.6527 5.41201 10.8277L 5.41201 12.9547C 6.28055 13.1306 7.08197 13.5722 7.72087 14.2287C 8.57314 15.1045 9.03723 16.2586 9.03723 17.4989C 9.03723 18.7391 8.57314 19.8933 7.72087 20.769C 6.86918 21.6441 5.72663 22.1276 4.51861 22.1276C 3.302 22.1276 2.17132 21.6475 1.31636 20.769C 0.46737 19.8966 0 18.7303 0 17.4989C 0 16.2674 0.467369 15.1011 1.31278 14.2324C 1.94635 13.5684 2.74736 13.1289 3.62522 12.9539L 3.62522 10.8269C 2.75668 10.651 1.95526 10.2094 1.31636 9.55287C 0.46737 8.68049 0 7.51419 0 6.28273C 0 5.05127 0.46737 3.88497 1.31636 3.01259C 2.16804 2.13745 3.3106 1.65403 4.51861 1.65403C 5.41634 1.65403 6.27868 1.92705 7.01762 2.43489L 9.38725 1.77376e-07ZM 4.51861 14.6638C 3.77614 14.6638 3.09216 14.9527 2.58182 15.4884C 2.0631 16.0214 1.77351 16.738 1.77351 17.4989C 1.77351 18.2553 2.06011 18.9615 2.58182 19.5093C 3.09785 20.0396 3.78776 20.3339 4.51861 20.3339C 5.26109 20.3339 5.94506 20.0451 6.45541 19.5093C 6.97413 18.9763 7.26372 18.2597 7.26372 17.4989C 7.26372 16.7424 6.97712 16.0362 6.45152 15.4844C 5.94506 14.9527 5.26109 14.6638 4.51861 14.6638ZM 6.45152 8.31086C 6.97413 7.77382 7.26372 7.05723 7.26372 6.29637C 7.26372 5.52364 6.97946 4.813 6.45541 4.28593C 5.93937 3.75568 5.24946 3.4613 4.51861 3.4613C 3.77614 3.4613 3.09216 3.75017 2.58182 4.28593C 2.0631 4.81893 1.77351 5.53552 1.77351 6.29637C 1.77351 7.05287 2.06011 7.75905 2.58182 8.30682C 3.09785 8.83707 3.78776 9.13145 4.51861 9.13145C 5.26109 9.13145 5.94506 8.84258 6.45152 8.31086Z"/>
<path id="path24_fill" d="M 0 11.6582C 0 5.21957 5.21957 0 11.6582 0L 44.1347 0C 50.5734 0 55.793 5.21957 55.793 11.6582C 55.793 18.0969 50.5734 23.3165 44.1347 23.3165L 11.6582 23.3165C 5.21956 23.3165 0 18.0969 0 11.6582Z"/>
<path id="path25_fill" d="M 2.00373 5.00586L 4.97053 5.00586C 6.34683 5.00586 7.34032 5.20638 7.951 5.60742C 8.56623 6.00846 8.87385 6.64193 8.87385 7.50781C 8.87385 8.09115 8.72346 8.5765 8.42268 8.96387C 8.1219 9.35124 7.68895 9.59505 7.12385 9.69531L 7.12385 9.76367C 7.82567 9.89583 8.34065 10.1579 8.66877 10.5498C 9.00145 10.9372 9.1678 11.4635 9.1678 12.1289C 9.1678 13.0267 8.85334 13.7308 8.22444 14.2412C 7.60009 14.7471 6.72964 15 5.61311 15L 2.00373 15L 2.00373 5.00586ZM 3.63752 9.13477L 5.20979 9.13477C 5.89338 9.13477 6.39241 9.02767 6.70686 8.81348C 7.02131 8.59473 7.17854 8.22559 7.17854 7.70605C 7.17854 7.23665 7.00764 6.89714 6.66584 6.6875C 6.3286 6.47786 5.79084 6.37305 5.05256 6.37305L 3.63752 6.37305L 3.63752 9.13477ZM 3.63752 10.4609L 3.63752 13.626L 5.37385 13.626C 6.05744 13.626 6.57242 13.4961 6.91877 13.2363C 7.26968 12.972 7.44514 12.5573 7.44514 11.9922C 7.44514 11.4727 7.26741 11.0876 6.91194 10.8369C 6.55647 10.5863 6.01643 10.4609 5.29182 10.4609L 3.63752 10.4609ZM 14.6981 15L 13.0643 15L 13.0643 6.40723L 10.1248 6.40723L 10.1248 5.00586L 17.6375 5.00586L 17.6375 6.40723L 14.6981 6.40723L 14.6981 15ZM 23.4276 6.26367C 22.4888 6.26367 21.7505 6.59635 21.2127 7.26172C 20.675 7.92708 20.4061 8.84538 20.4061 10.0166C 20.4061 11.2425 20.6636 12.1699 21.1785 12.7988C 21.6981 13.4277 22.4477 13.7422 23.4276 13.7422C 23.8514 13.7422 24.2615 13.7012 24.658 13.6191C 25.0545 13.5326 25.467 13.4232 25.8953 13.291L 25.8953 14.6924C 25.1115 14.9886 24.2228 15.1367 23.2293 15.1367C 21.7664 15.1367 20.6431 14.6947 19.8592 13.8105C 19.0753 12.9219 18.6834 11.6527 18.6834 10.0029C 18.6834 8.96387 18.8725 8.05469 19.2508 7.27539C 19.6336 6.49609 20.185 5.89909 20.9051 5.48438C 21.6252 5.06966 22.4705 4.8623 23.4412 4.8623C 24.4621 4.8623 25.4054 5.0765 26.2713 5.50488L 25.6834 6.86523C 25.3462 6.70573 24.9884 6.56673 24.6102 6.44824C 24.2365 6.3252 23.8423 6.26367 23.4276 6.26367Z"/>
</defs>
</svg>
