<svg viewBox="0 0 434 194" version="1.1" xmlns="http://www.w3.org/2000/svg" xmlns:xlink="http://www.w3.org/1999/xlink">
<title>Laptop</title>
<desc>Created using Figma</desc>
<g id="Canvas" transform="translate(-24209 -15317)">
<g id="Laptop">
<g id="Rectangle 22">
<use xlink:href="#path0_fill" transform="translate(24252.9 15495.5)" fill="url(#paint0_linear)"/>
</g>
<g id="Rectangle 23">
<use xlink:href="#path1_fill" transform="translate(24394.1 15495.5)" fill="#022191"/>
</g>
<g id="Rectangle 21.1">
<use xlink:href="#path2_fill" transform="translate(24278.5 15317)" fill="url(#paint2_linear)"/>
<mask id="mask0_outline_ins">
<use xlink:href="#path2_fill" fill="white" transform="translate(24278.5 15317)"/>
</mask>
<g mask="url(#mask0_outline_ins)">
<use xlink:href="#path3_stroke_2x" transform="translate(24278.5 15317)" fill="url(#paint3_linear)"/>
</g>
</g>
<g id="Group">
<g id="Instant graphic">
<g id="Graphic">
<g id="+&#194;&#163;50">
<use xlink:href="#path4_fill" transform="translate(24389.8 15448.9)" fill="#FFFFFF"/>
</g>
</g>
<g id="Vector 2.6">
<use xlink:href="#path5_stroke" transform="matrix(-1 0 0 1 24268.5 15375.4)" fill="#0072FF"/>
</g>
<g id="Vector 2.10">
<use xlink:href="#path6_stroke" transform="matrix(-1 0 0 1 24643 15375.4)" fill="#0072FF"/>
</g>
<g id="Vector 2.5">
<use xlink:href="#path7_stroke" transform="translate(24268.5 15375.4)" fill="#0072FF"/>
</g>
<g id="Vector 2.6">
<use xlink:href="#path8_stroke" transform="translate(24503.3 15345.3)" fill="#0072FF"/>
</g>
<g id="Vector 2.7">
<use xlink:href="#path9_stroke" transform="matrix(-1 0 0 1 24503.3 15345.3)" fill="#1963E2"/>
</g>
<g id="Line">
<use xlink:href="#path10_stroke" transform="matrix(-4.38298e-08 1 1 4.35932e-08 24503.1 15344.6)" fill="url(#paint10_linear)"/>
</g>
<g id="Vector 2.8">
<use xlink:href="#path11_stroke" transform="matrix(-1 0 0 1 24385.9 15420.7)" fill="#1963E2"/>
</g>
<g id="Vector 2.9">
<use xlink:href="#path12_stroke" transform="translate(24385.9 15420.7)" fill="#1963E2"/>
</g>
<g id="Group 3">
<g id="Vector 2.10">
<use xlink:href="#path13_stroke" transform="matrix(-1 0 0 1 24503.3 15345.3)" fill="#3DDC97"/>
</g>
<g id="Vector 2.11">
<use xlink:href="#path14_stroke" transform="matrix(-1 0 0 1 24385.9 15420.7)" fill="#3DDC97"/>
</g>
<g id="Vector 2.12">
<use xlink:href="#path15_stroke" transform="translate(24385.9 15420.7)" fill="#3DDC97"/>
</g>
</g>
<g id="Line">
<use xlink:href="#path16_stroke" transform="matrix(-4.38299e-08 1 1 4.35933e-08 24349.8 15448.8)" fill="url(#paint16_linear)"/>
</g>
</g>
<g id="Ellipse 3.2">
<use xlink:href="#path17_fill" transform="translate(24345.7 15445.3)" fill="#3DDC97"/>
<mask id="mask1_outline_out">
<rect id="mask1_outline_inv" fill="white" x="-2" y="-2" width="13" height="13" transform="translate(24345.7 15445.3)"/>
<use xlink:href="#path17_fill" fill="black" transform="translate(24345.7 15445.3)"/>
</mask>
<g mask="url(#mask1_outline_out)">
<use xlink:href="#path18_stroke_2x" transform="translate(24345.7 15445.3)" fill="#243FCA"/>
</g>
</g>
<g id="Ellipse 3" filter="url(#filter0_d)">
<mask id="mask2_outline_ins">
<use xlink:href="#path19_fill" fill="white" transform="translate(24342.7 15442.3)"/>
</mask>
<g mask="url(#mask2_outline_ins)">
<use xlink:href="#path20_stroke_2x" transform="translate(24342.7 15442.3)" fill="#3DDC97"/>
</g>
</g>
<g id="Group">
<g id="Ellipse 3.2">
<use xlink:href="#path21_fill" transform="translate(24499.1 15340.9)" fill="#3DDC97"/>
<mask id="mask3_outline_out">
<rect id="mask3_outline_inv" fill="white" x="-2" y="-2" width="13" height="13" transform="translate(24499.1 15340.9)"/>
<use xlink:href="#path21_fill" fill="black" transform="translate(24499.1 15340.9)"/>
</mask>
<g mask="url(#mask3_outline_out)">
<use xlink:href="#path22_stroke_2x" transform="translate(24499.1 15340.9)" fill="#243FCA"/>
</g>
</g>
<g id="Ellipse 3" filter="url(#filter1_d)">
<mask id="mask4_outline_ins">
<use xlink:href="#path19_fill" fill="white" transform="translate(24496.1 15338)"/>
</mask>
<g mask="url(#mask4_outline_ins)">
<use xlink:href="#path20_stroke_2x" transform="translate(24496.1 15338)" fill="#3DDC97"/>
</g>
</g>
</g>
</g>
</g>
</g>
<defs>
<filter id="filter0_d" filterUnits="userSpaceOnUse" x="24340" y="15440" width="20" height="20" color-interpolation-filters="sRGB">
<feFlood flood-opacity="0" result="BackgroundImageFix"/>
<feColorMatrix in="SourceAlpha" type="matrix" values="0 0 0 0 0 0 0 0 0 0 0 0 0 0 0 0 0 0 255 0"/>
<feOffset dx="0" dy="0.5"/>
<feGaussianBlur stdDeviation="1"/>
<feColorMatrix type="matrix" values="0 0 0 0 0 0 0 0 0 0 0 0 0 0 0 0 0 0 0.25 0"/>
<feBlend mode="normal" in2="BackgroundImageFix" result="effect1_dropShadow"/>
<feBlend mode="normal" in="SourceGraphic" in2="effect1_dropShadow" result="shape"/>
</filter>
<filter id="filter1_d" filterUnits="userSpaceOnUse" x="24494" y="15336" width="19" height="20" color-interpolation-filters="sRGB">
<feFlood flood-opacity="0" result="BackgroundImageFix"/>
<feColorMatrix in="SourceAlpha" type="matrix" values="0 0 0 0 0 0 0 0 0 0 0 0 0 0 0 0 0 0 255 0"/>
<feOffset dx="0" dy="0.5"/>
<feGaussianBlur stdDeviation="1"/>
<feColorMatrix type="matrix" values="0 0 0 0 0 0 0 0 0 0 0 0 0 0 0 0 0 0 0.25 0"/>
<feBlend mode="normal" in2="BackgroundImageFix" result="effect1_dropShadow"/>
<feBlend mode="normal" in="SourceGraphic" in2="effect1_dropShadow" result="shape"/>
</filter>
<linearGradient id="paint0_linear" x1="0" y1="0" x2="1" y2="0" gradientUnits="userSpaceOnUse" gradientTransform="matrix(-363.811 31.04 -682.508 -7346.46 699.859 3673.23)">
<stop offset="0" stop-color="#2B8BFF"/>
<stop offset="1" stop-color="#002094"/>
</linearGradient>
<linearGradient id="paint2_linear" x1="0" y1="0" x2="1" y2="0" gradientUnits="userSpaceOnUse" gradientTransform="matrix(-1.51301e-12 170.363 -276.926 1.04317e-14 283.524 8.11714)">
<stop offset="0" stop-color="#0331A1"/>
<stop offset="1" stop-color="#001B7D"/>
</linearGradient>
<linearGradient id="paint3_linear" x1="0" y1="0" x2="1" y2="0" gradientUnits="userSpaceOnUse" gradientTransform="matrix(-383.006 236.829 -384.968 -619.736 542.808 285.27)">
<stop offset="0" stop-color="#2B8BFF"/>
<stop offset="1" stop-color="#022191"/>
</linearGradient>
<linearGradient id="paint10_linear" x1="0" y1="0" x2="1" y2="0" gradientUnits="userSpaceOnUse" gradientTransform="matrix(-140.788 6.75099e-06 -330.451 -1684.98 306.014 842.491)">
<stop offset="0" stop-color="#3DDC97"/>
<stop offset="1" stop-color="#C9DDFF" stop-opacity="0"/>
</linearGradient>
<linearGradient id="paint16_linear" x1="0" y1="0" x2="1" y2="0" gradientUnits="userSpaceOnUse" gradientTransform="matrix(-36.5828 4.64495e-08 -85.8604 -437.83 79.513 218.915)">
<stop offset="0" stop-color="#C9DDFF" stop-opacity="0"/>
<stop offset="1" stop-color="#3DDC97"/>
</linearGradient>
<path id="path0_fill" d="M 0 0L 341.253 0C 341.253 8.57145 334.305 15.52 325.733 15.52L 15.52 15.52C 6.94855 15.52 0 8.57145 0 0Z"/>
<path id="path1_fill" d="M 0 0L 58.9135 0L 58.9135 1.43428C 58.9135 3.09114 57.5703 4.43428 55.9135 4.43428L 3 4.43428C 1.34315 4.43428 0 3.09114 0 1.43428L 0 0Z"/>
<path id="path2_fill" d="M 0 7.99999C 0 3.58171 3.58172 0 8 0L 282.121 0C 286.539 0 290.121 3.58172 290.121 8L 290.121 178.48L 0 178.48L 0 7.99999Z"/>
<path id="path3_stroke_2x" d="M 290.121 178.48L 290.121 188.48L 300.121 188.48L 300.121 178.48L 290.121 178.48ZM 0 178.48L -10 178.48L -10 188.48L 0 188.48L 0 178.48ZM 8 10L 282.121 10L 282.121 -10L 8 -10L 8 10ZM 280.121 8L 280.121 178.48L 300.121 178.48L 300.121 8L 280.121 8ZM 290.121 168.48L 0 168.48L 0 188.48L 290.121 188.48L 290.121 168.48ZM 10 178.48L 10 7.99999L -10 7.99999L -10 178.48L 10 178.48ZM 282.121 10C 281.016 10 280.121 9.10458 280.121 8L 300.121 8C 300.121 -1.94113 292.062 -10 282.121 -10L 282.121 10ZM 8 -10C -1.94111 -10 -10 -1.94115 -10 7.99999L 10 7.99999C 10 9.10458 9.10455 10 8 10L 8 -10Z"/>
<path id="path4_fill" d="M 15.9121 11.6104L 20.2734 11.6104L 20.2734 13.4902L 15.9121 13.4902L 15.9121 18.4316L 13.9141 18.4316L 13.9141 13.4902L 9.55275 13.4902L 9.55275 11.6104L 13.9141 11.6104L 13.9141 7.04492L 15.9121 7.04492L 15.9121 11.6104ZM 26.0205 13.3184L 26.1065 15.6816C 26.1065 16.7845 25.8845 17.6618 25.4404 18.3135L 33.3145 18.3135L 33.3037 20L 22.2178 20L 22.2178 18.3135L 23.0449 18.3135C 23.3314 18.249 23.5641 17.984 23.7432 17.5186C 23.9222 17.0459 24.0189 16.4658 24.0332 15.7783L 24.0332 15.6924L 23.9473 13.3184L 22.1748 13.3184L 22.1748 11.6318L 23.8936 11.6318L 23.7969 8.83887C 23.7969 7.41374 24.2337 6.27507 25.1074 5.42285C 25.9883 4.57064 27.1449 4.14453 28.5772 4.14453C 29.9378 4.14453 31.0156 4.52409 31.8106 5.2832C 32.6055 6.04232 33.0029 7.05566 33.0029 8.32324L 30.9512 8.32324C 30.9512 7.55697 30.722 6.95182 30.2637 6.50781C 29.8125 6.0638 29.1895 5.8418 28.3945 5.8418C 27.6426 5.8418 27.0339 6.11751 26.5684 6.66895C 26.1029 7.22038 25.8701 7.94368 25.8701 8.83887L 25.9668 11.6318L 29.3936 11.6318L 29.3936 13.3184L 26.0205 13.3184ZM 36.1934 12.1582L 36.9883 4.35938L 45.002 4.35938L 45.002 6.19629L 38.6748 6.19629L 38.2022 10.4609C 38.9684 10.0098 39.8386 9.78418 40.8125 9.78418C 42.2376 9.78418 43.3692 10.2568 44.207 11.2021C 45.0449 12.1403 45.4639 13.4115 45.4639 15.0156C 45.4639 16.627 45.027 17.8981 44.1533 18.8291C 43.2868 19.7529 42.0729 20.2148 40.5117 20.2148C 39.1296 20.2148 38.0016 19.8317 37.1279 19.0654C 36.2542 18.2992 35.7565 17.2393 35.6348 15.8857L 37.5147 15.8857C 37.6364 16.7809 37.9551 17.4577 38.4707 17.916C 38.9863 18.3672 39.6667 18.5928 40.5117 18.5928C 41.4356 18.5928 42.1589 18.2777 42.6817 17.6475C 43.2116 17.0173 43.4766 16.1471 43.4766 15.0371C 43.4766 13.9915 43.1901 13.1536 42.6172 12.5234C 42.0514 11.8861 41.2959 11.5674 40.3506 11.5674C 39.4841 11.5674 38.8037 11.7572 38.3096 12.1367L 37.7832 12.5664L 36.1934 12.1582ZM 57.4414 13.3291C 57.4414 15.6566 57.044 17.3861 56.249 18.5176C 55.4541 19.6491 54.2116 20.2148 52.5215 20.2148C 50.8529 20.2148 49.6175 19.6634 48.8154 18.5605C 48.0134 17.4505 47.598 15.7962 47.5693 13.5977L 47.5693 10.9443C 47.5693 8.64551 47.9668 6.9375 48.7617 5.82031C 49.5567 4.70312 50.8027 4.14453 52.5 4.14453C 54.183 4.14453 55.4219 4.68522 56.2168 5.7666C 57.0117 6.84082 57.4199 8.50228 57.4414 10.751L 57.4414 13.3291ZM 55.4541 10.6113C 55.4541 8.92839 55.2178 7.70378 54.7451 6.9375C 54.2725 6.16406 53.5241 5.77734 52.5 5.77734C 51.4831 5.77734 50.7419 6.16048 50.2764 6.92676C 49.8109 7.69303 49.571 8.87109 49.5567 10.4609L 49.5567 13.6406C 49.5567 15.3307 49.8001 16.5804 50.2871 17.3896C 50.7813 18.1917 51.5261 18.5928 52.5215 18.5928C 53.5026 18.5928 54.2295 18.2132 54.7022 17.4541C 55.182 16.695 55.4326 15.499 55.4541 13.8662L 55.4541 10.6113Z"/>
<path id="path5_stroke" d="M 6.85233e-06 1C 4.83442 0.999967 9.62092 2.76473 14.457 5.50174C 19.2968 8.24085 24.099 11.9013 28.982 15.6166C 33.8401 19.3131 38.7776 23.0632 43.8056 25.8824C 48.8378 28.704 54.0429 30.6417 59.4519 30.6418L 59.4519 28.6418C 54.5215 28.6418 49.664 26.8743 44.7838 24.1379C 39.8993 21.3993 35.0743 17.739 30.193 14.025C 25.3366 10.3298 20.4225 6.57985 15.4421 3.76116C 10.458 0.940369 5.32042 -1.00004 -6.85233e-06 -1L 6.85233e-06 1Z"/>
<path id="path6_stroke" d="M 6.85231e-06 1C 4.83442 0.999967 9.62092 2.76473 14.457 5.50174C 19.2968 8.24085 24.099 11.9013 28.982 15.6166C 33.8401 19.3131 38.7776 23.0632 43.8056 25.8824C 48.8378 28.704 54.0429 30.6417 59.4519 30.6418L 59.4519 28.6418C 54.5215 28.6418 49.664 26.8743 44.7838 24.1379C 39.8993 21.3993 35.0743 17.739 30.193 14.025C 25.3366 10.3298 20.4225 6.57985 15.4421 3.76116C 10.458 0.94037 5.32042 -1.00004 -6.85231e-06 -1L 6.85231e-06 1Z"/>
<path id="path7_stroke" d="M 1.26358e-05 1C 6.37305 0.999919 12.7767 5.30551 19.3353 12.1503C 25.8624 18.9621 32.3358 28.0627 38.8823 37.2478C 45.404 46.3981 51.998 55.6319 58.7101 62.5717C 65.3928 69.4811 72.3953 74.3353 79.7649 74.3353L 79.7649 72.3353C 73.2624 72.3353 66.7643 68.0224 60.1477 61.1813C 53.5605 54.3706 47.0564 45.2706 40.511 36.087C 33.9904 26.9383 27.4278 17.7051 20.7794 10.7666C 14.1626 3.86111 7.25139 -1.00009 -1.26358e-05 -1L 1.26358e-05 1Z"/>
<path id="path8_stroke" d="M 1.02371e-05 1C 6.49388 0.999934 12.9626 4.54642 19.5363 10.1046C 26.0971 15.652 32.6043 23.0632 39.1924 30.5521C 45.754 38.0107 52.3953 45.5457 59.1559 51.2088C 65.9051 56.8623 72.9255 60.7834 80.2604 60.7835L 80.2604 58.7835C 73.6369 58.7835 67.0729 55.2316 60.4402 49.6756C 53.8188 44.1292 47.2808 36.7183 40.6941 29.231C 34.1339 21.774 27.5241 14.2394 20.8276 8.57739C 14.144 2.92628 7.21519 -1.00007 -1.02371e-05 -1L 1.02371e-05 1Z"/>
<path id="path9_stroke" d="M 1.55876e-05 1C 3.12002 0.999951 6.28218 2.29397 9.51762 4.69068C 12.7541 7.08818 16.0013 10.5435 19.2676 14.7487C 25.8044 23.1644 32.286 34.4058 38.8308 45.7336C 45.354 57.0241 51.9398 68.4002 58.6419 76.9486C 61.9951 81.2254 65.4101 84.8378 68.8996 87.3874C 72.3907 89.9381 76.0156 91.4673 79.7649 91.4673L 79.7649 89.4673C 76.5781 89.4673 73.3598 88.1692 70.0794 85.7725C 66.7973 83.3745 63.5123 79.9191 60.2158 75.7146C 53.6187 67.3002 47.1065 56.0594 40.5625 44.7331C 34.0402 33.4441 27.4857 22.0687 20.8471 13.5219C 17.5257 9.24579 14.1503 5.63342 10.7081 3.08358C 7.26485 0.532937 3.69221 -1.00006 -1.55876e-05 -1L 1.55876e-05 1Z"/>
<path id="path10_stroke" d="M -8.76597e-08 2L 140.788 2.00001L 140.788 -1.99999L 8.76597e-08 -2L -8.76597e-08 2Z"/>
<path id="path11_stroke" d="M 1.02423e-05 1C 2.85488 0.999971 5.76736 2.56363 8.82221 5.14787C 11.8641 7.72118 14.8897 11.1671 17.9878 14.6906C 21.0594 18.1839 24.2025 21.7535 27.4111 24.4426C 30.6082 27.122 34.023 29.0607 37.653 29.0607L 37.653 27.0607C 34.7347 27.0607 31.7765 25.4917 28.6957 22.9097C 25.6263 20.3373 22.5865 16.8918 19.4898 13.3699C 16.4196 9.87823 13.2915 6.30899 10.1139 3.62095C 6.9493 0.943844 3.57653 -1.00004 -1.02423e-05 -1L 1.02423e-05 1Z"/>
<path id="path12_stroke" d="M 5.48258e-06 1C 6.09538 0.999967 11.9798 4.56625 18.2188 8.3644C 24.3228 12.0804 30.7708 16.0205 37.653 16.0206L 37.653 14.0206C 31.4385 14.0205 25.4915 10.4504 19.2588 6.65606C 13.1611 2.94393 6.76745 -1.00004 -5.48258e-06 -1L 5.48258e-06 1Z"/>
<path id="path13_stroke" d="M 1.55876e-05 1C 3.12002 0.999951 6.28218 2.29397 9.51762 4.69068C 12.7541 7.08818 16.0013 10.5435 19.2676 14.7487C 25.8044 23.1644 32.286 34.4058 38.8308 45.7336C 45.354 57.0241 51.9398 68.4002 58.6419 76.9486C 61.9951 81.2254 65.4101 84.8378 68.8996 87.3874C 72.3907 89.9381 76.0156 91.4673 79.7649 91.4673L 79.7649 89.4673C 76.5781 89.4673 73.3598 88.1692 70.0794 85.7725C 66.7973 83.3745 63.5123 79.9191 60.2158 75.7146C 53.6187 67.3002 47.1065 56.0594 40.5625 44.7331C 34.0402 33.4441 27.4857 22.0687 20.8471 13.5219C 17.5257 9.24579 14.1503 5.63342 10.7081 3.08358C 7.26485 0.532937 3.69221 -1.00006 -1.55876e-05 -1L 1.55876e-05 1Z"/>
<path id="path14_stroke" d="M 1.02423e-05 1C 2.85488 0.999971 5.76736 2.56363 8.82221 5.14787C 11.8641 7.72118 14.8897 11.1671 17.9878 14.6906C 21.0594 18.1839 24.2025 21.7535 27.4111 24.4426C 30.6082 27.122 34.023 29.0607 37.653 29.0607L 37.653 27.0607C 34.7347 27.0607 31.7765 25.4917 28.6957 22.9097C 25.6263 20.3373 22.5865 16.8918 19.4898 13.3699C 16.4196 9.87823 13.2915 6.30899 10.1139 3.62095C 6.9493 0.943844 3.57653 -1.00004 -1.02423e-05 -1L 1.02423e-05 1Z"/>
<path id="path15_stroke" d="M 5.4826e-06 1C 6.09538 0.999967 11.9798 4.56625 18.2188 8.3644C 24.3228 12.0804 30.7708 16.0205 37.653 16.0206L 37.653 14.0206C 31.4385 14.0205 25.4915 10.4504 19.2588 6.65606C 13.1611 2.94393 6.76745 -1.00004 -5.4826e-06 -1L 5.4826e-06 1Z"/>
<path id="path16_stroke" d="M -8.76597e-08 2L 36.5828 2L 36.5828 -2L 8.76597e-08 -2L -8.76597e-08 2Z"/>
<path id="path17_fill" d="M 8.85813 4.44416C 8.85813 6.8986 6.87517 8.88832 4.42907 8.88832C 1.98296 8.88832 0 6.8986 0 4.44416C 0 1.98972 1.98296 0 4.42907 0C 6.87517 0 8.85813 1.98972 8.85813 4.44416Z"/>
<path id="path18_stroke_2x" d="M 6.85813 4.44416C 6.85813 5.80045 5.76419 6.88832 4.42907 6.88832L 4.42907 10.8883C 7.98615 10.8883 10.8581 7.99675 10.8581 4.44416L 6.85813 4.44416ZM 4.42907 6.88832C 3.09394 6.88832 2 5.80045 2 4.44416L -2 4.44416C -2 7.99675 0.871981 10.8883 4.42907 10.8883L 4.42907 6.88832ZM 2 4.44416C 2 3.08787 3.09394 2 4.42907 2L 4.42907 -2C 0.871981 -2 -2 0.891569 -2 4.44416L 2 4.44416ZM 4.42907 2C 5.76419 2 6.85813 3.08787 6.85813 4.44416L 10.8581 4.44416C 10.8581 0.891569 7.98615 -2 4.42907 -2L 4.42907 2Z"/>
<path id="path19_fill" d="M 14.7824 7.41627C 14.7824 11.5122 11.4732 14.8325 7.39118 14.8325C 3.30915 14.8325 0 11.5122 0 7.41627C 0 3.32038 3.30915 0 7.39118 0C 11.4732 0 14.7824 3.32038 14.7824 7.41627Z"/>
<path id="path20_stroke_2x" d="M 13.7824 7.41627C 13.7824 10.9631 10.9177 13.8325 7.39118 13.8325L 7.39118 15.8325C 12.0287 15.8325 15.7824 12.0613 15.7824 7.41627L 13.7824 7.41627ZM 7.39118 13.8325C 3.86462 13.8325 1 10.9631 1 7.41627L -1 7.41627C -1 12.0613 2.75367 15.8325 7.39118 15.8325L 7.39118 13.8325ZM 1 7.41627C 1 3.86946 3.86462 1 7.39118 1L 7.39118 -1C 2.75367 -1 -1 2.77129 -1 7.41627L 1 7.41627ZM 7.39118 1C 10.9177 1 13.7824 3.86946 13.7824 7.41627L 15.7824 7.41627C 15.7824 2.77129 12.0287 -1 7.39118 -1L 7.39118 1Z"/>
<path id="path21_fill" d="M 8.85813 4.44409C 8.85813 6.8985 6.87517 8.88818 4.42907 8.88818C 1.98296 8.88818 0 6.8985 0 4.44409C 0 1.98969 1.98296 0 4.42907 0C 6.87517 0 8.85813 1.98969 8.85813 4.44409Z"/>
<path id="path22_stroke_2x" d="M 6.85813 4.44409C 6.85813 5.80032 5.76422 6.88818 4.42907 6.88818L 4.42907 10.8882C 7.98612 10.8882 10.8581 7.99667 10.8581 4.44409L 6.85813 4.44409ZM 4.42907 6.88818C 3.09391 6.88818 2 5.80032 2 4.44409L -2 4.44409C -2 7.99667 0.87201 10.8882 4.42907 10.8882L 4.42907 6.88818ZM 2 4.44409C 2 3.08787 3.09391 2 4.42907 2L 4.42907 -2C 0.87201 -2 -2 0.89151 -2 4.44409L 2 4.44409ZM 4.42907 2C 5.76422 2 6.85813 3.08787 6.85813 4.44409L 10.8581 4.44409C 10.8581 0.89151 7.98612 -2 4.42907 -2L 4.42907 2Z"/>
</defs>
</svg>
