<svg width="342" height="194" viewBox="0 0 342 194" version="1.1" xmlns="http://www.w3.org/2000/svg" xmlns:xlink="http://www.w3.org/1999/xlink">
<title>Laptop</title>
<desc>Created using Figma</desc>
<g id="Canvas" transform="translate(-24259 -15317)">
<g id="Laptop">
<g id="Rectangle 22">
<use xlink:href="#path0_fill" transform="translate(24259.7 15495.5)" fill="url(#paint0_linear)"/>
</g>
<g id="Rectangle 23">
<use xlink:href="#path1_fill" transform="translate(24400.9 15495.5)" fill="#022191"/>
</g>
<g id="Rectangle 21.1">
<use xlink:href="#path2_fill" transform="translate(24285.3 15317)" fill="url(#paint2_linear)"/>
<mask id="mask0_outline_ins">
<use xlink:href="#path2_fill" fill="white" transform="translate(24285.3 15317)"/>
</mask>
<g mask="url(#mask0_outline_ins)">
<use xlink:href="#path3_stroke_2x" transform="translate(24285.3 15317)" fill="url(#paint3_linear)"/>
</g>
</g>
</g>
</g>
<defs>
<linearGradient id="paint0_linear" x1="0" y1="0" x2="1" y2="0" gradientUnits="userSpaceOnUse" gradientTransform="matrix(-363.811 31.04 -682.508 -7346.46 699.859 3673.23)">
<stop offset="0" stop-color="#2B8BFF"/>
<stop offset="1" stop-color="#002094"/>
</linearGradient>
<linearGradient id="paint2_linear" x1="0" y1="0" x2="1" y2="0" gradientUnits="userSpaceOnUse" gradientTransform="matrix(1.77648e-14 178.48 -290.121 1.09287e-14 290.121 -1.09287e-14)">
<stop offset="0" stop-color="#0024A6" stop-opacity="0"/>
<stop offset="1" stop-color="#001B7D"/>
</linearGradient>
<linearGradient id="paint3_linear" x1="0" y1="0" x2="1" y2="0" gradientUnits="userSpaceOnUse" gradientTransform="matrix(-383.006 236.829 -384.968 -619.736 542.808 285.27)">
<stop offset="0" stop-color="#2B8BFF"/>
<stop offset="1" stop-color="#022191"/>
</linearGradient>
<path id="path0_fill" d="M 0 0L 341.253 0C 341.253 8.57145 334.305 15.52 325.733 15.52L 15.52 15.52C 6.94855 15.52 0 8.57145 0 0Z"/>
<path id="path1_fill" d="M 0 0L 58.9135 0L 58.9135 1.43428C 58.9135 3.09114 57.5703 4.43428 55.9135 4.43428L 3 4.43428C 1.34315 4.43428 0 3.09114 0 1.43428L 0 0Z"/>
<path id="path2_fill" d="M 0 7.99999C 0 3.58171 3.58172 0 8 0L 282.121 0C 286.539 0 290.121 3.58172 290.121 8L 290.121 178.48L 0 178.48L 0 7.99999Z"/>
<path id="path3_stroke_2x" d="M 290.121 178.48L 290.121 188.48L 300.121 188.48L 300.121 178.48L 290.121 178.48ZM 0 178.48L -10 178.48L -10 188.48L 0 188.48L 0 178.48ZM 8 10L 282.121 10L 282.121 -10L 8 -10L 8 10ZM 280.121 8L 280.121 178.48L 300.121 178.48L 300.121 8L 280.121 8ZM 290.121 168.48L 0 168.48L 0 188.48L 290.121 188.48L 290.121 168.48ZM 10 178.48L 10 7.99999L -10 7.99999L -10 178.48L 10 178.48ZM 282.121 10C 281.016 10 280.121 9.10458 280.121 8L 300.121 8C 300.121 -1.94113 292.062 -10 282.121 -10L 282.121 10ZM 8 -10C -1.94111 -10 -10 -1.94115 -10 7.99999L 10 7.99999C 10 9.10458 9.10455 10 8 10L 8 -10Z"/>
</defs>
</svg>
