<svg width="125" height="124" viewBox="0 0 125 124" version="1.1" xmlns="http://www.w3.org/2000/svg" xmlns:xlink="http://www.w3.org/1999/xlink">
<title>Vector (Stroke)</title>
<desc>Created using Figma</desc>
<g id="Canvas" transform="translate(-27109 -15570)">
<g id="Vector (Stroke)">
<use xlink:href="#path0_fill" transform="translate(27109.4 15571)" fill="#174EB4"/>
</g>
</g>
<defs>
<path id="path0_fill" fill-rule="evenodd" d="M 0.581238 50.0342C 5.87136 21.5374 31.3524 0 61.98 0C 96.4261 0 124.391 27.3057 124.391 61.0301C 124.391 94.7545 96.4261 122.06 61.98 122.06C 31.3524 122.06 5.87136 100.523 0.581238 72.0259L 0 68.8949L 26.2411 68.8949L 26.8002 70.8172C 31.1555 85.7917 45.2324 96.7684 61.98 96.7684C 77.4381 96.7684 90.6209 87.4169 95.984 74.2018L 81.4653 74.2018C 77.1915 80.2525 70.0321 84.1942 61.98 84.1942C 48.9466 84.1942 38.3053 73.823 38.3053 61.0301C 38.3053 48.2371 48.9466 37.8659 61.98 37.8659C 70.0321 37.8659 77.1915 41.8077 81.4653 47.8583L 95.984 47.8583C 90.6209 34.6432 77.4381 25.2917 61.98 25.2917C 45.2324 25.2917 31.1555 36.2684 26.8002 51.2429L 26.2411 53.1652L 0 53.1652L 0.581238 50.0342ZM 6.55557 47.8583L 22.2356 47.8583C 27.8498 31.6401 43.5108 19.9848 61.98 19.9848C 81.1711 19.9848 97.3303 32.5691 102.336 49.7806L 103.321 53.1652L 78.4805 53.1652L 77.6958 51.8792C 74.5113 46.6605 68.65 43.1728 61.98 43.1728C 51.8792 43.1728 43.6902 51.2087 43.6902 61.0301C 43.6902 70.8514 51.8792 78.8873 61.98 78.8873C 68.65 78.8873 74.5113 75.3996 77.6958 70.1809L 78.4805 68.8949L 103.321 68.8949L 102.336 72.2795C 97.3303 89.4911 81.1711 102.075 61.98 102.075C 43.5108 102.075 27.8498 90.42 22.2356 74.2018L 6.55557 74.2018C 12.598 98.6244 35.1015 116.753 61.98 116.753C 93.4934 116.753 119.006 91.7829 119.006 61.0301C 119.006 30.2773 93.4934 5.30696 61.98 5.30696C 35.1015 5.30696 12.598 23.4357 6.55557 47.8583Z"/>
</defs>
</svg>
