<svg width="64" height="64" viewBox="0 0 64 64" version="1.1" xmlns="http://www.w3.org/2000/svg" xmlns:xlink="http://www.w3.org/1999/xlink">
<title>Group 20.3</title>
<desc>Created using Figma</desc>
<g id="Canvas" transform="translate(27 -1572)">
<g id="Group 20.3">
<g id="Ellipse" filter="url(#filter0_d)">
<use xlink:href="#path0_fill" transform="translate(-19 1576)" fill="#FFFFFF"/>
</g>
<g id="Vector">
<use xlink:href="#path1_fill" transform="translate(-2.04297 1592.96)" fill="#045CC7"/>
</g>
</g>
</g>
<defs>
<filter id="filter0_d" filterUnits="userSpaceOnUse" x="-27" y="1572" width="64" height="64" color-interpolation-filters="sRGB">
<feFlood flood-opacity="0" result="BackgroundImageFix"/>
<feColorMatrix in="SourceAlpha" type="matrix" values="0 0 0 0 0 0 0 0 0 0 0 0 0 0 0 0 0 0 255 0"/>
<feOffset dx="0" dy="4"/>
<feGaussianBlur stdDeviation="4"/>
<feColorMatrix type="matrix" values="0 0 0 0 0 0 0 0 0 0 0 0 0 0 0 0 0 0 0.04 0"/>
<feBlend mode="normal" in2="BackgroundImageFix" result="effect1_dropShadow"/>
<feBlend mode="normal" in="SourceGraphic" in2="effect1_dropShadow" result="shape"/>
</filter>
<path id="path0_fill" d="M 47.2512 23.6256C 47.2512 36.6737 36.6737 47.2512 23.6256 47.2512C 10.5775 47.2512 0 36.6737 0 23.6256C 0 10.5775 10.5775 0 23.6256 0C 36.6737 0 47.2512 10.5775 47.2512 23.6256Z"/>
<path id="path1_fill" d="M 13.0031 6.8977C 12.7871 6.70493 12.5249 6.60862 12.2163 6.60862L 11.8463 6.60862L 11.8463 4.62594C 11.8463 3.35932 11.3374 2.27176 10.3193 1.36308C 9.30125 0.454359 8.08288 0 6.66357 0C 5.24431 0 4.0257 0.454359 3.00775 1.36304C 1.98963 2.27176 1.48074 3.35928 1.48074 4.62594L 1.48074 6.60862L 1.11058 6.60862C 0.802182 6.60862 0.539893 6.70493 0.32392 6.8977C 0.107946 7.09032 1.36024e-08 7.32443 1.36024e-08 7.59995L 1.36024e-08 13.5476C 1.36024e-08 13.8229 0.107987 14.057 0.32392 14.2498C 0.539893 14.4424 0.802182 14.5388 1.11058 14.5388L 12.2166 14.5388C 12.5252 14.5388 12.7873 14.4425 13.0033 14.2498C 13.2191 14.057 13.3273 13.8229 13.3273 13.5476L 13.3273 7.59984C 13.3274 7.32454 13.2191 7.09047 13.0031 6.8977ZM 9.62517 6.60862L 3.70198 6.60862L 3.70198 4.62594C 3.70198 3.89628 3.99126 3.27324 4.56968 2.75704C 5.14819 2.24076 5.84612 1.98268 6.6637 1.98268C 7.48136 1.98268 8.17912 2.24073 8.75767 2.75704C 9.33593 3.27321 9.62517 3.89628 9.62517 4.62594L 9.62517 6.60862Z"/>
</defs>
</svg>
