<svg width="29" height="33" viewBox="0 0 29 33" fill="none" xmlns="http://www.w3.org/2000/svg">
<path d="M14.5 26.5547C13.4967 26.5547 12.6875 25.749 12.6875 24.75V20.625C12.6875 19.626 13.4967 18.8203 14.5 18.8203C15.5033 18.8203 16.3125 19.626 16.3125 20.625V24.75C16.3125 25.749 15.5033 26.5547 14.5 26.5547ZM29 15.4688V29.9063C29 31.6143 27.6083 33 25.8929 33H3.10714C1.39174 33 0 31.6143 0 29.9063V15.4688C0 13.7608 1.39174 12.375 3.10714 12.375H5.17857V9.28127C5.17857 4.15725 9.37321 -0.0128608 14.5259 2.98052e-05C19.6786 0.0129204 23.8214 4.24104 23.8214 9.3715V12.375H25.8929C27.6083 12.375 29 13.7608 29 15.4688ZM8.28571 12.375H20.7143V9.28127C20.7143 5.8717 17.9243 3.09378 14.5 3.09378C11.0757 3.09378 8.28571 5.8717 8.28571 9.28127V12.375ZM25.8929 15.4688H3.10714V29.9063H25.8929V15.4688Z" fill="#045CC7"/>
</svg>
