<svg width="133" height="35" viewBox="0 0 133 35" version="1.1" xmlns="http://www.w3.org/2000/svg" xmlns:xlink="http://www.w3.org/1999/xlink">
<title>Component</title>
<desc>Created using Figma</desc>
<g id="Canvas" transform="translate(690 -3855)">
<g id="Component">
<g id="Vector (Stroke)">
<use xlink:href="#path0_fill" transform="translate(-690 3855)" fill="#045CC7"/>
</g>
<g id="cointec">
<use xlink:href="#path1_fill" transform="translate(-645.793 3860.82)" fill="#1E1E1E"/>
<use xlink:href="#path2_fill" transform="translate(-645.793 3860.82)" fill="#1E1E1E"/>
<use xlink:href="#path3_fill" transform="translate(-645.793 3860.82)" fill="#1E1E1E"/>
<use xlink:href="#path4_fill" transform="translate(-645.793 3860.82)" fill="#1E1E1E"/>
<use xlink:href="#path5_fill" transform="translate(-645.793 3860.82)" fill="#1E1E1E"/>
<use xlink:href="#path6_fill" transform="translate(-645.793 3860.82)" fill="#1E1E1E"/>
<use xlink:href="#path7_fill" transform="translate(-645.793 3860.82)" fill="#1E1E1E"/>
</g>
</g>
</g>
<defs>
<path id="path0_fill" fill-rule="evenodd" d="M 0.166218 14.347C 1.67904 6.17573 8.96591 0 17.7245 0C 27.5752 0 35.5724 7.82973 35.5724 17.5C 35.5724 27.1703 27.5752 35 17.7245 35C 8.96591 35 1.67904 28.8243 0.166218 20.653L 0 19.7552L 7.50423 19.7552L 7.66412 20.3064C 8.90962 24.6002 12.9352 27.7477 17.7245 27.7477C 22.1451 27.7477 25.915 25.0663 27.4488 21.2769L 23.2968 21.2769C 22.0746 23.0119 20.0272 24.1422 17.7245 24.1422C 13.9974 24.1422 10.9542 21.1683 10.9542 17.5C 10.9542 13.8317 13.9974 10.8578 17.7245 10.8578C 20.0272 10.8578 22.0746 11.9881 23.2968 13.7231L 27.4488 13.7231C 25.915 9.93373 22.1451 7.25225 17.7245 7.25225C 12.9352 7.25225 8.90962 10.3998 7.66412 14.6936L 7.50423 15.2448L 0 15.2448L 0.166218 14.347ZM 1.87471 13.7231L 6.35876 13.7231C 7.96425 9.0726 12.4429 5.73051 17.7245 5.73051C 23.2127 5.73051 27.8337 9.33898 29.2653 14.2743L 29.5468 15.2448L 22.4432 15.2448L 22.2188 14.8761C 21.3082 13.3796 19.632 12.3796 17.7245 12.3796C 14.836 12.3796 12.4942 14.6838 12.4942 17.5C 12.4942 20.3162 14.836 22.6204 17.7245 22.6204C 19.632 22.6204 21.3082 21.6204 22.2188 20.1239L 22.4432 19.7552L 29.5468 19.7552L 29.2653 20.7257C 27.8337 25.661 23.2127 29.2695 17.7245 29.2695C 12.4429 29.2695 7.96425 25.9274 6.35876 21.2769L 1.87471 21.2769C 3.60267 28.28 10.0381 33.4783 17.7245 33.4783C 26.7365 33.4783 34.0324 26.3182 34.0324 17.5C 34.0324 8.68182 26.7365 1.52174 17.7245 1.52174C 10.0381 1.52174 3.60267 6.72005 1.87471 13.7231Z"/>
<path id="path1_fill" d="M 6.42579 19.0724C 7.58484 19.0724 8.55381 18.7534 9.33269 18.1153C 10.1208 17.4682 10.5474 16.6342 10.6123 15.6134L 12.2118 15.6134C 12.1654 16.5157 11.878 17.3406 11.3494 18.088C 10.8209 18.8263 10.1162 19.4051 9.23533 19.8243C 8.36372 20.2436 7.42721 20.4532 6.42579 20.4532C 4.45076 20.4532 2.88372 19.7787 1.72467 18.4298C 0.57489 17.0808 0 15.267 0 12.9883L 0 12.4962C 0 11.0378 0.259628 9.7481 0.778883 8.627C 1.29814 7.5059 2.03993 6.64001 3.00426 6.02933C 3.97787 5.41865 5.11374 5.11331 6.41188 5.11331C 8.06237 5.11331 9.42078 5.59638 10.4871 6.56253C 11.5627 7.52869 12.1376 8.80018 12.2118 10.377L 10.6123 10.377C 10.5381 9.21945 10.1116 8.2852 9.33269 7.57426C 8.56308 6.86332 7.58948 6.50785 6.41188 6.50785C 4.90975 6.50785 3.74142 7.04105 2.9069 8.10746C 2.08166 9.17388 1.66904 10.6687 1.66904 12.5919L 1.66904 13.0704C 1.66904 14.9571 2.08166 16.4291 2.9069 17.4864C 3.74142 18.5437 4.91438 19.0724 6.42579 19.0724Z"/>
<path id="path2_fill" d="M 14.6319 12.5645C 14.6319 11.1426 14.9101 9.86203 15.4664 8.7227C 16.032 7.58337 16.8248 6.69925 17.8448 6.07034C 18.874 5.43232 20.0377 5.11331 21.3358 5.11331C 23.3387 5.11331 24.9614 5.80602 26.2039 7.19144C 27.4464 8.56775 28.0676 10.3952 28.0676 12.6739L 28.0676 13.0157C 28.0676 14.4467 27.7848 15.7364 27.2192 16.8849C 26.6628 18.0242 25.8747 18.9037 24.8547 19.5235C 23.8348 20.1433 22.6711 20.4532 21.3637 20.4532C 19.3701 20.4532 17.7474 19.7651 16.4956 18.3888C 15.2531 17.0033 14.6319 15.1713 14.6319 12.8926L 14.6319 12.5645ZM 16.3009 13.0157C 16.3009 14.7839 16.7645 16.2377 17.6918 17.377C 18.6283 18.5073 19.8523 19.0724 21.3637 19.0724C 22.8658 19.0724 24.0805 18.5073 25.0077 17.377C 25.9442 16.2377 26.4125 14.7384 26.4125 12.879L 26.4125 12.5645C 26.4125 11.4343 26.1992 10.3998 25.7727 9.46099C 25.3462 8.52218 24.7481 7.79757 23.9785 7.28715C 23.2089 6.76761 22.328 6.50785 21.3358 6.50785C 19.8523 6.50785 18.6422 7.08207 17.7057 8.23051C 16.7692 9.36984 16.3009 10.8646 16.3009 12.7149L 16.3009 13.0157Z"/>
<path id="path3_fill" d="M 33.3807 20.1798L 31.7117 20.1798L 31.7117 5.38675L 33.3807 5.38675L 33.3807 20.1798ZM 31.4196 1.10743C 31.4196 0.797531 31.5216 0.537764 31.7256 0.328127C 31.9296 0.109376 32.2078 0 32.5601 0C 32.9125 0 33.1906 0.109376 33.3946 0.328127C 33.6079 0.537764 33.7145 0.797531 33.7145 1.10743C 33.7145 1.41732 33.6079 1.67709 33.3946 1.88673C 33.1906 2.09637 32.9125 2.20118 32.5601 2.20118C 32.2078 2.20118 31.9296 2.09637 31.7256 1.88673C 31.5216 1.67709 31.4196 1.41732 31.4196 1.10743Z"/>
<path id="path4_fill" d="M 39.5005 5.38675L 39.5561 7.91606C 40.1218 7.00459 40.8265 6.31188 41.6703 5.83792C 42.514 5.35485 43.4459 5.11331 44.4659 5.11331C 46.0793 5.11331 47.2801 5.55992 48.0682 6.45316C 48.8564 7.34639 49.2551 8.68624 49.2644 10.4727L 49.2644 20.1798L 47.6092 20.1798L 47.6092 10.459C 47.6 9.13742 47.3125 8.15304 46.7469 7.5059C 46.1906 6.85876 45.2958 6.53519 44.0625 6.53519C 43.0333 6.53519 42.12 6.8542 41.3225 7.49223C 40.5344 8.12114 39.9502 8.97335 39.5701 10.0489L 39.5701 20.1798L 37.9149 20.1798L 37.9149 5.38675L 39.5005 5.38675Z"/>
<path id="path5_fill" d="M 56.1631 1.59962L 56.1631 5.38675L 59.2786 5.38675L 59.2786 6.7266L 56.1631 6.7266L 56.1631 16.5841C 56.1631 17.4044 56.3114 18.0151 56.6081 18.4161C 56.9141 18.8172 57.4195 19.0177 58.1242 19.0177C 58.4023 19.0177 58.852 18.9721 59.4733 18.881L 59.5428 20.2208C 59.107 20.3758 58.5136 20.4532 57.7625 20.4532C 56.622 20.4532 55.7922 20.1297 55.2729 19.4825C 54.7536 18.8263 54.494 17.8647 54.494 16.5977L 54.494 6.7266L 51.7262 6.7266L 51.7262 5.38675L 54.494 5.38675L 54.494 1.59962L 56.1631 1.59962Z"/>
<path id="path6_fill" d="M 68.5556 20.4532C 67.276 20.4532 66.117 20.1433 65.0785 19.5235C 64.0492 18.9037 63.2472 18.0424 62.6723 16.9395C 62.0974 15.8276 61.81 14.5834 61.81 13.2071L 61.81 12.6192C 61.81 11.1973 62.0881 9.91672 62.6445 8.77739C 63.2101 7.63806 63.9936 6.74483 64.995 6.09769C 65.9965 5.44143 67.0813 5.11331 68.2496 5.11331C 70.0763 5.11331 71.5228 5.72855 72.5891 6.95902C 73.6647 8.18038 74.2025 9.85292 74.2025 11.9766L 74.2025 12.8926L 63.4651 12.8926L 63.4651 13.2071C 63.4651 14.8842 63.9519 16.2833 64.9255 17.4044C 65.9084 18.5164 67.1416 19.0724 68.6252 19.0724C 69.5153 19.0724 70.2988 18.9129 70.9757 18.5938C 71.6619 18.2748 72.2832 17.7644 72.8395 17.0626L 73.8826 17.8419C 72.6587 19.5828 70.883 20.4532 68.5556 20.4532ZM 68.2496 6.50785C 66.9979 6.50785 65.9408 6.95902 65.0785 7.86137C 64.2254 8.76372 63.7062 9.97596 63.5207 11.4981L 72.5474 11.4981L 72.5474 11.3204C 72.5011 9.89849 72.0884 8.74093 71.3095 7.8477C 70.5307 6.95446 69.5107 6.50785 68.2496 6.50785Z"/>
<path id="path7_fill" d="M 83.0067 19.0724C 84.1658 19.0724 85.1347 18.7534 85.9136 18.1153C 86.7018 17.4682 87.1283 16.6342 87.1932 15.6134L 88.7927 15.6134C 88.7463 16.5157 88.4589 17.3406 87.9304 18.088C 87.4018 18.8263 86.6971 19.4051 85.8163 19.8243C 84.9446 20.2436 84.0081 20.4532 83.0067 20.4532C 81.0317 20.4532 79.4646 19.7787 78.3056 18.4298C 77.1558 17.0808 76.5809 15.267 76.5809 12.9883L 76.5809 12.4962C 76.5809 11.0378 76.8405 9.7481 77.3598 8.627C 77.8791 7.5059 78.6208 6.64001 79.5852 6.02933C 80.5588 5.41865 81.6947 5.11331 82.9928 5.11331C 84.6433 5.11331 86.0017 5.59638 87.068 6.56253C 88.1436 7.52869 88.7185 8.80018 88.7927 10.377L 87.1932 10.377C 87.119 9.21945 86.6925 8.2852 85.9136 7.57426C 85.144 6.86332 84.1704 6.50785 82.9928 6.50785C 81.4907 6.50785 80.3223 7.04105 79.4878 8.10746C 78.6626 9.17388 78.25 10.6687 78.25 12.5919L 78.25 13.0704C 78.25 14.9571 78.6626 16.4291 79.4878 17.4864C 80.3223 18.5437 81.4953 19.0724 83.0067 19.0724Z"/>
</defs>
</svg>
