<?xml version="1.0" encoding="utf-8"?>
<!-- Generator: Adobe Illustrator 19.0.0, SVG Export Plug-In . SVG Version: 6.00 Build 0)  -->
<svg version="1.1" id="Layer_1" xmlns="http://www.w3.org/2000/svg" xmlns:xlink="http://www.w3.org/1999/xlink" x="0px" y="0px"
	 viewBox="100 0 348.8 347.3" style="enable-background:new 0 0 548.8 457.3;" xml:space="preserve">
<style type="text/css">
	.st0{fill:url(#SVGID_1_);}
	.st1{fill:#B9DAFC;}
	.st2{fill:#9BC6FB;}
	.st3{fill:url(#SVGID_2_);}
	.st4{fill:url(#SVGID_3_);}
	.st5{fill:url(#SVGID_4_);}
	.st6{fill:url(#SVGID_5_);}
	.st7{fill:url(#SVGID_6_);}
	.st8{fill:#045CC7;}
	.st9{fill:#FFFFFF;}
	.st10{fill:#191C1E;}
	.st11{display:none;fill:url(#flag-2_1_);}
	.st12{display:none;fill:url(#flag-3_1_);}
	.st13{display:none;fill:url(#flag-4_1_);}
	.st14{display:none;fill:url(#flag-5_1_);}
	.st15{display:none;fill:url(#flag-6_1_);}
	.st16{fill:url(#flag-1_1_);}
	.st17{fill:#F7931A;}
	.st18{opacity:6.000000e-002;}
</style>
<g>
	<linearGradient id="SVGID_1_" gradientUnits="userSpaceOnUse" x1="0" y1="228.6481" x2="548.7917" y2="228.6481">
		<stop  offset="2.165098e-007" style="stop-color:#0071BC"/>
		<stop  offset="2.710578e-002" style="stop-color:#006DBA"/>
		<stop  offset="0.2979" style="stop-color:#014CA8"/>
		<stop  offset="0.5571" style="stop-color:#02349B"/>
		<stop  offset="0.7972" style="stop-color:#022694"/>
		<stop  offset="1" style="stop-color:#022191"/>
	</linearGradient>
</g>
<path class="st1" d="M149.7,182.2c0,0.9-0.7,1.6-1.6,1.6h-9.6V181l-0.3-0.4h9.9C149,180.6,149.7,181.3,149.7,182.2z"/>
<path class="st1" d="M339.7,181.6c0,0.9-0.7,1.6-1.6,1.6H324v-2.1l-0.7-1h14.8C339,180.1,339.7,180.8,339.7,181.6z"/>
<path class="st1" d="M214.2,173.1l-2.3,3.2H204c-0.9,0-1.6-0.7-1.6-1.6v0c0-0.9,0.7-1.6,1.6-1.6H214.2z"/>
<path class="st1" d="M394.1,183.6v3.2H388c-0.9,0-1.6-0.7-1.6-1.6c0-0.9,0.7-1.6,1.6-1.6H394.1z"/>
<path class="st1" d="M331.6,175.6c0,0.9-0.7,1.6-1.6,1.6h-8.6l-2.2-3.1H330C330.9,174.1,331.6,174.8,331.6,175.6z"/>
<path class="st2" d="M241.6,125.5c0,1.1-0.9,1.9-1.9,1.9h-8.4v-3.6l-0.1-0.2h8.5C240.7,123.6,241.6,124.5,241.6,125.5z"/>
<path class="st1" d="M156.3,188.2c0,0.9-0.7,1.6-1.6,1.6h-16.2v-3.3h16.2C155.6,186.6,156.3,187.3,156.3,188.2z"/>
<path class="st2" d="M248.1,131.1c0,1-0.8,1.8-1.8,1.8h-15v-3.6h15C247.3,129.3,248.1,130.1,248.1,131.1z"/>
<path class="st2" d="M306,116.9l-2.4,3.4h-6.3c-0.9,0-1.7-0.8-1.7-1.7c0-0.9,0.8-1.7,1.7-1.7H306z"/>
<linearGradient id="SVGID_2_" gradientUnits="userSpaceOnUse" x1="266.1483" y1="183.3388" x2="266.1483" y2="89.5488">
	<stop  offset="0" style="stop-color:#73B2FF"/>
	<stop  offset="1" style="stop-color:#C7E0FF"/>
</linearGradient>
<path class="st3" d="M309,90v22.6l-3.2,4.5h-7.8c-0.8,0-1.5,0.7-1.5,1.5c0,0.8,0.7,1.5,1.5,1.5h5.6l-2.7,3.8v59.5h-69.7v-50.6h12.4
	c0.8,0,1.5-0.7,1.5-1.5s-0.7-1.5-1.5-1.5h-12.4v-3h6.6c0.8,0,1.5-0.7,1.5-1.5s-0.7-1.5-1.5-1.5h-6.7l-7.9-11.1V90
	c0-0.3,0.2-0.5,0.5-0.5h23.9c0.3,0,0.5,0.2,0.5,0.5v16.8c0,0.3,0.2,0.5,0.5,0.5h5c0.3,0,0.5-0.2,0.5-0.5V90c0-0.3,0.2-0.5,0.5-0.5
	h23c0.3,0,0.5,0.2,0.5,0.5v16.8c0,0.3,0.2,0.5,0.5,0.5h5c0.3,0,0.5-0.2,0.5-0.5V90c0-0.3,0.2-0.5,0.5-0.5h23.9
	C308.8,89.5,309,89.8,309,90z"/>
<linearGradient id="SVGID_3_" gradientUnits="userSpaceOnUse" x1="266.1337" y1="272.1808" x2="266.1337" y2="164.1009">
	<stop  offset="0" style="stop-color:#73B2FF"/>
	<stop  offset="1" style="stop-color:#C7E0FF"/>
</linearGradient>
<path class="st4" d="M301.1,164.6v16.9c0,0.3-0.2,0.5-0.5,0.5h-5c-0.3,0-0.5-0.2-0.5-0.5v-16.9c0-0.3-0.2-0.5-0.5-0.5h-25
	c-0.3,0-0.5,0.2-0.5,0.5v16.9c0,0.3-0.2,0.5-0.5,0.5h-5c-0.3,0-0.5-0.2-0.5-0.5v-16.9c0-0.3-0.2-0.5-0.5-0.5h-25
	c-0.3,0-0.5,0.2-0.5,0.5v16.9c0,0.3-0.2,0.5-0.5,0.5h-5c-0.3,0-0.5-0.2-0.5-0.5v-16.9c0-0.3-0.2-0.5-0.5-0.5h-24.9v108.1h120.8
	V164.1h-24.9C301.4,164.1,301.1,164.3,301.1,164.6z"/>
<linearGradient id="SVGID_4_" gradientUnits="userSpaceOnUse" x1="269.1925" y1="425.38" x2="269.1925" y2="272.109">
	<stop  offset="0" style="stop-color:#033CAA;stop-opacity:0"/>
	<stop  offset="1" style="stop-color:#0064E0"/>
</linearGradient>
<path class="st5" d="M451.9,425.4H86.5c-0.6,0-1-0.4-1-1V273.1c0-0.6,0.4-1,1-1h365.5c0.6,0,1,0.4,1,1v151.3
	C452.9,424.9,452.5,425.4,451.9,425.4z"/>
<linearGradient id="SVGID_5_" gradientUnits="userSpaceOnUse" x1="130.4784" y1="209.4388" x2="216.2184" y2="209.4388">
	<stop  offset="0" style="stop-color:#C9E2FF"/>
	<stop  offset="1" style="stop-color:#E8F3FF"/>
</linearGradient>
<path class="st6" d="M216.2,147.3v22.6l-2.4,3.4h-9.5c-0.8,0-1.5,0.7-1.5,1.5v0c0,0.8,0.7,1.5,1.5,1.5h7.3l-3.5,4.9v91h-69.7v-82.4
	h15c0.8,0,1.5-0.7,1.5-1.5s-0.7-1.5-1.5-1.5h-15v-3h9.1c0.8,0,1.5-0.7,1.5-1.5s-0.7-1.5-1.5-1.5h-9.4l-7.7-10.9v-22.6
	c0-0.3,0.2-0.5,0.5-0.5h23.9c0.3,0,0.5,0.2,0.5,0.5v16.9c0,0.3,0.2,0.5,0.5,0.5h5c0.3,0,0.5-0.2,0.5-0.5v-16.9
	c0-0.3,0.2-0.5,0.5-0.5h23c0.3,0,0.5,0.2,0.5,0.5v16.9c0,0.3,0.2,0.5,0.5,0.5h5c0.3,0,0.5-0.2,0.5-0.5v-16.9c0-0.3,0.2-0.5,0.5-0.5
	h23.9C216,146.8,216.2,147,216.2,147.3z"/>
<linearGradient id="SVGID_6_" gradientUnits="userSpaceOnUse" x1="316.3584" y1="209.4388" x2="402.0984" y2="209.4388">
	<stop  offset="0" style="stop-color:#E8F3FF"/>
	<stop  offset="1" style="stop-color:#C9E2FF"/>
</linearGradient>
<path class="st7" d="M402.1,147.3v22.6l-8,11.3v2.6h-5.8c-0.8,0-1.5,0.7-1.5,1.5s0.7,1.5,1.5,1.5h5.8v85.4h-69.7v-89h13.4
	c0.8,0,1.5-0.7,1.5-1.5s-0.7-1.5-1.5-1.5h-14.1l-2.1-3h8.3c0.8,0,1.5-0.7,1.5-1.5s-0.7-1.5-1.5-1.5h-10.5l-3-4.3v-22.6
	c0-0.3,0.2-0.5,0.5-0.5h23.9c0.3,0,0.5,0.2,0.5,0.5v16.4c0,0.6,0.5,1,1,1h4.5c0.3,0,0.5-0.2,0.5-0.5v-16.9c0-0.3,0.2-0.5,0.5-0.5h23
	c0.3,0,0.5,0.2,0.5,0.5v16.9c0,0.3,0.2,0.5,0.5,0.5h5c0.3,0,0.5-0.2,0.5-0.5v-16.9c0-0.3,0.2-0.5,0.5-0.5h23.9
	C401.9,146.8,402.1,147,402.1,147.3z"/>
<path class="st8" d="M266.1,194.9L266.1,194.9c-16.8,0-30.4,13.6-30.4,30.4v46.8h60.8v-46.8C296.5,208.5,282.9,194.9,266.1,194.9z"
	/>
<circle class="st9" cx="266.1" cy="253.7" r="11.8"/>
<circle class="st9" cx="266.1" cy="220.6" r="11.8"/>
<path class="st10" d="M173.4,197.5L173.4,197.5c-1.9,0-3.4,1.5-3.4,3.4v4h6.7v-4C176.7,199,175.2,197.5,173.4,197.5z"/>
<path class="st10" d="M173.4,241.1L173.4,241.1c-1.9,0-3.4,1.5-3.4,3.4v4h6.7v-4C176.7,242.6,175.2,241.1,173.4,241.1z"/>
<path class="st10" d="M359.2,197.5L359.2,197.5c-1.9,0-3.4,1.5-3.4,3.4v4h6.7v-4C362.6,199,361.1,197.5,359.2,197.5z"/>
<path class="st10" d="M359.2,241.1L359.2,241.1c-1.9,0-3.4,1.5-3.4,3.4v4h6.7v-4C362.6,242.6,361.1,241.1,359.2,241.1z"/>
<path class="st10" d="M223.3,197.5L223.3,197.5c-1.9,0-3.4,1.5-3.4,3.4v4h6.7v-4C226.6,199,225.1,197.5,223.3,197.5z"/>
<path class="st10" d="M309,197.5L309,197.5c-1.9,0-3.4,1.5-3.4,3.4v4h6.7v-4C312.4,199,310.9,197.5,309,197.5z"/>
<path class="st10" d="M266.3,134.4L266.3,134.4c-1.9,0-3.4,1.5-3.4,3.4v4h6.7v-4C269.7,135.9,268.2,134.4,266.3,134.4z"/>
<linearGradient id="flag-2_1_" gradientUnits="userSpaceOnUse" x1="293.5356" y1="59.1603" x2="326.3578" y2="59.1603">
	<stop  offset="1.000224e-004" style="stop-color:#90BEF5"/>
	<stop  offset="1" style="stop-color:#C0DAFA"/>
	<stop  offset="1" style="stop-color:#C0DAFA"/>
</linearGradient>
<path id="flag-2" class="st11" d="M321.1,62.5c-1.8,0.8-4.5,1.8-8.7,1.4c-3.7-0.3-6.4-3.1-10.9-0.3c-2.2,1.4-4.1,2.3-5.5,2.7
	c-1.5,0.4-2.4,0.4-2.4,0.4V53.5c5,0.4,6-0.2,10.7-1.7c4.7-1.5,9.6,2.4,12.5,3.7c3,1.3,4.2,1,6.1,0c1.7-0.9,2.4-1.9,3.5-3
	C325.3,57.1,324.4,61,321.1,62.5z"/>
<linearGradient id="flag-3_1_" gradientUnits="userSpaceOnUse" x1="293.5356" y1="59.4983" x2="328.2798" y2="59.4983">
	<stop  offset="1.000224e-004" style="stop-color:#90BEF5"/>
	<stop  offset="1" style="stop-color:#C0DAFA"/>
	<stop  offset="1" style="stop-color:#C0DAFA"/>
</linearGradient>
<path id="flag-3" class="st12" d="M319.4,63c-6.7,0.5-7.8-0.9-9.7-0.5c-3.7,0.9-7.2,4.1-12.1,4.6c-1.5,0.2-4.1-0.4-4.1-0.4V53.5
	c7.6,2.1,10.7-1,17.9-1.7c5.2-0.5,8.8,4.6,11,5.4c1.5,0.6,2.3,1,5.9,1.2C327.5,59.7,323.6,62.6,319.4,63z"/>
<linearGradient id="flag-4_1_" gradientUnits="userSpaceOnUse" x1="293.5356" y1="60.3152" x2="329.3173" y2="60.3152">
	<stop  offset="1.000224e-004" style="stop-color:#90BEF5"/>
	<stop  offset="1" style="stop-color:#C0DAFA"/>
	<stop  offset="1" style="stop-color:#C0DAFA"/>
</linearGradient>
<path id="flag-4" class="st13" d="M314.1,61.5c-2.4-0.2-6.3,5.8-13.9,5.9c-4.1,0.1-6.6-0.7-6.6-0.7V53.5c6.1-0.5,7.8,2.3,11,1.7
	c2.6-0.5,6.5-2.8,10.9-1.8c3.8,0.9,4.7,2.2,8,5.2c2.2,1.9,3.8,2.3,5.9,3.3c-2.3,0.6-5.4,0.8-8.9,0.6
	C316.2,62.2,316.3,61.7,314.1,61.5z"/>
<linearGradient id="flag-5_1_" gradientUnits="userSpaceOnUse" x1="293.5356" y1="60.5092" x2="330.9411" y2="60.5092">
	<stop  offset="1.000224e-004" style="stop-color:#90BEF5"/>
	<stop  offset="1" style="stop-color:#C0DAFA"/>
	<stop  offset="1" style="stop-color:#C0DAFA"/>
</linearGradient>
<path id="flag-5" class="st14" d="M312.2,66.1c-2.4,1.9-6.3,2.4-11.5,1.9c-3.3-0.3-7.2-1.3-7.2-1.3V53.5c13.6-2.5,12.5,2.7,19.1,2.8
	c1.7,0,5.4-2.8,9.6-1.7c3.1,0.8,7.8,6.7,8.7,7.9c-4.8-1-4.9-1.3-8.3-1.5C318.4,60.9,315.4,63.6,312.2,66.1z"/>
<linearGradient id="flag-6_1_" gradientUnits="userSpaceOnUse" x1="293.5356" y1="59.9773" x2="329.5995" y2="59.9773">
	<stop  offset="1.000224e-004" style="stop-color:#90BEF5"/>
	<stop  offset="1" style="stop-color:#C0DAFA"/>
	<stop  offset="1" style="stop-color:#C0DAFA"/>
</linearGradient>
<path id="flag-6" class="st15" d="M311.2,67c-4.4,0.4-5.9-1.3-10.8-1.2c-4,0.1-6.9,0.9-6.9,0.9V53.5c14-2.4,13.9,2.4,21.9,2.8
	c2.6,0.1,8-3.4,14.2,2.1c-3-0.4-6.3-0.7-10.4,2.8C315.8,64.3,313.5,66.8,311.2,67z"/>
<rect x="264.6" y="53.8" class="st9" width="3" height="35.7"/>
<linearGradient id="flag-1_1_" gradientUnits="userSpaceOnUse" x1="269.662" y1="60.3088" x2="303.6669" y2="60.3088">
	<stop  offset="1.000224e-004" style="stop-color:#90BEF5"/>
	<stop  offset="1" style="stop-color:#C0DAFA"/>
	<stop  offset="1" style="stop-color:#C0DAFA"/>
</linearGradient>
<path id="flag-1" class="st16" d="M296.7,61.1c-0.7,1.8-2.4,4.1-5.8,4.9c-6.4,1.7-6.8-1.7-12.2-1.7c-4.1,0-9,3.2-9,3.2V54.3
	c2.6-0.7,6.5-1.3,9.1-1.2c6.2,0.1,8.8,4.2,13.8,4.2c2.4,0,4.5-1.3,6.4-2.2c1.6-0.7,2.9-1.1,4.6-1.4
	C300.5,55.6,298.5,56.3,296.7,61.1z"/>
<path class="st1" d="M149.1,182.2c0,0.8-0.7,1.5-1.5,1.5h-9.1v-2.6l-0.3-0.4h9.4C148.4,180.7,149.1,181.4,149.1,182.2z"/>
<path class="st1" d="M154.9,188.2c0,0.8-0.7,1.5-1.5,1.5h-15v-3h15C154.3,186.7,154.9,187.4,154.9,188.2z"/>
<path class="st1" d="M213.8,173.2l-2.1,3h-7.3c-0.8,0-1.5-0.7-1.5-1.5v0c0-0.8,0.7-1.5,1.5-1.5H213.8z"/>
<path class="st1" d="M331.4,175.6c0,0.8-0.7,1.5-1.5,1.5h-8.3l-2.1-3h10.5C330.7,174.1,331.4,174.8,331.4,175.6z"/>
<path class="st1" d="M339.3,181.6c0,0.8-0.7,1.5-1.5,1.5h-13.4v-2l-0.7-1h14.1C338.6,180.1,339.3,180.8,339.3,181.6z"/>
<path class="st2" d="M239.4,125.2c0,0.8-0.7,1.5-1.5,1.5h-6.6v-2.8l-0.1-0.2h6.7C238.7,123.7,239.4,124.4,239.4,125.2z"/>
<path class="st2" d="M245.2,131.2c0,0.8-0.7,1.5-1.5,1.5h-12.4v-3h12.4C244.5,129.7,245.2,130.4,245.2,131.2z"/>
<path class="st2" d="M305.8,117.1l-2.1,3h-5.6c-0.8,0-1.5-0.7-1.5-1.5c0-0.8,0.7-1.5,1.5-1.5H305.8z"/>
<path class="st1" d="M394.1,183.7v3h-5.8c-0.8,0-1.5-0.7-1.5-1.5s0.7-1.5,1.5-1.5H394.1z"/>
<g>
	<path class="st17" d="M269.1,220.4c-0.1-0.1-0.2-0.1-0.4-0.1h-0.2v-1c0-0.7-0.2-1.2-0.7-1.7c-0.5-0.5-1-0.7-1.7-0.7
		c-0.7,0-1.2,0.2-1.7,0.7c-0.5,0.5-0.7,1-0.7,1.7v1h-0.2c-0.1,0-0.3,0-0.4,0.1c-0.1,0.1-0.1,0.2-0.1,0.4v3.1c0,0.1,0,0.3,0.1,0.4
		c0.1,0.1,0.2,0.1,0.4,0.1h5.1c0.1,0,0.3,0,0.4-0.1c0.1-0.1,0.1-0.2,0.1-0.4v-3.1C269.2,220.6,269.2,220.5,269.1,220.4z
		 M267.5,220.2h-2.7v-1c0-0.4,0.1-0.7,0.4-1c0.3-0.3,0.6-0.4,1-0.4c0.4,0,0.7,0.1,1,0.4c0.3,0.3,0.4,0.6,0.4,1V220.2z"/>
</g>
<g>
	<path class="st17" d="M269.1,253.5c-0.1-0.1-0.2-0.1-0.4-0.1h-0.2v-1c0-0.7-0.2-1.2-0.7-1.7c-0.5-0.5-1-0.7-1.7-0.7
		c-0.7,0-1.2,0.2-1.7,0.7c-0.5,0.5-0.7,1-0.7,1.7v1h-0.2c-0.1,0-0.3,0-0.4,0.1c-0.1,0.1-0.1,0.2-0.1,0.4v3.1c0,0.1,0,0.3,0.1,0.4
		c0.1,0.1,0.2,0.1,0.4,0.1h5.1c0.1,0,0.3,0,0.4-0.1c0.1-0.1,0.1-0.2,0.1-0.4v-3.1C269.2,253.8,269.2,253.6,269.1,253.5z
		 M267.5,253.4h-2.7v-1c0-0.4,0.1-0.7,0.4-1c0.3-0.3,0.6-0.4,1-0.4c0.4,0,0.7,0.1,1,0.4c0.3,0.3,0.4,0.6,0.4,1V253.4z"/>
</g>
<g id="cloud-2" class="st18">
	<path class="st9" d="M193.4,43.8L193.4,43.8c0-3.4-2.7-6.1-6.1-6.1h-48.8c-3.4,0-6.1,2.7-6.1,6.1v0c0,3.4-2.7,6.1-6.1,6.1h-5
		c-3.4,0-6.1,2.7-6.1,6.1v3.5c0,3.4,2.7,6.1,6.1,6.1h86.5c3.4,0,6.1-2.7,6.1-6.1V56c0-3.4-2.7-6.1-6.1-6.1h-8.3
		C196.1,49.9,193.4,47.1,193.4,43.8z"/>
</g>
<g id="cloud-3" class="st18">
	<path class="st9" d="M424.1,112.8L424.1,112.8c0-2.2-1.8-3.9-3.9-3.9h-31.5c-2.2,0-3.9,1.8-3.9,3.9v0c0,2.2-1.8,3.9-3.9,3.9h-3.3
		c-2.2,0-3.9,1.8-3.9,3.9v2.3c0,2.2,1.8,3.9,3.9,3.9h55.8c2.2,0,3.9-1.8,3.9-3.9v-2.3c0-2.2-1.8-3.9-3.9-3.9H428
		C425.8,116.8,424.1,115,424.1,112.8z"/>
</g>
<g id="cloud-1" class="st18">
	<path class="st9" d="M60.8,129.5L60.8,129.5c0-2.1,1.7-3.8,3.8-3.8h30.1c2.1,0,3.8,1.7,3.8,3.8l0,0c0,2.1,1.7,3.8,3.8,3.8h3.1
		c2.1,0,3.8,1.7,3.8,3.8v2.2c0,2.1-1.7,3.8-3.8,3.8H51.9c-2.1,0-3.8-1.7-3.8-3.8V137c0-2.1,1.7-3.8,3.8-3.8H57
		C59.1,133.3,60.8,131.6,60.8,129.5z"/>
</g>
</svg>
