<svg width="16" height="16" viewBox="0 0 16 16" version="1.1" xmlns="http://www.w3.org/2000/svg" xmlns:xlink="http://www.w3.org/1999/xlink">
<title>Vector</title>
<desc>Created using Figma</desc>
<g id="Canvas" transform="translate(-6482 -407)">
<g id="Vector">
<use xlink:href="#path0_fill" transform="translate(6482 407)" fill="#A9B3BB"/>
</g>
</g>
<defs>
<path id="path0_fill" fill-rule="evenodd" d="M 15.6084 13.7175L 12.1325 10.2417C 12.114 10.2232 12.0924 10.2103 12.0731 10.1931C 12.757 9.15561 13.1562 7.91371 13.1562 6.57816C 13.1562 2.94512 10.2111 0 6.57809 0C 2.94512 0 0 2.94512 0 6.57809C 0 10.211 2.94506 13.1562 6.57803 13.1562C 7.91364 13.1562 9.15549 12.757 10.193 12.0731C 10.2102 12.0923 10.223 12.114 10.2415 12.1324L 13.7175 15.6084C 14.2396 16.1305 15.0862 16.1305 15.6084 15.6084C 16.1305 15.0863 16.1305 14.2397 15.6084 13.7175ZM 6.57809 10.8758C 4.20448 10.8758 2.28035 8.95164 2.28035 6.57809C 2.28035 4.20448 4.20455 2.28035 6.57809 2.28035C 8.95158 2.28035 10.8758 4.20455 10.8758 6.57809C 10.8758 8.95164 8.95158 10.8758 6.57809 10.8758Z"/>
</defs>
</svg>
