<svg width="232" height="232" viewBox="0 0 232 232" fill="none" xmlns="http://www.w3.org/2000/svg">
<rect width="230.438" height="230.438" fill="black" fill-opacity="0" transform="translate(0.691406 0.851562)"/>
<rect x="103.166" y="123.73" width="45.2204" height="54.3867" fill="#F5F5F5"/>
<rect width="230.438" height="230.438" fill="black" fill-opacity="0" transform="translate(0.691406 0.851562)"/>
<rect width="230.438" height="230.438" fill="black" fill-opacity="0" transform="translate(0.691406 0.851562)"/>
<rect width="230.438" height="230.438" fill="black" fill-opacity="0" transform="translate(0.691406 0.851562)"/>
<circle cx="115.911" cy="116.071" r="115.219" fill="#F7F9FA"/>
<path d="M96.8042 77.9204C96.8042 66.6516 105.972 57.4839 117.241 57.4839C128.51 57.4839 137.677 66.6516 137.677 77.9204V94.1287H146.134V77.9204C146.134 61.9886 133.173 49.0273 117.241 49.0273C101.309 49.0273 88.3477 61.9886 88.3477 77.9204V94.1287H96.8042V77.9204Z" fill="#02182B" fill-opacity="0.9"/>
<path d="M72.8574 94.1328V173.06H161.651V94.1328H72.8574ZM121.482 135.868V150.965H113.026V135.868C109.693 134.284 107.388 130.888 107.388 126.953C107.388 121.504 111.805 117.087 117.254 117.087C122.703 117.087 127.12 121.504 127.12 126.953C127.12 130.888 124.815 134.285 121.482 135.868Z" fill="#1B2F40"/>
</svg>
