<svg width="43" height="46" viewBox="0 0 43 46" version="1.1" xmlns="http://www.w3.org/2000/svg" xmlns:xlink="http://www.w3.org/1999/xlink">
<g id="Canvas" fill="none">
<g id="Group">
<g id="Vector">
<path d="M 2.86293 11.9178C 3.63889 11.8575 4.34627 11.4616 4.80544 10.8303L 11.7846 1.18188C 11.9985 0.885957 11.9665 0.477479 11.7071 0.218081C 11.4477 -0.0405721 11.0392 -0.0726243 10.7433 0.140559L 1.09336 7.12195C 0.464243 7.57962 0.0684376 8.287 0.00806042 9.06296C -0.0523167 9.83892 0.228697 10.5985 0.778055 11.1478C 1.27822 11.6487 1.9528 11.926 2.65422 11.926C 2.72354 11.926 2.79286 11.923 2.86293 11.9178ZM 1.49438 9.17924C 1.52047 8.8386 1.69489 8.52777 1.9692 8.328L 7.8556 4.06955L 3.59864 9.95446C 3.39738 10.231 3.08655 10.4047 2.7459 10.4315C 2.40675 10.4539 2.07355 10.3361 1.8313 10.0938C 1.59128 9.85308 1.46755 9.51914 1.49438 9.17924Z" transform="translate(20.0527 17.3711)" fill="#045CC7"/>
</g>
<g id="Vector_2">
<path d="M 22.5421 14.5829C 22.5346 14.5673 22.5346 14.5509 22.5264 14.5352C 22.5175 14.5203 22.5033 14.5121 22.4936 14.498C 21.74 13.2055 20.8485 12.0031 19.8363 10.9134L 21.4374 9.31299L 22.4914 10.367L 25.6533 7.20426L 22.4914 4.04229L 19.3287 7.20426L 20.3834 8.259L 18.7823 9.85937C 17.6925 8.84712 16.4909 7.95488 15.1977 7.20128C 15.1835 7.19159 15.1753 7.17743 15.1604 7.16848C 15.1447 7.15954 15.1283 7.16028 15.1127 7.15208C 12.8072 5.82379 10.2169 4.939 7.45523 4.61475L 7.45523 3.72698L 8.57332 3.72698C 9.60122 3.72698 10.4368 2.89139 10.4368 1.86349C 10.4368 0.83559 9.60048 0 8.57258 0L 1.864 0C 0.836101 0 0.000511274 0.83559 0.000511274 1.86349C 0.000511274 2.89139 0.836101 3.72698 1.864 3.72698L 2.9821 3.72698L 2.9821 4.58866C 2.17707 4.67438 1.37353 4.80557 0.57894 4.98745C 0.177916 5.07913 -0.0732819 5.47941 0.0191473 5.88044C 0.110831 6.28146 0.511109 6.5334 0.912133 6.44023C 1.5979 6.28295 2.29037 6.16443 2.98434 6.08468L 3.78415 6.02281C 4.02864 6.00417 4.25375 5.99076 4.47289 5.98032L 4.47289 7.45397C 4.47289 7.86617 4.80609 8.19937 5.21829 8.19937C 5.63049 8.19937 5.96369 7.86617 5.96369 7.45397L 5.96369 5.98554C 8.76713 6.11449 11.4088 6.86734 13.7576 8.10619L 13.0226 9.37858C 12.8169 9.73563 12.9391 10.1911 13.2954 10.3968C 13.4124 10.4646 13.5406 10.4967 13.6674 10.4967C 13.9253 10.4967 14.1757 10.3633 14.3136 10.124L 15.0464 8.85457C 17.3787 10.3342 19.36 12.3154 20.8396 14.6478L 19.5702 15.3805C 19.2146 15.5863 19.0924 16.0417 19.2988 16.3987C 19.4375 16.638 19.6872 16.7714 19.9451 16.7714C 20.0718 16.7714 20.2 16.7394 20.3171 16.6715L 21.5894 15.9366C 22.8454 18.3189 23.6005 21.0038 23.7131 23.852L 22.2409 23.852C 21.8287 23.852 21.4955 24.1852 21.4955 24.5974C 21.4955 25.0096 21.8287 25.3428 22.2409 25.3428L 23.7131 25.3428C 23.6005 28.1909 22.8454 30.8758 21.5894 33.2581L 20.3171 32.5232C 19.9608 32.3174 19.5046 32.4382 19.2988 32.796C 19.0931 33.153 19.2154 33.6085 19.5717 33.8142L 20.8411 34.5469C 19.3615 36.8793 17.3802 38.8605 15.0478 40.3401L 14.3151 39.0707C 14.1086 38.7129 13.6517 38.5914 13.2969 38.7979C 12.9399 39.0036 12.8176 39.4598 13.0241 39.8161L 13.759 41.0885C 11.4103 42.3274 8.76862 43.0802 5.96518 43.2092L 5.96518 41.7422C 5.96518 41.33 5.63199 40.9968 5.21978 40.9968C 4.80758 40.9968 4.47438 41.33 4.47438 41.7422L 4.47438 43.2151C 3.28399 43.1741 2.08986 43.0251 0.914368 42.7552C 0.513344 42.6591 0.113066 42.914 0.0213823 43.315C -0.0710469 43.716 0.180153 44.1163 0.581176 44.208C 2.06899 44.5509 3.58885 44.7238 5.09679 44.7238C 5.13331 44.7238 5.16835 44.7216 5.20487 44.7208C 5.21009 44.7208 5.21382 44.7238 5.21829 44.7238C 5.22425 44.7238 5.22947 44.7201 5.23543 44.7201C 8.81856 44.6955 12.1803 43.728 15.0888 42.0568C 15.1119 42.0464 15.1365 42.0411 15.1589 42.0277C 15.1738 42.0188 15.182 42.0046 15.1962 41.9949C 18.2068 40.2403 20.7225 37.7275 22.4809 34.7191C 22.4951 34.699 22.513 34.6833 22.5257 34.661C 22.5346 34.6453 22.5339 34.6289 22.5413 34.6133C 24.2438 31.6615 25.2225 28.2431 25.2225 24.5981C 25.2225 20.9531 24.2438 17.5347 22.5421 14.5829ZM 22.4906 6.15027L 23.5446 7.20426L 22.4906 8.259L 21.4359 7.20426L 22.4906 6.15027ZM 4.47289 4.48804L 4.47289 2.23619L 1.864 2.23619C 1.65902 2.23619 1.49131 2.06848 1.49131 1.86349C 1.49131 1.65851 1.65902 1.49079 1.864 1.49079L 8.57258 1.49079C 8.77756 1.49079 8.94527 1.65851 8.94527 1.86349C 8.94527 2.06848 8.77756 2.23619 8.57258 2.23619L 5.96369 2.23619L 5.96369 4.48804C 5.70429 4.4776 5.45682 4.47238 5.21829 4.47238C 5.19742 4.47238 5.17357 4.47387 5.1527 4.47387C 5.13406 4.47387 5.11543 4.47238 5.09679 4.47238C 4.97455 4.47238 4.8523 4.48058 4.73006 4.48282C 4.64359 4.48505 4.56234 4.48431 4.47289 4.48804Z" transform="translate(17.0703 0.972656)" fill="#045CC7"/>
</g>
<g id="Vector_3">
<path d="M 4.47238 0L 0.745396 0C 0.333192 0 1.64921e-07 0.333192 1.64921e-07 0.745397C 1.64921e-07 1.1576 0.333192 1.49079 0.745396 1.49079L 4.47238 1.49079C 4.88459 1.49079 5.21778 1.1576 5.21778 0.745397C 5.21778 0.333192 4.88459 0 4.47238 0Z" transform="translate(11.1074 11.4082)" fill="#045CC7"/>
</g>
<g id="Vector_4">
<path d="M 8.19937 0L 0.745397 0C 0.333193 0 1.64921e-07 0.333192 1.64921e-07 0.745397C 1.64921e-07 1.1576 0.333193 1.49079 0.745397 1.49079L 8.19937 1.49079C 8.61157 1.49079 8.94476 1.1576 8.94476 0.745397C 8.94476 0.333192 8.61157 0 8.19937 0Z" transform="translate(7.38086 16.626)" fill="#045CC7"/>
</g>
<g id="Vector_5">
<path d="M 11.9264 0L 0.745397 0C 0.333193 0 1.64921e-07 0.333192 1.64921e-07 0.745397C 1.64921e-07 1.1576 0.333193 1.49079 0.745397 1.49079L 11.9264 1.49079C 12.3386 1.49079 12.6717 1.1576 12.6717 0.745397C 12.6717 0.333192 12.3386 0 11.9264 0Z" transform="translate(3.6543 21.8438)" fill="#045CC7"/>
</g>
<g id="Vector_6">
<path d="M 14.9079 0L 0.745397 0C 0.333192 0 -1.27956e-08 0.333192 -1.27956e-08 0.745397C -1.27956e-08 1.1576 0.333192 1.49079 0.745397 1.49079L 14.9079 1.49079C 15.3201 1.49079 15.6533 1.1576 15.6533 0.745397C 15.6533 0.333192 15.3201 0 14.9079 0Z" transform="translate(0.671875 27.0615)" fill="#045CC7"/>
</g>
<g id="Vector_7">
<path d="M 10.4356 0L 0.745397 0C 0.333193 0 1.64921e-07 0.333192 1.64921e-07 0.745397C 1.64921e-07 1.1576 0.333193 1.49079 0.745397 1.49079L 10.4356 1.49079C 10.8478 1.49079 11.181 1.1576 11.181 0.745397C 11.181 0.333192 10.8478 0 10.4356 0Z" transform="translate(5.14453 32.2793)" fill="#045CC7"/>
</g>
<g id="Vector_8">
<path d="M 5.96318 0L 0.745397 0C 0.333193 0 1.64921e-07 0.333192 1.64921e-07 0.745397C 1.64921e-07 1.1576 0.333193 1.49079 0.745397 1.49079L 5.96318 1.49079C 6.37538 1.49079 6.70857 1.1576 6.70857 0.745397C 6.70857 0.333192 6.37538 0 5.96318 0Z" transform="translate(9.61719 37.4971)" fill="#045CC7"/>
</g>
</g>
</g>
</svg>

