<svg width="888" height="190" viewBox="0 0 888 190" version="1.1" xmlns="http://www.w3.org/2000/svg" xmlns:xlink="http://www.w3.org/1999/xlink">
<title>Group 21</title>
<desc>Created using Figma</desc>
<g id="Canvas" transform="translate(837 35)">
<g id="Group 21">
<g id="Vector (Stroke)">
<use xlink:href="#path0_fill" transform="translate(-836.985 -34.5462)" fill="#FFFFFF"/>
<use xlink:href="#path0_fill" transform="translate(-836.985 -34.5462)" fill="#FFFFFF"/>
</g>
<g id="cointec">
<use xlink:href="#path1_fill" transform="translate(-595.992 -25.6862)" fill="#FFFFFF"/>
<use xlink:href="#path2_fill" transform="translate(-595.992 -25.6862)" fill="#FFFFFF"/>
<use xlink:href="#path3_fill" transform="translate(-595.992 -25.6862)" fill="#FFFFFF"/>
<use xlink:href="#path4_fill" transform="translate(-595.992 -25.6862)" fill="#FFFFFF"/>
<use xlink:href="#path5_fill" transform="translate(-595.992 -25.6862)" fill="#FFFFFF"/>
<use xlink:href="#path6_fill" transform="translate(-595.992 -25.6862)" fill="#FFFFFF"/>
<use xlink:href="#path7_fill" transform="translate(-595.992 -25.6862)" fill="#FFFFFF"/>
</g>
</g>
</g>
<defs>
<path id="path0_fill" fill-rule="evenodd" d="M 0.900913 77.4769C 9.10054 33.3502 48.5959 0 96.0683 0C 149.459 0 192.805 42.2822 192.805 94.5037C 192.805 146.725 149.459 189.007 96.0683 189.007C 48.5959 189.007 9.10054 155.657 0.900913 111.531L 0 106.682L 40.6734 106.682L 41.5401 109.659C 48.2908 132.847 70.1097 149.844 96.0683 149.844C 120.028 149.844 140.461 135.363 148.774 114.9L 126.27 114.9C 119.646 124.269 108.549 130.373 96.0683 130.373C 75.8666 130.373 59.3728 114.313 59.3728 94.5037C 59.3728 74.6941 75.8666 58.6345 96.0683 58.6345C 108.549 58.6345 119.646 64.7383 126.27 74.1075L 148.774 74.1075C 140.461 53.6442 120.028 39.1637 96.0683 39.1637C 70.1097 39.1637 48.2908 56.1609 41.5401 79.3485L 40.6734 82.3252L 0 82.3252L 0.900913 77.4769ZM 10.1611 74.1075L 34.4649 74.1075C 43.1668 48.994 67.4412 30.946 96.0683 30.946C 125.814 30.946 150.861 50.4325 158.62 77.0842L 160.146 82.3252L 121.644 82.3252L 120.428 80.3339C 115.492 72.2528 106.407 66.8522 96.0683 66.8522C 80.4122 66.8522 67.7194 79.2955 67.7194 94.5037C 67.7194 109.712 80.4122 122.155 96.0683 122.155C 106.407 122.155 115.492 116.755 120.428 108.674L 121.644 106.682L 160.146 106.682L 158.62 111.923C 150.861 138.575 125.814 158.061 96.0683 158.061C 67.4412 158.061 43.1668 140.013 34.4649 114.9L 10.1611 114.9C 19.5267 152.718 54.407 180.79 96.0683 180.79C 144.914 180.79 184.458 142.124 184.458 94.5037C 184.458 46.8837 144.914 8.21772 96.0683 8.21772C 54.407 8.21772 19.5267 36.2897 10.1611 74.1075Z"/>
<path id="path1_fill" d="M 46.7984 138.393C 55.2397 138.393 62.2966 136.078 67.9691 131.448C 73.7092 126.752 76.8156 120.701 77.2883 113.293L 88.9372 113.293C 88.5996 119.841 86.5061 125.826 82.6569 131.25C 78.8077 136.607 73.6754 140.807 67.26 143.849C 60.9122 146.891 54.0917 148.412 46.7984 148.412C 32.4145 148.412 21.0019 143.518 12.5606 133.73C 4.18687 123.942 0 110.78 0 94.2458L 0 90.6744C 0 80.0924 1.89084 70.734 5.67253 62.5991C 9.45422 54.4642 14.8566 48.1811 21.8798 43.7499C 28.9704 39.3187 37.2429 37.1031 46.6971 37.1031C 58.7175 37.1031 68.6106 40.6084 76.3766 47.6189C 84.2101 54.6295 88.397 63.8557 88.9372 75.2974L 77.2883 75.2974C 76.748 66.898 73.6416 60.1189 67.9691 54.9602C 62.3641 49.8015 55.2734 47.2221 46.6971 47.2221C 35.7572 47.2221 27.2484 51.0911 21.1707 58.8292C 15.1605 66.5673 12.1554 77.4138 12.1554 91.3688L 12.1554 94.841C 12.1554 108.531 15.1605 119.213 21.1707 126.885C 27.2484 134.557 35.791 138.393 46.7984 138.393Z"/>
<path id="path2_fill" d="M 106.563 91.1704C 106.563 80.853 108.589 71.5607 112.64 63.2935C 116.76 55.0263 122.533 48.611 129.962 44.0475C 137.458 39.4179 145.933 37.1031 155.387 37.1031C 169.973 37.1031 181.791 42.1295 190.84 52.1824C 199.889 62.1692 204.414 75.4297 204.414 91.9641L 204.414 94.4442C 204.414 104.828 202.354 114.186 198.235 122.52C 194.183 130.787 188.443 137.169 181.015 141.666C 173.586 146.164 165.111 148.412 155.59 148.412C 141.071 148.412 129.253 143.419 120.136 133.432C 111.087 123.379 106.563 110.086 106.563 93.5514L 106.563 91.1704ZM 118.718 94.4442C 118.718 107.275 122.095 117.824 128.848 126.091C 135.668 134.292 144.582 138.393 155.59 138.393C 166.529 138.393 175.376 134.292 182.129 126.091C 188.949 117.824 192.36 106.944 192.36 93.4522L 192.36 91.1704C 192.36 82.9694 190.806 75.4628 187.7 68.6506C 184.594 61.8385 180.238 56.5805 174.633 52.8769C 169.028 49.107 162.613 47.2221 155.387 47.2221C 144.582 47.2221 135.769 51.3888 128.949 59.7221C 122.128 67.9893 118.718 78.8358 118.718 92.2617L 118.718 94.4442Z"/>
<path id="path3_fill" d="M 243.109 146.428L 230.953 146.428L 230.953 39.0872L 243.109 39.0872L 243.109 146.428ZM 228.826 8.0357C 228.826 5.78703 229.569 3.90211 231.054 2.38095C 232.54 0.793649 234.566 0 237.132 0C 239.698 0 241.724 0.793649 243.21 2.38095C 244.763 3.90211 245.54 5.78703 245.54 8.0357C 245.54 10.2844 244.763 12.1693 243.21 13.6904C 241.724 15.2116 239.698 15.9722 237.132 15.9722C 234.566 15.9722 232.54 15.2116 231.054 13.6904C 229.569 12.1693 228.826 10.2844 228.826 8.0357Z"/>
<path id="path4_fill" d="M 287.678 39.0872L 288.084 57.4403C 292.203 50.8266 297.335 45.8002 303.481 42.361C 309.626 38.8557 316.413 37.1031 323.841 37.1031C 335.591 37.1031 344.336 40.3438 350.076 46.8253C 355.816 53.3067 358.72 63.0289 358.788 75.9919L 358.788 146.428L 346.734 146.428L 346.734 75.8927C 346.666 66.3027 344.573 59.1599 340.453 54.4642C 336.402 49.7684 329.885 47.4205 320.903 47.4205C 313.408 47.4205 306.756 49.7353 300.948 54.3649C 295.208 58.9284 290.954 65.1123 288.185 72.9165L 288.185 146.428L 276.131 146.428L 276.131 39.0872L 287.678 39.0872Z"/>
<path id="path5_fill" d="M 409.03 11.6071L 409.03 39.0872L 431.72 39.0872L 431.72 48.8094L 409.03 48.8094L 409.03 120.337C 409.03 126.289 410.111 130.721 412.272 133.631C 414.5 136.541 418.181 137.996 423.313 137.996C 425.339 137.996 428.614 137.665 433.138 137.004L 433.645 146.726C 430.471 147.85 426.149 148.412 420.679 148.412C 412.373 148.412 406.329 146.064 402.547 141.369C 398.766 136.607 396.875 129.629 396.875 120.436L 396.875 48.8094L 376.717 48.8094L 376.717 39.0872L 396.875 39.0872L 396.875 11.6071L 409.03 11.6071Z"/>
<path id="path6_fill" d="M 499.284 148.412C 489.965 148.412 481.524 146.164 473.96 141.666C 466.465 137.169 460.623 130.919 456.436 122.916C 452.25 114.848 450.156 105.82 450.156 95.8331L 450.156 91.5672C 450.156 81.2498 452.182 71.9575 456.234 63.6903C 460.353 55.4231 466.059 48.9417 473.353 44.2459C 480.646 39.484 488.547 37.1031 497.056 37.1031C 510.359 37.1031 520.894 41.5674 528.66 50.4959C 536.493 59.3583 540.41 71.4945 540.41 86.9046L 540.41 93.5514L 462.21 93.5514L 462.21 95.8331C 462.21 108.002 465.756 118.154 472.846 126.289C 480.004 134.358 488.986 138.393 499.791 138.393C 506.274 138.393 511.98 137.235 516.91 134.92C 521.907 132.606 526.431 128.902 530.483 123.809L 538.08 129.464C 529.166 142.096 516.234 148.412 499.284 148.412ZM 497.056 47.2221C 487.939 47.2221 480.241 50.4959 473.96 57.0435C 467.748 63.5911 463.966 72.3874 462.615 83.4323L 528.356 83.4323L 528.356 82.1427C 528.018 71.8252 525.013 63.4258 519.341 56.9443C 513.668 50.4628 506.24 47.2221 497.056 47.2221Z"/>
<path id="path7_fill" d="M 604.53 138.393C 612.971 138.393 620.028 136.078 625.701 131.448C 631.441 126.752 634.547 120.701 635.02 113.293L 646.669 113.293C 646.331 119.841 644.238 125.826 640.389 131.25C 636.539 136.607 631.407 140.807 624.992 143.849C 618.644 146.891 611.823 148.412 604.53 148.412C 590.146 148.412 578.734 143.518 570.292 133.73C 561.919 123.942 557.732 110.78 557.732 94.2458L 557.732 90.6744C 557.732 80.0924 559.623 70.734 563.404 62.5991C 567.186 54.4642 572.588 48.1811 579.611 43.7499C 586.702 39.3187 594.975 37.1031 604.429 37.1031C 616.449 37.1031 626.342 40.6084 634.108 47.6189C 641.942 54.6295 646.129 63.8557 646.669 75.2974L 635.02 75.2974C 634.48 66.898 631.373 60.1189 625.701 54.9602C 620.096 49.8015 613.005 47.2221 604.429 47.2221C 593.489 47.2221 584.98 51.0911 578.902 58.8292C 572.892 66.5673 569.887 77.4138 569.887 91.3688L 569.887 94.841C 569.887 108.531 572.892 119.213 578.902 126.885C 584.98 134.557 593.523 138.393 604.53 138.393Z"/>
</defs>
</svg>
