<svg width="32" height="26" viewBox="0 0 32 26" fill="none" xmlns="http://www.w3.org/2000/svg">
<path d="M31.7803 7.5303L25.5069 13.7803C25.214 14.0732 24.7391 14.0732 24.4463 13.7803L23.2196 12.5537C22.9226 12.2566 22.9274 11.7734 23.2304 11.4824L26.4323 8.49999H0.750023C0.335836 8.49999 2.34381e-05 8.16418 2.34381e-05 7.74999V6.24998C2.34381e-05 5.8358 0.335836 5.49998 0.750023 5.49998H26.4323L23.2305 2.51754C22.9274 2.22654 22.9226 1.74335 23.2197 1.44628L24.4463 0.219657C24.7392 -0.073219 25.2141 -0.073219 25.5069 0.219657L31.7804 6.46967C32.0732 6.76255 32.0732 7.23742 31.7803 7.5303ZM0.219711 19.5303L6.49314 25.7803C6.78602 26.0732 7.26089 26.0732 7.55377 25.7803L8.78039 24.5537C9.07745 24.2567 9.07258 23.7735 8.76958 23.4825L5.56777 20.5H31.25C31.6642 20.5 32 20.1642 32 19.75V18.25C32 17.8358 31.6642 17.5 31.25 17.5H5.56777L8.76952 14.5176C9.07258 14.2266 9.07745 13.7434 8.78033 13.4463L7.55371 12.2197C7.26083 11.9268 6.78596 11.9268 6.49308 12.2197L0.219648 18.4697C-0.0732265 18.7626 -0.0732265 19.2375 0.219711 19.5303Z" fill="#045CC7"/>
</svg>
