<svg width="25" height="20" viewBox="0 0 25 20" version="1.1" xmlns="http://www.w3.org/2000/svg" xmlns:xlink="http://www.w3.org/1999/xlink">
<title>twitter</title>
<desc>Created using Figma</desc>
<g id="Canvas" transform="translate(1575 -4253)">
<g id="twitter">
<g id="Vector">
<use xlink:href="#path0_fill" transform="translate(-1575 4253)" fill="#03A9F4"/>
</g>
</g>
</g>
<defs>
<path id="path0_fill" d="M 25 2.36769C 24.0703 2.76923 23.0797 3.03538 22.0469 3.16462C 23.1094 2.54 23.9203 1.55846 24.3016 0.375385C 23.3109 0.956923 22.2172 1.36769 21.0516 1.59692C 20.1109 0.610769 18.7703 0 17.3078 0C 14.4703 0 12.1859 2.26769 12.1859 5.04769C 12.1859 5.44769 12.2203 5.83231 12.3047 6.19846C 8.04375 5.99385 4.27344 3.98308 1.74062 0.92C 1.29844 1.67538 1.03906 2.54 1.03906 3.47077C 1.03906 5.21846 1.95312 6.76769 3.31562 7.66462C 2.49219 7.64923 1.68437 7.41385 1 7.04308C 1 7.05846 1 7.07846 1 7.09846C 1 9.55077 2.77656 11.5877 5.10625 12.0569C 4.68906 12.1692 4.23438 12.2231 3.7625 12.2231C 3.43438 12.2231 3.10312 12.2046 2.79219 12.1369C 3.45625 14.1354 5.34063 15.6046 7.58125 15.6523C 5.8375 16.9954 3.62344 17.8046 1.22656 17.8046C 0.80625 17.8046 0.403125 17.7862 0 17.7354C 2.27031 19.1769 4.96094 20 7.8625 20C 17.2937 20 22.45 12.3077 22.45 5.64C 22.45 5.41692 22.4422 5.20154 22.4312 4.98769C 23.4484 4.27692 24.3031 3.38923 25 2.36769Z"/>
</defs>
</svg>
