<svg width="24" height="24" viewBox="0 0 24 24" version="1.1" xmlns="http://www.w3.org/2000/svg" xmlns:xlink="http://www.w3.org/1999/xlink">
<g id="Canvas" fill="none">
<g id="united-kingdom (2)">
<g id="Vector">
<path d="M 11.8658 23.3544C 18.4191 23.3544 23.7316 18.1264 23.7316 11.6772C 23.7316 5.22807 18.4191 0 11.8658 0C 5.3125 0 0 5.22807 0 11.6772C 0 18.1264 5.3125 23.3544 11.8658 23.3544Z" transform="translate(0.244141 0.519531)" fill="#F0F0F0"/>
</g>
<g id="Group">
<g id="Vector_2">
<path d="M 2.04412 -7.79539e-08C 1.11205 1.1934 0.409232 2.5689 1.13161e-08 4.06317L 6.17291 4.06317L 2.04412 -7.79539e-08Z" transform="translate(0.654297 5.08691)" fill="#045CC7"/>
</g>
<g id="Vector_3">
<path d="M 6.17282 4.06313C 5.76359 2.5689 5.06072 1.1934 4.1287 -1.0301e-07L 2.26322e-07 4.06313L 6.17282 4.06313Z" transform="translate(17.3926 5.08691)" fill="#045CC7"/>
</g>
<g id="Vector_4">
<path d="M 1.13161e-08 -1.55908e-07C 0.409278 1.49423 1.1121 2.86972 2.04412 4.06308L 6.17277 -1.55908e-07L 1.13161e-08 -1.55908e-07Z" transform="translate(0.654297 15.2432)" fill="#045CC7"/>
</g>
<g id="Vector_5">
<path d="M 4.12875 2.01168C 2.91607 1.09442 1.51841 0.402773 5.99754e-07 1.11363e-08L 5.99754e-07 6.07476L 4.12875 2.01168Z" transform="translate(15.207 0.921875)" fill="#045CC7"/>
</g>
<g id="Vector_6">
<path d="M -7.92128e-08 4.06304C 1.21268 4.98029 2.61039 5.67194 4.12875 6.07471L 4.12875 2.22725e-07L -7.92128e-08 4.06304Z" transform="translate(4.88672 17.3965)" fill="#045CC7"/>
</g>
<g id="Vector_7">
<path d="M 4.1287 1.11363e-08C 2.61034 0.402773 1.21263 1.09442 -7.92129e-08 2.01163L 4.1287 6.07471L 4.1287 1.11363e-08Z" transform="translate(4.88672 0.921875)" fill="#045CC7"/>
</g>
<g id="Vector_8">
<path d="M -4.86593e-07 6.07471C 1.51836 5.67194 2.91607 4.98029 4.1287 4.06308L -4.86593e-07 2.22725e-07L -4.86593e-07 6.07471Z" transform="translate(15.207 17.3965)" fill="#045CC7"/>
</g>
<g id="Vector_9">
<path d="M 2.26322e-07 -1.55908e-07L 4.1287 4.06313C 5.06072 2.86977 5.76359 1.49423 6.17282 -1.55908e-07L 2.26322e-07 -1.55908e-07Z" transform="translate(17.3926 15.2432)" fill="#045CC7"/>
</g>
</g>
<g id="Group_2">
<g id="Vector_10">
<path d="M 23.6312 10.1541L 13.4136 10.1541L 13.4136 10.1541L 13.4136 0.0988459C 12.9069 0.0339369 12.3904 0 11.8658 0C 11.3412 0 10.8247 0.0339369 10.3181 0.0988459L 10.3181 10.154L 10.3181 10.1541L 0.100442 10.1541C 0.034485 10.6527 0 11.161 0 11.6772C 0 12.1935 0.034485 12.7018 0.100442 13.2003L 10.318 13.2003L 10.3181 13.2003L 10.3181 23.2556C 10.8247 23.3205 11.3412 23.3544 11.8658 23.3544C 12.3904 23.3544 12.9069 23.3206 13.4135 23.2556L 13.4135 13.2004L 13.4135 13.2004L 23.6312 13.2004C 23.6971 12.7018 23.7316 12.1935 23.7316 11.6772C 23.7316 11.161 23.6971 10.6527 23.6312 10.1541Z" transform="translate(0.244141 0.519531)" fill="#D80027"/>
</g>
<g id="Vector_11">
<path d="M -4.86593e-07 4.54582e-05L 5.29493 5.21082C 5.53846 4.97126 5.77077 4.72079 5.99242 4.46116L 1.45922 -4.7886e-07L -4.86593e-07 -4.7886e-07L -4.86593e-07 4.54582e-05Z" transform="translate(15.2051 15.2441)" fill="#D80027"/>
</g>
<g id="Vector_12">
<path d="M 5.29498 -1.55908e-07L 5.29489 -1.55908e-07L 1.55597e-07 5.21073C 0.243435 5.45039 0.497947 5.67901 0.761776 5.89713L 5.29498 1.43589L 5.29498 -1.55908e-07Z" transform="translate(3.7207 15.2441)" fill="#D80027"/>
</g>
<g id="Vector_13">
<path d="M 5.99242 5.21091L 5.99242 5.21082L 0.697487 1.53124e-07C 0.45396 0.239566 0.22165 0.490033 -6.22387e-08 0.749669L 4.53325 5.21087L 5.99242 5.21087L 5.99242 5.21091Z" transform="translate(3.02344 3.93945)" fill="#D80027"/>
</g>
<g id="Vector_14">
<path d="M -4.86593e-07 5.89722L 5.29498 0.686356C 5.05155 0.446699 4.79703 0.218081 4.5332 -8.63061e-08L -4.86593e-07 4.4612L -4.86593e-07 5.89722Z" transform="translate(15.2051 3.25293)" fill="#D80027"/>
</g>
</g>
</g>
</g>
</svg>

