<svg width="30" height="26" viewBox="0 0 30 26" fill="none" xmlns="http://www.w3.org/2000/svg">
<path d="M26.25 4.64286V3.71429C26.25 1.66272 24.5713 0 22.5 0H5.625C2.51836 0 0 2.49437 0 5.57143V20.4286C0 23.5056 2.51836 26 5.625 26H26.25C28.3213 26 30 24.3373 30 22.2857V8.35714C30 6.30558 28.3213 4.64286 26.25 4.64286ZM27.1875 22.2857C27.1875 22.7976 26.7668 23.2143 26.25 23.2143H5.625C4.07402 23.2143 2.8125 21.9648 2.8125 20.4286V5.57143C2.8125 4.03522 4.07402 2.78571 5.625 2.78571H22.5C23.0168 2.78571 23.4375 3.20241 23.4375 3.71429V5.57143H6.5625C6.04453 5.57143 5.625 5.98696 5.625 6.5C5.625 7.01304 6.04453 7.42857 6.5625 7.42857H26.25C26.7668 7.42857 27.1875 7.84527 27.1875 8.35714V22.2857ZM22.5 13C21.4646 13 20.625 13.8317 20.625 14.8571C20.625 15.8826 21.4646 16.7143 22.5 16.7143C23.5354 16.7143 24.375 15.8826 24.375 14.8571C24.375 13.8317 23.5354 13 22.5 13Z" fill="#045CC7"/>
</svg>
