<svg width="41" height="34" viewBox="0 0 41 34" version="1.1" xmlns="http://www.w3.org/2000/svg" xmlns:xlink="http://www.w3.org/1999/xlink">
<g id="Canvas" fill="none">
<g id="wallet (2)">
<g id="Vector">
<path fill-rule="evenodd" clip-rule="evenodd" d="M 40.3836 15.3824L 37.7863 15.3824L 37.5863 15.3824L 37.5863 15.1824L 37.5863 5.80144L 4.19603 5.79471C 4.19602 5.79471 4.196 5.79471 4.19599 5.79471C 3.31432 5.79468 2.59735 5.0777 2.59735 4.19603C 2.59735 3.31434 3.31434 2.59735 4.19603 2.59735L 4.19607 2.59735L 34.7889 2.60408L 34.7889 0.206732L 4.19603 0.2C 4.19601 0.2 4.196 0.2 4.19599 0.2C 1.99277 0.200024 0.2 1.99281 0.2 4.19603L 0.2 28.8127C 0.2 31.016 1.9928 32.8088 4.19607 32.8088L 37.5863 32.8155L 37.5863 23.5745L 37.5863 23.3745L 37.7863 23.3745L 40.3836 23.3745L 40.3836 15.3824ZM 35.1889 30.4182L 34.9889 30.4182L 4.19603 30.4114C 4.19601 30.4114 4.196 30.4114 4.19599 30.4114C 3.31432 30.4114 2.59735 29.6944 2.59735 28.8127L 2.59735 8.15148L 2.59735 7.86835L 2.8642 7.96298C 3.28109 8.11082 3.72909 8.19205 4.19603 8.19205L 4.19607 8.19205L 34.989 8.19883L 35.1889 8.19888L 35.1889 8.39883L 35.1889 15.1824L 35.1889 15.3824L 34.9889 15.3824L 31.772 15.3824C 29.5688 15.3824 27.776 17.1752 27.776 19.3784C 27.776 21.5817 29.5688 23.3745 31.772 23.3745L 34.9889 23.3745L 35.1889 23.3745L 35.1889 23.5745L 35.1889 30.2182L 35.1889 30.4182ZM 37.9863 20.9771L 37.7863 20.9771L 31.772 20.9771C 30.8903 20.9771 30.1733 20.2601 30.1733 19.3784C 30.1733 18.4968 30.8903 17.7798 31.772 17.7798L 37.7863 17.7798L 37.9863 17.7798L 37.9863 17.9798L 37.9863 20.7771L 37.9863 20.9771Z" transform="translate(0 0.810547)" fill="#045CC7"/>
<path fill-rule="evenodd" clip-rule="evenodd" d="M 40.3836 15.3824L 37.7863 15.3824L 37.5863 15.3824L 37.5863 15.1824L 37.5863 5.80144L 4.19603 5.79471C 4.19602 5.79471 4.196 5.79471 4.19599 5.79471C 3.31432 5.79468 2.59735 5.0777 2.59735 4.19603C 2.59735 3.31434 3.31434 2.59735 4.19603 2.59735L 4.19607 2.59735L 34.7889 2.60408L 34.7889 0.206732L 4.19603 0.2C 4.19601 0.2 4.196 0.2 4.19599 0.2C 1.99277 0.200024 0.2 1.99281 0.2 4.19603L 0.2 28.8127C 0.2 31.016 1.9928 32.8088 4.19607 32.8088L 37.5863 32.8155L 37.5863 23.5745L 37.5863 23.3745L 37.7863 23.3745L 40.3836 23.3745L 40.3836 15.3824ZM 35.1889 30.4182L 34.9889 30.4182L 4.19603 30.4114C 4.19601 30.4114 4.196 30.4114 4.19599 30.4114C 3.31432 30.4114 2.59735 29.6944 2.59735 28.8127L 2.59735 8.15148L 2.59735 7.86835L 2.8642 7.96298C 3.28109 8.11082 3.72909 8.19205 4.19603 8.19205L 4.19607 8.19205L 34.989 8.19883L 35.1889 8.19888L 35.1889 8.39883L 35.1889 15.1824L 35.1889 15.3824L 34.9889 15.3824L 31.772 15.3824C 29.5688 15.3824 27.776 17.1752 27.776 19.3784C 27.776 21.5817 29.5688 23.3745 31.772 23.3745L 34.9889 23.3745L 35.1889 23.3745L 35.1889 23.5745L 35.1889 30.2182L 35.1889 30.4182ZM 37.9863 20.9771L 37.7863 20.9771L 31.772 20.9771C 30.8903 20.9771 30.1733 20.2601 30.1733 19.3784C 30.1733 18.4968 30.8903 17.7798 31.772 17.7798L 37.7863 17.7798L 37.9863 17.7798L 37.9863 17.9798L 37.9863 20.7771L 37.9863 20.9771Z" stroke-width="0.4" stroke-miterlimit="8" transform="translate(0 0.810547)" stroke="white"/>
</g>
</g>
</g>
</svg>

